<svg width="43" height="41" fill="none" xmlns="http://www.w3.org/2000/svg"><path d="M26.58 41H.9v-7.02l8.46-8.58c3-3.08 5.08-5.44 6.24-7.08 1.2-1.64 1.8-3.38 1.8-5.22 0-1.88-.5-3.2-1.5-3.96C14.94 8.38 13.56 8 11.76 8c-2.68 0-5.6.24-8.76.72l-1.44.18-.42-6.42C5.06 1.28 9.12.68 13.32.68c8.4 0 12.6 3.78 12.6 11.34 0 2.96-.64 5.52-1.92 7.68-1.28 2.16-3.6 4.78-6.96 7.86l-6.9 6.24h16.44V41zm7.354 0v-9.96h8.64V41h-8.64z" fill="url(#paint0_linear)"/><defs><linearGradient id="paint0_linear" x1="-26.059" y1="0" x2="15.221" y2="89.238" gradientUnits="userSpaceOnUse"><stop stop-color="#B72563"/><stop offset="1" stop-color="#F9A86D"/></linearGradient></defs></svg>