<svg width="43" height="42" fill="none" xmlns="http://www.w3.org/2000/svg"><path d="M.72 2.84C4.4 1.4 8.5.68 13.02.68c4.56 0 7.88.88 9.96 2.64 2.08 1.72 3.12 4.5 3.12 8.34s-1.54 6.78-4.62 8.82c1.92 1.04 3.28 2.12 4.08 3.24.84 1.12 1.26 2.9 1.26 5.34 0 4.28-1.08 7.46-3.24 9.54-2.12 2.08-5.54 3.12-10.26 3.12-3.48 0-7.14-.52-10.98-1.56l-1.92-.48.42-6.3c4.48.76 8.24 1.14 11.28 1.14 4.12 0 6.18-1.76 6.18-5.28 0-1.48-.54-2.66-1.62-3.54-1.04-.88-2.42-1.32-4.14-1.32H4.56v-6.84h7.98c1.32 0 2.48-.56 3.48-1.68 1.04-1.12 1.56-2.36 1.56-3.72 0-2.84-1.98-4.26-5.94-4.26-2.76 0-5.7.28-8.82.84l-1.56.24-.54-6.12zM33.934 41v-9.96h8.64V41h-8.64z" fill="url(#paint0_linear)"/><defs><linearGradient id="paint0_linear" x1="-26.059" y1="0" x2="15.221" y2="89.238" gradientUnits="userSpaceOnUse"><stop stop-color="#B72563"/><stop offset="1" stop-color="#F9A86D"/></linearGradient></defs></svg>