<svg width="43" height="41" viewBox="0 0 43 41" fill="none" xmlns="http://www.w3.org/2000/svg">
<path d="M26.4 0.399998V7.6H8.7L7.68 16.18C10.16 15.22 12.52 14.74 14.76 14.74C23.32 14.74 27.6 18.72 27.6 26.68C27.6 31.16 26.42 34.62 24.06 37.06C21.7 39.5 18.36 40.72 14.04 40.72C12.2 40.72 10.1 40.54 7.74 40.18C5.42 39.82 3.56 39.44 2.16 39.04L4.47035e-08 38.5L0.9 32.38C5.74 33.14 9.78 33.52 13.02 33.52C14.98 33.52 16.48 33 17.52 31.96C18.56 30.92 19.08 29.44 19.08 27.52C19.08 25.56 18.64 24.14 17.76 23.26C16.88 22.38 15.64 21.94 14.04 21.94C11.36 21.94 9 22.2 6.96 22.72L6.06 22.96L1.14 21.82L2.22 0.399998H26.4ZM33.9342 40V30.04H42.5742V40H33.9342Z" fill="url(#paint0_linear)"/>
<defs>
<linearGradient id="paint0_linear" x1="-26.0588" y1="-1" x2="15.2212" y2="88.2378" gradientUnits="userSpaceOnUse">
<stop stop-color="#B72563"/>
<stop offset="1" stop-color="#F9A86D"/>
</linearGradient>
</defs>
</svg>
