<svg width="44" height="42" viewBox="0 0 44 42" fill="none" xmlns="http://www.w3.org/2000/svg">
<path d="M27.76 8.78C23.68 8.18 20.14 7.88 17.14 7.88C11.46 7.88 8.62 10.96 8.62 17.12L9.88 16.76C12.52 16 14.62 15.62 16.18 15.62C20.7 15.62 24.1 16.66 26.38 18.74C28.66 20.82 29.8 24.06 29.8 28.46C29.8 32.82 28.52 36.12 25.96 38.36C23.4 40.6 19.68 41.72 14.8 41.72C9.96 41.72 6.3 39.96 3.82 36.44C1.34 32.88 0.1 27.66 0.1 20.78C0.1 13.9 1.52 8.84 4.36 5.6C7.2 2.32 11.28 0.679997 16.6 0.679997C19.72 0.679997 23.06 1.12 26.62 2L28.48 2.42L27.76 8.78ZM15.46 22.82C13.58 22.82 11.62 23.16 9.58 23.84L8.56 24.14C8.56 31.06 10.8 34.52 15.28 34.52C17.2 34.52 18.68 34 19.72 32.96C20.76 31.88 21.28 30.38 21.28 28.46C21.28 24.7 19.34 22.82 15.46 22.82ZM34.9342 41V31.04H43.5742V41H34.9342Z" fill="url(#paint0_linear)"/>
<defs>
<linearGradient id="paint0_linear" x1="-25.0588" y1="-9.45277e-07" x2="16.2212" y2="89.2378" gradientUnits="userSpaceOnUse">
<stop stop-color="#B72563"/>
<stop offset="1" stop-color="#F9A86D"/>
</linearGradient>
</defs>
</svg>
