<svg width="45" height="42" viewBox="0 0 45 42" fill="none" xmlns="http://www.w3.org/2000/svg">
<path d="M5.24 3.56C7.84 1.64 11.32 0.679997 15.68 0.679997C20.04 0.679997 23.56 1.64 26.24 3.56C28.92 5.48 30.26 8.14 30.26 11.54C30.26 13.86 29.98 15.6 29.42 16.76C28.86 17.92 27.7 19.2 25.94 20.6C27.7 22.08 28.96 23.48 29.72 24.8C30.48 26.12 30.86 27.94 30.86 30.26C30.86 34.18 29.46 37.08 26.66 38.96C23.86 40.8 20.2 41.72 15.68 41.72C5.68 41.72 0.68 38.12 0.68 30.92C0.68 28.36 1.06 26.38 1.82 24.98C2.62 23.54 3.9 22.08 5.66 20.6C3.98 19.24 2.84 17.92 2.24 16.64C1.64 15.32 1.34 13.6 1.34 11.48C1.34 8.08 2.64 5.44 5.24 3.56ZM9.56 29C9.56 32.52 11.62 34.28 15.74 34.28C19.9 34.28 21.98 32.52 21.98 29C21.98 26.92 20.8 25.42 18.44 24.5H13.16C10.76 25.42 9.56 26.92 9.56 29ZM15.8 8.12C14 8.12 12.62 8.52 11.66 9.32C10.7 10.12 10.22 11.34 10.22 12.98C10.22 14.62 11.2 16.12 13.16 17.48H18.44C20.4 16.12 21.38 14.56 21.38 12.8C21.38 9.68 19.52 8.12 15.8 8.12ZM35.9342 41V31.04H44.5742V41H35.9342Z" fill="url(#paint0_linear)"/>
<defs>
<linearGradient id="paint0_linear" x1="-24.0588" y1="-9.45277e-07" x2="17.2212" y2="89.2378" gradientUnits="userSpaceOnUse">
<stop stop-color="#B72563"/>
<stop offset="1" stop-color="#F9A86D"/>
</linearGradient>
</defs>
</svg>
