<svg width="45" height="42" viewBox="0 0 45 42" fill="none" xmlns="http://www.w3.org/2000/svg">
<path d="M13.88 34.52C19.2 34.52 21.86 31.28 21.86 24.8L20.6 25.22C17.84 26.14 15.74 26.6 14.3 26.6C9.94 26.6 6.58 25.54 4.22 23.42C1.86 21.3 0.68 18.16 0.68 14C0.68 9.8 1.98 6.54 4.58 4.22C7.18 1.86 10.86 0.679997 15.62 0.679997C20.42 0.679997 24.08 2.46 26.6 6.02C29.12 9.54 30.38 14.8 30.38 21.8C30.38 28.76 28.98 33.82 26.18 36.98C23.38 40.14 19.28 41.72 13.88 41.72C10.76 41.72 7.42 41.28 3.86 40.4L2 39.98L2.72 33.62C6.8 34.22 10.52 34.52 13.88 34.52ZM15.02 19.4C16.86 19.4 18.84 19.04 20.96 18.32L21.92 18.02C21.92 11.26 19.68 7.88 15.2 7.88C13.28 7.88 11.8 8.42 10.76 9.5C9.72 10.54 9.2 12.02 9.2 13.94C9.2 17.58 11.14 19.4 15.02 19.4ZM35.9342 41V31.04H44.5742V41H35.9342Z" fill="url(#paint0_linear)"/>
<defs>
<linearGradient id="paint0_linear" x1="-24.0588" y1="-9.45277e-07" x2="17.2212" y2="89.2378" gradientUnits="userSpaceOnUse">
<stop stop-color="#B72563"/>
<stop offset="1" stop-color="#F9A86D"/>
</linearGradient>
</defs>
</svg>
