<svg width="787" height="969" viewBox="0 0 787 969" fill="none" xmlns="http://www.w3.org/2000/svg">
<g clip-path="url(#clip0)">
<path opacity="0.2443" d="M163.954 717.279L225.704 709.009L169.286 651.332L163.954 717.279Z" fill="#004F8F"/>
<path opacity="0.5038" d="M-43.1319 815.679L54.9883 801.813L30.6655 902.822L-43.1319 815.679Z" fill="#004F8F"/>
<path opacity="0.8777" d="M-43.1321 815.679L-69.5348 936.817L30.6653 902.822L-43.1321 815.679Z" fill="#004F8F"/>
<path opacity="0.5761" d="M467.311 733.977L430.851 775.737L440.33 773.981L467.311 733.977Z" fill="#004F8F"/>
<path opacity="0.1811" d="M571.524 815.292L524.642 859.775L498.233 797.306L571.524 815.292Z" fill="#004F8F"/>
<path opacity="0.2475" d="M181.469 109.172L129.823 200.635L110.463 146.701L181.469 109.172Z" fill="#004F8F"/>
<path opacity="0.054651" d="M163.953 717.279L186.263 731.884L124.964 826.441L163.953 717.279Z" fill="#004F8F"/>
<path opacity="0.341" d="M267.545 865.972L324.105 845.328L267.713 923.116L267.545 865.972Z" fill="#004F8F"/>
<path opacity="0.4395" d="M248.491 964.131L328.084 960.906L267.714 923.115L248.491 964.131Z" fill="#004F8F"/>
<path opacity="0.8687" d="M524.641 859.775L488.969 987.321L582.324 886.879L524.641 859.775Z" fill="#004F8F"/>
<path opacity="0.6378" d="M241.847 343.083L222.251 378.61L217.028 366.504L241.847 343.083Z" fill="#004F8F"/>
<path opacity="0.6534" d="M66.0483 314.182L168.512 352.564L44.4428 369.304L66.0483 314.182Z" fill="#004F8F"/>
<path opacity="0.4075" d="M217.028 366.504L222.251 378.61L194.474 360.028L217.028 366.504Z" fill="#004F8F"/>
<path opacity="0.1929" d="M240.304 509.352L222.505 597.883L315.752 588.006L240.304 509.352Z" fill="#004F8F"/>
<path opacity="0.1666" d="M-39.7234 466.047L11.5459 452.602L-31.1902 542.507L-39.7234 466.047Z" fill="#004F8F"/>
<path opacity="0.3403" d="M349.221 1001.2L414.366 977.323L328.083 960.907L307.488 995.759L349.221 1001.2Z" fill="#004F8F"/>
<path opacity="0.201" d="M595.231 620.904L502.198 672.97L589.163 654.93L595.231 620.904Z" fill="#004F8F"/>
<path opacity="0.9176" d="M430.851 775.737L440.33 773.981L404.335 810.09L430.851 775.737Z" fill="#004F8F"/>
<path opacity="0.1984" d="M324.106 845.329L384.021 867.828L404.335 810.09L324.106 845.329Z" fill="#004F8F"/>
<path opacity="0.6816" d="M571.6 762.533L571.523 815.293L614.087 745.495L571.6 762.533Z" fill="#004F8F"/>
<path opacity="0.2669" d="M324.106 845.328L328.083 960.907L377.338 923.262L324.106 845.328Z" fill="#004F8F"/>
<path opacity="0.7806" d="M124.965 826.44L30.666 902.822L96.5355 919.298L124.965 826.44Z" fill="#004F8F"/>
<path opacity="0.9353" d="M104.705 969.325L96.5352 919.298L71.8001 965.035L104.705 969.325Z" fill="#004F8F"/>
<path opacity="0.4956" d="M66.0482 314.182L168.512 352.564L165.497 327.691L66.0482 314.182Z" fill="#004F8F"/>
<path opacity="0.6271" d="M502.198 672.971L467.31 733.977L424.224 692.999L502.198 672.971Z" fill="#004F8F"/>
<path opacity="0.7557" d="M374.24 767.541L430.851 775.737L424.224 692.998L374.24 767.541Z" fill="#004F8F"/>
<path opacity="0.3556" d="M186.264 731.884L124.965 826.44L227.521 859.938L186.264 731.884Z" fill="#004F8F"/>
<path opacity="0.058722" d="M304.229 743.182L267.545 865.972L227.521 859.939L304.229 743.182Z" fill="#004F8F"/>
<path opacity="0.5999" d="M222.505 597.883L211.435 628.537L250.659 659.492L222.505 597.883Z" fill="#004F8F"/>
<path opacity="0.7881" d="M222.505 597.883L287.27 620.743L250.659 659.492L222.505 597.883Z" fill="#004F8F"/>
<path opacity="0.397" d="M211.436 628.537L249.533 676.481L250.659 659.492L211.436 628.537Z" fill="#004F8F"/>
<path opacity="0.1352" d="M249.532 676.482L322.05 644.046L250.659 659.492L249.532 676.482Z" fill="#004F8F"/>
<path opacity="0.302" d="M-47.0343 398.995L-39.7233 466.047L8.19272 415.715L-47.0343 398.995Z" fill="#004F8F"/>
<path opacity="0.5835" d="M129.824 200.634L138.205 267.825L99.3419 238.278L129.824 200.634Z" fill="#004F8F"/>
<path opacity="0.8305" d="M-80.9201 237.356L-1.8847 244.668L-69.54 166.757L-80.9201 237.356Z" fill="#004F8F"/>
<path opacity="0.4081" d="M11.5459 452.602L131.236 492.414L68.5464 526.675L11.5459 452.602Z" fill="#004F8F"/>
<path opacity="0.9412" d="M62.8893 597.203L79.6346 677.453L-16.1416 633.686L62.8893 597.203Z" fill="#004F8F"/>
<path opacity="0.2546" d="M498.233 797.306L524.642 859.775L432.547 879.594L498.233 797.306Z" fill="#004F8F"/>
<path opacity="0.5939" d="M384.021 867.828L392.76 911.401L432.548 879.594L384.021 867.828Z" fill="#004F8F"/>
<path opacity="0.5176" d="M211.18 983.204L200.303 964.378L198.339 981.53L211.18 983.204Z" fill="#004F8F"/>
<path opacity="0.2255" d="M168.512 352.563L194.474 360.028L170.564 395.264L168.512 352.563Z" fill="#004F8F"/>
<path opacity="0.1251" d="M194.474 360.028L222.251 378.61L170.564 395.264L194.474 360.028Z" fill="#004F8F"/>
<path opacity="0.2913" d="M222.251 378.61L240.226 428.555L170.563 395.264L222.251 378.61Z" fill="#004F8F"/>
<path opacity="0.7893" d="M131.236 492.414L163.503 509.949L170.563 395.265L131.236 492.414Z" fill="#004F8F"/>
<path opacity="0.7612" d="M-1.88491 244.668L88.7578 246.42L-3.37281 253.994L-1.88491 244.668Z" fill="#004F8F"/>
<path opacity="0.3186" d="M44.4425 369.303L8.1923 415.715L5.68585 357.722L44.4425 369.303Z" fill="#004F8F"/>
<path opacity="0.769" d="M138.205 267.827L165.497 327.691L201.084 280.104L138.205 267.827Z" fill="#004F8F"/>
<path opacity="0.7914" d="M244.765 341.56L241.846 343.084L201.084 280.104L244.765 341.56Z" fill="#004F8F"/>
<path opacity="0.3504" d="M467.311 733.977L498.233 797.306L451.263 769.422L467.311 733.977Z" fill="#004F8F"/>
<path opacity="0.5955" d="M440.33 773.981L498.233 797.306L451.263 769.422L440.33 773.981Z" fill="#004F8F"/>
<path opacity="0.9833" d="M-69.5399 166.757L-24.2024 154.987L15.3026 208.827L-69.5399 166.757Z" fill="#004F8F"/>
<path opacity="0.7914" d="M-69.5402 166.757L-1.88501 244.668L15.3024 208.827L-69.5402 166.757Z" fill="#004F8F"/>
<path opacity="0.8014" d="M227.521 859.938L267.545 865.972L255.275 876.613L227.521 859.938Z" fill="#004F8F"/>
<path opacity="0.38" d="M267.545 865.971L267.713 923.115L255.275 876.612L267.545 865.971Z" fill="#004F8F"/>
<path opacity="0.9285" d="M222.506 597.884L211.436 628.538L210.318 612.071L222.506 597.884Z" fill="#004F8F"/>
<path opacity="0.9356" d="M163.503 509.949L222.505 597.883L210.317 612.071L163.503 509.949Z" fill="#004F8F"/>
<path opacity="0.2443" d="M163.954 717.279L225.704 709.009L169.286 651.332L163.954 717.279Z" fill="#004F8F"/>
<path opacity="0.5038" d="M-43.1319 815.679L54.9883 801.813L30.6655 902.822L-43.1319 815.679Z" fill="#004F8F"/>
<path opacity="0.8777" d="M-43.1321 815.679L-69.5348 936.817L30.6653 902.822L-43.1321 815.679Z" fill="#004F8F"/>
<path opacity="0.5761" d="M467.311 733.977L430.851 775.737L440.33 773.981L467.311 733.977Z" fill="#004F8F"/>
<path opacity="0.1811" d="M571.524 815.292L524.642 859.775L498.233 797.306L571.524 815.292Z" fill="#004F8F"/>
<path opacity="0.2475" d="M181.469 109.172L129.823 200.635L110.463 146.701L181.469 109.172Z" fill="#004F8F"/>
<path opacity="0.054651" d="M163.953 717.279L186.263 731.884L124.964 826.441L163.953 717.279Z" fill="#004F8F"/>
<path opacity="0.341" d="M267.545 865.972L324.105 845.328L267.713 923.116L267.545 865.972Z" fill="#004F8F"/>
<path opacity="0.4395" d="M248.491 964.131L328.084 960.906L267.714 923.115L248.491 964.131Z" fill="#004F8F"/>
<path opacity="0.8687" d="M524.641 859.775L488.969 987.321L582.324 886.879L524.641 859.775Z" fill="#004F8F"/>
<path opacity="0.6378" d="M241.847 343.083L222.251 378.61L217.028 366.504L241.847 343.083Z" fill="#004F8F"/>
<path opacity="0.6534" d="M66.0483 314.182L168.512 352.564L44.4428 369.304L66.0483 314.182Z" fill="#004F8F"/>
<path opacity="0.4075" d="M217.028 366.504L222.251 378.61L194.474 360.028L217.028 366.504Z" fill="#004F8F"/>
<path opacity="0.1929" d="M240.304 509.352L222.505 597.883L315.752 588.006L240.304 509.352Z" fill="#004F8F"/>
<path opacity="0.1666" d="M-39.7234 466.047L11.5459 452.602L-31.1902 542.507L-39.7234 466.047Z" fill="#004F8F"/>
<path opacity="0.3403" d="M349.221 1001.2L414.366 977.323L328.083 960.907L307.488 995.759L349.221 1001.2Z" fill="#004F8F"/>
<path opacity="0.201" d="M595.231 620.904L502.198 672.97L589.163 654.93L595.231 620.904Z" fill="#004F8F"/>
<path opacity="0.9176" d="M430.851 775.737L440.33 773.981L404.335 810.09L430.851 775.737Z" fill="#004F8F"/>
<path opacity="0.1984" d="M324.106 845.329L384.021 867.828L404.335 810.09L324.106 845.329Z" fill="#004F8F"/>
<path opacity="0.6816" d="M571.6 762.533L571.523 815.293L614.087 745.495L571.6 762.533Z" fill="#004F8F"/>
<path opacity="0.2669" d="M324.106 845.328L328.083 960.907L377.338 923.262L324.106 845.328Z" fill="#004F8F"/>
<path opacity="0.7806" d="M124.965 826.44L30.666 902.822L96.5355 919.298L124.965 826.44Z" fill="#004F8F"/>
<path opacity="0.9353" d="M104.705 969.325L96.5352 919.298L71.8001 965.035L104.705 969.325Z" fill="#004F8F"/>
<path opacity="0.4956" d="M66.0482 314.182L168.512 352.564L165.497 327.691L66.0482 314.182Z" fill="#004F8F"/>
<path opacity="0.6271" d="M502.198 672.971L467.31 733.977L424.224 692.999L502.198 672.971Z" fill="#004F8F"/>
<path opacity="0.7557" d="M374.24 767.541L430.851 775.737L424.224 692.998L374.24 767.541Z" fill="#004F8F"/>
<path opacity="0.3556" d="M186.264 731.884L124.965 826.44L227.521 859.938L186.264 731.884Z" fill="#004F8F"/>
<path opacity="0.058722" d="M304.229 743.182L267.545 865.972L227.521 859.939L304.229 743.182Z" fill="#004F8F"/>
<path opacity="0.5999" d="M222.505 597.883L211.435 628.537L250.659 659.492L222.505 597.883Z" fill="#004F8F"/>
<path opacity="0.7881" d="M222.505 597.883L287.27 620.743L250.659 659.492L222.505 597.883Z" fill="#004F8F"/>
<path opacity="0.397" d="M211.436 628.537L249.533 676.481L250.659 659.492L211.436 628.537Z" fill="#004F8F"/>
<path opacity="0.1352" d="M249.532 676.482L322.05 644.046L250.659 659.492L249.532 676.482Z" fill="#004F8F"/>
<path opacity="0.302" d="M-47.0343 398.995L-39.7233 466.047L8.19272 415.715L-47.0343 398.995Z" fill="#004F8F"/>
<path opacity="0.5835" d="M129.824 200.634L138.205 267.825L99.3419 238.278L129.824 200.634Z" fill="#004F8F"/>
<path opacity="0.8305" d="M-80.9201 237.356L-1.8847 244.668L-69.54 166.757L-80.9201 237.356Z" fill="#004F8F"/>
<path opacity="0.4081" d="M11.5459 452.602L131.236 492.414L68.5464 526.675L11.5459 452.602Z" fill="#004F8F"/>
<path opacity="0.9412" d="M62.8893 597.203L79.6346 677.453L-16.1416 633.686L62.8893 597.203Z" fill="#004F8F"/>
<path opacity="0.2546" d="M498.233 797.306L524.642 859.775L432.547 879.594L498.233 797.306Z" fill="#004F8F"/>
<path opacity="0.5939" d="M384.021 867.828L392.76 911.401L432.548 879.594L384.021 867.828Z" fill="#004F8F"/>
<path opacity="0.5176" d="M211.18 983.204L200.303 964.378L198.339 981.53L211.18 983.204Z" fill="#004F8F"/>
<path opacity="0.2255" d="M168.512 352.563L194.474 360.028L170.564 395.264L168.512 352.563Z" fill="#004F8F"/>
<path opacity="0.1251" d="M194.474 360.028L222.251 378.61L170.564 395.264L194.474 360.028Z" fill="#004F8F"/>
<path opacity="0.2913" d="M222.251 378.61L240.226 428.555L170.563 395.264L222.251 378.61Z" fill="#004F8F"/>
<path opacity="0.7893" d="M131.236 492.414L163.503 509.949L170.563 395.265L131.236 492.414Z" fill="#004F8F"/>
<path opacity="0.7612" d="M-1.88491 244.668L88.7578 246.42L-3.37281 253.994L-1.88491 244.668Z" fill="#004F8F"/>
<path opacity="0.3186" d="M44.4425 369.303L8.1923 415.715L5.68585 357.722L44.4425 369.303Z" fill="#004F8F"/>
<path opacity="0.769" d="M138.205 267.827L165.497 327.691L201.084 280.104L138.205 267.827Z" fill="#004F8F"/>
<path opacity="0.7914" d="M244.765 341.56L241.846 343.084L201.084 280.104L244.765 341.56Z" fill="#004F8F"/>
<path opacity="0.3504" d="M467.311 733.977L498.233 797.306L451.263 769.422L467.311 733.977Z" fill="#004F8F"/>
<path opacity="0.5955" d="M440.33 773.981L498.233 797.306L451.263 769.422L440.33 773.981Z" fill="#004F8F"/>
<path opacity="0.9833" d="M-69.5399 166.757L-24.2024 154.987L15.3026 208.827L-69.5399 166.757Z" fill="#004F8F"/>
<path opacity="0.7914" d="M-69.5402 166.757L-1.88501 244.668L15.3024 208.827L-69.5402 166.757Z" fill="#004F8F"/>
<path opacity="0.8014" d="M227.521 859.938L267.545 865.972L255.275 876.613L227.521 859.938Z" fill="#004F8F"/>
<path opacity="0.38" d="M267.545 865.971L267.713 923.115L255.275 876.612L267.545 865.971Z" fill="#004F8F"/>
<path opacity="0.9285" d="M222.506 597.884L211.436 628.538L210.318 612.071L222.506 597.884Z" fill="#004F8F"/>
<path opacity="0.9356" d="M163.503 509.949L222.505 597.883L210.317 612.071L163.503 509.949Z" fill="#004F8F"/>
<g opacity="0.2443">
<path opacity="0.2443" d="M103.725 576.143L176.253 650.064L96.789 660.65L103.725 576.143ZM172.612 648.774L105.144 579.864L98.6731 658.719L172.612 648.774Z" fill="#49A8F6"/>
</g>
<g opacity="0.5761">
<path opacity="0.5761" d="M427.089 733.63L474.086 679.914L475.319 680.891L441.628 730.629L427.089 733.63ZM466.667 690.915L431.486 731.211L440.698 729.419L466.667 690.915Z" fill="#49A8F6"/>
</g>
<g opacity="0.1811">
<path opacity="0.1811" d="M511.79 758L605.901 781.149L545.971 838.075L511.79 758ZM602.517 782.068L514.454 760.524L546.319 835.4L602.517 782.068Z" fill="#49A8F6"/>
</g>
<g opacity="0.6975">
<path opacity="0.6975" d="M168.838 239.45L194.178 193.248L248.409 259.344L168.838 239.45ZM194.632 196.027L171.455 238.159L244.21 256.076L194.632 196.027Z" fill="#49A8F6"/>
</g>
<g opacity="0.054651">
<path opacity="0.054651" d="M46.0208 801.732L97.3356 658.545L126.916 677.905L46.0208 801.732ZM98.1268 660.824L52.3121 788.952L124.438 678.126L98.1268 660.824Z" fill="#49A8F6"/>
</g>
<g opacity="0.341">
<path opacity="0.341" d="M225.798 843.938L226.368 843.74L299.188 817.328L225.945 917.943L225.798 843.938ZM294.653 820.817L227.566 844.984L227.712 912.734L294.653 820.817Z" fill="#49A8F6"/>
</g>
<g opacity="0.4395">
<path opacity="0.4395" d="M201.256 967.494L226.165 914.164L304.378 963.257L201.256 967.494ZM226.956 916.443L203.942 965.668L298.865 961.722L226.956 916.443Z" fill="#49A8F6"/>
</g>
<g opacity="0.8687">
<path opacity="0.8687" d="M500.054 998.287L545.749 835.598L619.018 870.447L500.054 998.287ZM546.54 837.878L503.299 992.182L616.238 870.901L546.54 837.878Z" fill="#49A8F6"/>
</g>
<g opacity="0.6378">
<path opacity="0.6378" d="M162.462 223.66L197.539 190.423L169.769 240.661L162.462 223.66ZM191.271 198.854L164.603 223.939L170.257 236.916L191.271 198.854Z" fill="#49A8F6"/>
</g>
<g opacity="0.6534">
<path opacity="0.6534" d="M-51.994 228.343L-24.2836 157.697L106.736 206.602L-51.994 228.343ZM-23.4924 159.976L-49.5749 226.482L99.9781 206.265L-23.4924 159.976Z" fill="#49A8F6"/>
</g>
<g opacity="0.4075">
<path opacity="0.4075" d="M130.86 213.554L164.173 223.065L171.909 240.938L130.86 213.554ZM162.893 224.531L140.607 218.089L168.117 236.636L162.893 224.531Z" fill="#49A8F6"/>
</g>
<g opacity="0.1929">
<path opacity="0.1929" d="M169.447 512.356L192.326 399.463L288.34 499.838L169.447 512.356ZM193.245 402.846L171.598 510.46L284.7 498.548L193.245 402.846Z" fill="#49A8F6"/>
</g>
<g opacity="0.3403">
<path opacity="0.3403" d="M282.503 993.32L301.342 961.502L412.028 982.732L356.072 1002.91L282.503 993.32ZM302.203 963.246L285.12 992.029L356.281 1001.31L405.968 983.302L302.203 963.246Z" fill="#49A8F6"/>
</g>
<g opacity="0.9176">
<path opacity="0.9176" d="M395.886 774.716L428.973 731.699L443.779 728.733L396.852 775.658L395.886 774.716ZM429.869 733.176L404.969 765.563L438.813 731.35L429.869 733.176Z" fill="#49A8F6"/>
</g>
<g opacity="0.1984">
<path opacity="0.1984" d="M294.594 819.177L397.934 773.623L371.945 847.758L294.594 819.177ZM395.073 776.786L299.247 818.968L370.851 845.711L395.073 776.786Z" fill="#49A8F6"/>
</g>
<g opacity="0.2669">
<path opacity="0.2669" d="M296.082 816.107L364.193 915.566L301.296 963.944L296.082 816.107ZM361.785 915.252L297.792 821.77L302.517 960.839L361.785 915.252Z" fill="#49A8F6"/>
</g>
<g opacity="0.7806">
<path opacity="0.7806" d="M-69.4926 890.582L50.7188 792.825L14.5222 911.871L-69.4926 890.582ZM47.6485 797.593L-65.8404 889.698L13.4287 909.824L47.6485 797.593Z" fill="#49A8F6"/>
</g>
<g opacity="0.9353">
<path opacity="0.9353" d="M-10.7017 955.095L14.4406 908.323L22.7387 959.455L-10.7017 955.095ZM13.5105 913.37L-8.35226 953.769L20.5402 957.536L13.5105 913.37Z" fill="#49A8F6"/>
</g>
<g opacity="0.4956">
<path opacity="0.4956" d="M-31.2748 157.057L100.277 174.75L104.153 207.625L-31.2748 157.057ZM98.9974 176.216L-16.7702 160.58L102.292 205.206L98.9974 176.216Z" fill="#49A8F6"/>
</g>
<g opacity="0.6271">
<path opacity="0.6271" d="M419.507 629.006L519.696 603.441L474.912 681.926L419.507 629.006ZM516.37 606L422.648 629.959L474.423 679.414L516.37 606Z" fill="#49A8F6"/>
</g>
<g opacity="0.7557">
<path opacity="0.7557" d="M357.743 722.958L421.926 627.145L430.37 733.514L357.743 722.958ZM420.496 631.855L360.36 721.667L428.473 731.362L420.496 631.855Z" fill="#49A8F6"/>
</g>
<g opacity="0.3556">
<path opacity="0.3556" d="M47.8917 795.721L125.786 676.127L177.841 838.231L47.8917 795.721ZM125.298 679.872L50.4738 794.698L175.479 835.475L125.298 679.872Z" fill="#49A8F6"/>
</g>
<g opacity="0.058722">
<path opacity="0.058722" d="M175.236 837.346L274.61 686.551L227.263 845.216L175.236 837.346ZM269.703 697.063L177.818 836.322L225.833 843.67L269.703 697.063Z" fill="#49A8F6"/>
</g>
<g opacity="0.5999">
<path opacity="0.5999" d="M155.864 549.755L170.399 509.217L207.686 590.512L155.864 549.755ZM170.644 513.601L157.842 549.197L203.498 585.07L170.644 513.601Z" fill="#49A8F6"/>
</g>
<g opacity="0.7881">
<path opacity="0.7881" d="M168.957 509.844L252.426 539.494L205.417 589.128L168.957 509.844ZM249.611 540.215L172.121 512.705L205.801 586.186L249.611 540.215Z" fill="#49A8F6"/>
</g>
<g opacity="0.397">
<path opacity="0.397" d="M151.677 544.313L206.464 587.36L204.733 611.072L151.677 544.313ZM204.72 588.221L161.762 554.604L203.384 606.816L204.72 588.221Z" fill="#49A8F6"/>
</g>
<g opacity="0.1352">
<path opacity="0.1352" d="M204.859 587.15L301.979 566.354L203.466 610.362L204.859 587.15ZM286.661 571.157L206.325 588.43L204.92 607.559L286.661 571.157Z" fill="#49A8F6"/>
</g>
<g opacity="0.5835">
<path opacity="0.5835" d="M16.4277 64.5366L55.7018 15.7985L66.6554 102.91L16.4277 64.5366ZM54.6437 19.7408L18.6725 64.0132L64.4334 99.0838L54.6437 19.7408Z" fill="#49A8F6"/>
</g>
<g opacity="0.7245">
<path opacity="0.7245" d="M168.815 237.543L248.153 257.134L191.967 302.036L168.815 237.543ZM244.501 258.018L171.513 239.799L192.886 299.163L244.501 258.018Z" fill="#49A8F6"/>
</g>
<g opacity="0.6437">
<path opacity="0.6437" d="M189.827 301.758L248.433 254.996L229.932 298.825L189.827 301.758ZM244.188 260.426L194.991 299.711L228.768 297.314L244.188 260.426Z" fill="#49A8F6"/>
</g>
<g opacity="0.4081">
<path opacity="0.4081" d="M-93.9853 329.225L59.0759 380.188L-21.1641 423.858L-21.6294 423.253L-93.9853 329.225ZM54.9584 380.467L-89.4837 332.26L-20.5828 421.485L54.9584 380.467Z" fill="#49A8F6"/>
</g>
<g opacity="0.9412">
<path opacity="0.9412" d="M-127.869 555.744L-27.1696 509.573L-5.65344 611.662L-127.869 555.744ZM-28.5535 511.841L-124.054 555.697L-7.97999 608.638L-28.5535 511.841Z" fill="#49A8F6"/>
</g>
<g opacity="0.2546">
<path opacity="0.2546" d="M429.288 862.849L513.197 757.639L547.145 837.412L429.288 862.849ZM512.779 760.849L433.452 860.127L544.877 836.028L512.779 760.849Z" fill="#49A8F6"/>
</g>
<g opacity="0.5939">
<path opacity="0.5939" d="M370.048 845.606L433.08 860.896L381.429 902.308L370.048 845.606ZM429.695 861.814L372.48 847.827L382.918 899.238L429.695 861.814Z" fill="#49A8F6"/>
</g>
<g opacity="0.2255">
<path opacity="0.2255" d="M102.292 205.207L136.908 215.16L104.973 261.863L102.292 205.207ZM134.559 216.486L104.154 207.626L106.671 257.188L134.559 216.486Z" fill="#49A8F6"/>
</g>
<g opacity="0.1251">
<path opacity="0.1251" d="M103.972 261.188L135.605 214.718L171.885 239.032L103.972 261.188ZM136.128 216.962L108.171 258.199L168.407 238.578L136.128 216.962Z" fill="#49A8F6"/>
</g>
<g opacity="0.2913">
<path opacity="0.2913" d="M103.647 259.513L170.42 237.752L193.84 302.28L103.647 259.513ZM169.606 239.822L108.229 259.838L190.978 299.187L169.606 239.822Z" fill="#49A8F6"/>
</g>
<g opacity="0.7893">
<path opacity="0.7893" d="M55.9937 380.874L107.252 254.816L98.171 403.781L55.9937 380.874ZM104.892 264.572L58.0059 380.048L96.3795 400.827L104.892 264.572Z" fill="#49A8F6"/>
</g>
<g opacity="0.7612">
<path opacity="0.7612" d="M-76.1902 82.1119L-74.9001 72.2158L4.36723 73.573L4.42556 75.2127L-76.1902 82.1119ZM-73.5042 74.0298L-74.3061 80.1815L-12.1374 74.9575L-73.5042 74.0298Z" fill="#49A8F6"/>
</g>
<g opacity="0.769">
<path opacity="0.769" d="M64.2942 100.153L145.494 115.907L99.6958 177.123L64.2942 100.153ZM142.377 116.86L67.0278 102.142L99.8467 173.878L142.377 116.86Z" fill="#49A8F6"/>
</g>
<g opacity="0.7914">
<path opacity="0.7914" d="M143.214 116.698L144.691 115.803L199.4 192.841L194.167 195.423L143.214 116.698ZM196.725 192.492L165.27 147.862L194.678 193.586L196.725 192.492Z" fill="#49A8F6"/>
</g>
<g opacity="0.7235">
<path opacity="0.7235" d="M227.791 298.546L247.26 280.683L272.236 316.581L227.791 298.546ZM246.714 282.788L230.606 297.825L267.571 312.708L246.714 282.788Z" fill="#49A8F6"/>
</g>
<g opacity="0.3504">
<path opacity="0.3504" d="M453.806 724.872L474.796 678.646L515.153 761.43L453.806 724.872ZM474.842 682.461L456.085 724.081L511.36 757.128L474.842 682.461Z" fill="#49A8F6"/>
</g>
<g opacity="0.5955">
<path opacity="0.5955" d="M439.22 730.315L455.05 723.674L513.594 758.779L512.849 760.314L439.22 730.315ZM454.841 725.279L443.605 730.07L503.544 754.477L454.841 725.279Z" fill="#49A8F6"/>
</g>
<g opacity="0.8014">
<path opacity="0.8014" d="M172.769 835.393L228.542 843.752L211.364 858.649L172.769 835.393ZM224.588 844.868L180.551 838.311L211.073 856.707L224.588 844.868Z" fill="#49A8F6"/>
</g>
<g opacity="0.38">
<path opacity="0.38" d="M210.166 857.405L227.344 842.508L227.363 921.665L210.166 857.405ZM225.786 846.112L212.004 857.916L225.757 908.943L225.786 846.112Z" fill="#49A8F6"/>
</g>
<g opacity="0.9285">
<path opacity="0.9285" d="M154.502 528.904L172.819 507.355L156.214 553.336L154.502 528.904ZM168.226 515.46L156.34 529.415L157.493 545.614L168.226 515.46Z" fill="#49A8F6"/>
</g>
<g opacity="0.9356">
<path opacity="0.9356" d="M96.4373 402.466L97.9144 401.571L171.493 511.262L155.13 530.346L96.4373 402.466ZM169.318 511.251L102.382 411.129L155.746 527.706L169.318 511.251Z" fill="#49A8F6"/>
</g>
<path d="M170.379 653.379C169.239 653.774 168.169 653.635 167.506 652.46C167.11 651.321 167.25 650.251 168.424 649.588C169.564 649.193 170.634 649.332 171.298 650.506C171.728 651.379 171.286 652.681 170.379 653.379Z" fill="white"/>
<path d="M226.565 710.752C225.425 711.148 224.355 711.008 223.692 709.834C223.296 708.694 223.436 707.624 224.61 706.961C225.75 706.566 226.82 706.705 227.483 707.88C228.146 709.054 227.704 710.357 226.565 710.752Z" fill="white"/>
<path d="M164.815 719.023C163.675 719.418 162.605 719.279 161.942 718.104C161.546 716.965 161.685 715.895 162.86 715.232C164 714.836 165.07 714.976 165.733 716.15C166.129 717.29 165.954 718.627 164.815 719.023Z" fill="white"/>
<path d="M31.794 904.602C30.6542 904.997 29.5841 904.858 28.921 903.683C28.5254 902.544 28.6649 901.474 29.8396 900.811C30.9794 900.415 32.0495 900.555 32.7125 901.729C33.1081 902.869 32.6663 904.171 31.794 904.602Z" fill="white"/>
<path d="M55.8147 803.825C54.6748 804.221 53.6048 804.081 52.9417 802.907C52.5461 801.767 52.6856 800.697 53.8602 800.035C54.7326 799.604 56.0701 799.779 56.7332 800.953C57.4312 801.86 56.9894 803.163 55.8147 803.825Z" fill="white"/>
<path d="M31.794 904.602C30.6542 904.997 29.5841 904.858 28.921 903.683C28.5254 902.544 28.6649 901.474 29.8396 900.811C30.9794 900.415 32.0495 900.555 32.7125 901.729C33.1081 902.869 32.6663 904.171 31.794 904.602Z" fill="white"/>
<path d="M441.458 775.761C440.318 776.156 439.248 776.017 438.585 774.842C438.189 773.703 438.329 772.633 439.504 771.97C440.643 771.575 441.714 771.714 442.377 772.889C442.772 774.028 442.33 775.331 441.458 775.761Z" fill="white"/>
<path d="M431.677 777.749C430.537 778.144 429.467 778.005 428.804 776.83C428.408 775.69 428.548 774.621 429.723 773.958C430.862 773.562 431.932 773.702 432.596 774.876C433.294 775.783 432.852 777.086 431.677 777.749Z" fill="white"/>
<path d="M468.404 736.023C467.264 736.419 466.194 736.279 465.531 735.105C465.136 733.965 465.275 732.895 466.45 732.232C467.59 731.837 468.66 731.977 469.323 733.151C469.753 734.023 469.311 735.326 468.404 736.023Z" fill="white"/>
<path d="M499.059 799.317C497.919 799.713 496.849 799.573 496.186 798.399C495.79 797.259 495.93 796.189 497.104 795.527C498.244 795.131 499.314 795.271 499.977 796.445C500.675 797.352 500.234 798.654 499.059 799.317Z" fill="white"/>
<path d="M525.771 861.555C524.631 861.95 523.561 861.811 522.897 860.636C522.502 859.497 522.641 858.427 523.816 857.764C524.956 857.368 526.026 857.508 526.689 858.682C527.085 859.822 526.643 861.124 525.771 861.555Z" fill="white"/>
<path d="M572.349 817.305C571.209 817.7 570.139 817.561 569.476 816.386C569.08 815.247 569.22 814.177 570.394 813.514C571.534 813.119 572.604 813.258 573.267 814.433C573.965 815.34 573.524 816.642 572.349 817.305Z" fill="white"/>
<path d="M111.593 148.48C110.453 148.875 109.383 148.736 108.72 147.562C108.324 146.422 108.464 145.352 109.638 144.689C110.778 144.294 111.848 144.433 112.511 145.608C112.907 146.747 112.465 148.05 111.593 148.48Z" fill="white"/>
<path d="M130.649 202.646C129.51 203.042 128.44 202.902 127.776 201.728C127.381 200.588 127.52 199.518 128.695 198.856C129.835 198.46 130.905 198.6 131.568 199.774C131.964 200.914 131.557 201.949 130.649 202.646Z" fill="white"/>
<path d="M182.563 111.219C181.423 111.614 180.353 111.475 179.689 110.3C179.294 109.161 179.433 108.091 180.608 107.428C181.748 107.033 182.818 107.172 183.481 108.347C183.912 109.219 183.47 110.521 182.563 111.219Z" fill="white"/>
<path d="M223.112 380.355C221.973 380.75 220.903 380.611 220.239 379.436C219.844 378.297 219.983 377.227 221.158 376.564C222.298 376.168 223.368 376.308 224.031 377.482C224.427 378.622 224.252 379.959 223.112 380.355Z" fill="white"/>
<path d="M242.707 344.828C241.567 345.223 240.497 345.084 239.834 343.909C239.439 342.77 239.578 341.7 240.753 341.037C241.893 340.641 242.963 340.781 243.626 341.955C244.021 343.095 243.847 344.432 242.707 344.828Z" fill="white"/>
<path d="M125.825 828.184C124.686 828.579 123.615 828.44 122.952 827.266C122.557 826.126 122.696 825.056 123.871 824.393C125.011 823.998 126.081 824.137 126.744 825.312C127.14 826.451 126.965 827.789 125.825 828.184Z" fill="white"/>
<path d="M187.357 733.93C186.218 734.326 185.147 734.186 184.484 733.012C184.089 731.872 184.228 730.802 185.403 730.139C186.543 729.744 187.613 729.884 188.276 731.058C188.706 731.93 188.265 733.233 187.357 733.93Z" fill="white"/>
<path d="M164.815 719.023C163.675 719.418 162.605 719.279 161.942 718.104C161.546 716.965 161.685 715.895 162.86 715.232C164 714.836 165.07 714.976 165.733 716.15C166.129 717.29 165.954 718.627 164.815 719.023Z" fill="white"/>
<path d="M268.574 924.86C267.435 925.256 266.365 925.116 265.701 923.942C265.306 922.802 265.445 921.732 266.62 921.07C267.76 920.674 268.83 920.814 269.493 921.988C270.156 923.163 269.749 924.197 268.574 924.86Z" fill="white"/>
<path d="M325.199 847.375C324.059 847.77 322.989 847.631 322.326 846.456C321.931 845.317 322.07 844.247 323.245 843.584C324.385 843.189 325.455 843.328 326.118 844.503C326.513 845.642 326.106 846.677 325.199 847.375Z" fill="white"/>
<path d="M268.673 867.751C267.533 868.147 266.463 868.007 265.8 866.833C265.404 865.693 265.544 864.623 266.718 863.961C267.858 863.565 268.928 863.705 269.591 864.879C269.987 866.019 269.545 867.321 268.673 867.751Z" fill="white"/>
<path d="M268.574 924.86C267.435 925.256 266.365 925.116 265.701 923.942C265.306 922.802 265.445 921.732 266.62 921.07C267.76 920.674 268.83 920.814 269.493 921.988C270.156 923.163 269.749 924.197 268.574 924.86Z" fill="white"/>
<path d="M329.212 962.686C328.072 963.082 327.002 962.942 326.339 961.768C325.943 960.628 326.083 959.558 327.257 958.895C328.397 958.5 329.467 958.639 330.131 959.814C330.526 960.953 330.084 962.256 329.212 962.686Z" fill="white"/>
<path d="M249.317 966.143C248.177 966.538 247.107 966.399 246.444 965.224C246.048 964.085 246.187 963.015 247.362 962.352C248.502 961.957 249.572 962.096 250.235 963.271C250.933 964.178 250.491 965.48 249.317 966.143Z" fill="white"/>
<path d="M583.151 888.891C582.011 889.287 580.941 889.147 580.278 887.973C579.882 886.833 580.021 885.763 581.196 885.1C582.336 884.705 583.406 884.844 584.069 886.019C584.767 886.926 584.325 888.228 583.151 888.891Z" fill="white"/>
<path d="M525.771 861.555C524.631 861.95 523.561 861.811 522.897 860.636C522.502 859.497 522.641 858.427 523.816 857.764C524.956 857.368 526.026 857.508 526.689 858.682C527.085 859.822 526.643 861.124 525.771 861.555Z" fill="white"/>
<path d="M217.889 368.249C216.749 368.644 215.679 368.505 215.016 367.33C214.62 366.191 214.76 365.121 215.934 364.458C217.074 364.063 218.144 364.202 218.807 365.377C219.203 366.516 218.761 367.819 217.889 368.249Z" fill="white"/>
<path d="M223.112 380.355C221.973 380.75 220.903 380.611 220.239 379.436C219.844 378.297 219.983 377.227 221.158 376.564C222.298 376.168 223.368 376.308 224.031 377.482C224.427 378.622 224.252 379.959 223.112 380.355Z" fill="white"/>
<path d="M242.707 344.828C241.567 345.223 240.497 345.084 239.834 343.909C239.439 342.77 239.578 341.7 240.753 341.037C241.893 340.641 242.963 340.781 243.626 341.955C244.021 343.095 243.847 344.432 242.707 344.828Z" fill="white"/>
<path d="M45.2688 371.315C44.129 371.71 43.0589 371.571 42.3958 370.396C42.0002 369.257 42.1397 368.187 43.3144 367.524C44.4542 367.129 45.5242 367.268 46.1873 368.443C46.8853 369.35 46.4435 370.652 45.2688 371.315Z" fill="white"/>
<path d="M169.373 354.309C168.233 354.704 167.163 354.564 166.5 353.39C166.105 352.25 166.244 351.181 167.419 350.518C168.291 350.087 169.629 350.262 170.292 351.436C170.687 352.576 170.513 353.913 169.373 354.309Z" fill="white"/>
<path d="M66.8742 316.194C65.7344 316.589 64.6643 316.45 64.0012 315.275C63.6056 314.136 63.7451 313.066 64.9198 312.403C66.0596 312.008 67.1297 312.147 67.7928 313.322C68.4908 314.229 68.0489 315.531 66.8742 316.194Z" fill="white"/>
<path d="M195.567 362.075C194.428 362.47 193.357 362.331 192.694 361.156C192.299 360.017 192.438 358.947 193.613 358.284C194.753 357.888 195.823 358.028 196.486 359.202C196.916 360.074 196.475 361.377 195.567 362.075Z" fill="white"/>
<path d="M223.112 380.355C221.973 380.75 220.903 380.611 220.239 379.436C219.844 378.297 219.983 377.227 221.158 376.564C222.298 376.168 223.368 376.308 224.031 377.482C224.427 378.622 224.252 379.959 223.112 380.355Z" fill="white"/>
<path d="M217.889 368.249C216.749 368.644 215.679 368.505 215.016 367.33C214.62 366.191 214.76 365.121 215.934 364.458C217.074 364.063 218.144 364.202 218.807 365.377C219.203 366.516 218.761 367.819 217.889 368.249Z" fill="white"/>
<path d="M182.563 111.219C181.423 111.614 180.353 111.475 179.689 110.3C179.294 109.161 179.433 108.091 180.608 107.428C181.748 107.033 182.818 107.172 183.481 108.347C183.912 109.219 183.47 110.521 182.563 111.219Z" fill="white"/>
<path d="M316.578 590.018C315.439 590.413 314.368 590.274 313.705 589.099C313.31 587.959 313.449 586.89 314.624 586.227C315.764 585.831 316.834 585.971 317.497 587.145C318.195 588.052 317.753 589.355 316.578 590.018Z" fill="white"/>
<path d="M223.366 599.627C222.227 600.022 221.156 599.883 220.493 598.708C220.098 597.569 220.237 596.499 221.412 595.836C222.552 595.441 223.622 595.58 224.285 596.755C224.948 597.929 224.506 599.232 223.366 599.627Z" fill="white"/>
<path d="M241.433 511.132C240.293 511.527 239.223 511.388 238.56 510.213C238.164 509.074 238.303 508.004 239.478 507.341C240.618 506.945 241.688 507.085 242.351 508.259C242.747 509.399 242.305 510.702 241.433 511.132Z" fill="white"/>
<path d="M12.4074 454.346C11.2676 454.741 10.1975 454.602 9.53441 453.427C9.13885 452.288 9.27836 451.218 10.453 450.555C11.5928 450.16 12.6629 450.299 13.326 451.474C13.7216 452.613 13.5472 453.95 12.4074 454.346Z" fill="white"/>
<path d="M618.325 677.501C617.186 677.896 616.115 677.757 615.452 676.582C615.057 675.442 615.196 674.373 616.371 673.71C617.243 673.279 618.581 673.454 619.244 674.628C619.64 675.768 619.465 677.105 618.325 677.501Z" fill="white"/>
<path d="M329.212 962.686C328.072 963.082 327.002 962.942 326.339 961.768C325.943 960.628 326.083 959.558 327.257 958.895C328.397 958.5 329.467 958.639 330.131 959.814C330.526 960.953 330.084 962.256 329.212 962.686Z" fill="white"/>
<path d="M590.025 656.675C588.885 657.07 587.815 656.931 587.152 655.756C586.756 654.617 586.895 653.547 588.07 652.884C588.942 652.454 590.28 652.628 590.943 653.802C591.606 654.977 591.164 656.279 590.025 656.675Z" fill="white"/>
<path d="M503.292 675.018C502.152 675.413 501.082 675.274 500.419 674.099C500.023 672.96 500.163 671.89 501.338 671.227C502.477 670.831 503.547 670.971 504.211 672.145C504.641 673.018 504.199 674.32 503.292 675.018Z" fill="white"/>
<path d="M596.325 622.951C595.185 623.346 594.115 623.207 593.452 622.032C593.057 620.893 593.196 619.823 594.371 619.16C595.243 618.73 596.581 618.904 597.244 620.079C597.674 620.951 597.232 622.253 596.325 622.951Z" fill="white"/>
<path d="M405.16 812.102C404.021 812.497 402.95 812.358 402.287 811.183C401.892 810.043 402.031 808.974 403.206 808.311C404.346 807.915 405.416 808.055 406.079 809.229C406.742 810.404 406.335 811.439 405.16 812.102Z" fill="white"/>
<path d="M441.458 775.761C440.318 776.156 439.248 776.017 438.585 774.842C438.189 773.703 438.329 772.633 439.504 771.97C440.643 771.575 441.714 771.714 442.377 772.889C442.772 774.028 442.33 775.331 441.458 775.761Z" fill="white"/>
<path d="M431.677 777.749C430.537 778.144 429.467 778.005 428.804 776.83C428.408 775.69 428.548 774.621 429.723 773.958C430.862 773.562 431.932 773.702 432.596 774.876C433.294 775.783 432.852 777.086 431.677 777.749Z" fill="white"/>
<path d="M405.16 812.102C404.021 812.497 402.95 812.358 402.287 811.183C401.892 810.043 402.031 808.974 403.206 808.311C404.346 807.915 405.416 808.055 406.079 809.229C406.742 810.404 406.335 811.439 405.16 812.102Z" fill="white"/>
<path d="M384.881 869.572C383.741 869.967 382.671 869.828 382.008 868.653C381.612 867.513 381.752 866.444 382.927 865.781C384.066 865.385 385.137 865.525 385.8 866.699C386.463 867.874 386.021 869.176 384.881 869.572Z" fill="white"/>
<path d="M325.199 847.375C324.059 847.77 322.989 847.631 322.326 846.456C321.931 845.317 322.07 844.247 323.245 843.584C324.385 843.189 325.455 843.328 326.118 844.503C326.513 845.642 326.106 846.677 325.199 847.375Z" fill="white"/>
<path d="M614.912 747.507C613.772 747.902 612.702 747.763 612.039 746.588C611.644 745.449 611.783 744.379 612.958 743.716C614.098 743.321 615.168 743.46 615.831 744.635C616.494 745.809 616.087 746.844 614.912 747.507Z" fill="white"/>
<path d="M572.349 817.305C571.209 817.7 570.139 817.561 569.476 816.386C569.08 815.247 569.22 814.177 570.394 813.514C571.534 813.119 572.604 813.258 573.267 814.433C573.965 815.34 573.524 816.642 572.349 817.305Z" fill="white"/>
<path d="M572.46 764.277C571.32 764.673 570.25 764.533 569.587 763.359C569.192 762.219 569.331 761.15 570.506 760.487C571.646 760.091 572.716 760.231 573.379 761.405C573.774 762.545 573.6 763.882 572.46 764.277Z" fill="white"/>
<path d="M614.912 747.507C613.772 747.902 612.702 747.763 612.039 746.588C611.644 745.449 611.783 744.379 612.958 743.716C614.098 743.321 615.168 743.46 615.831 744.635C616.494 745.809 616.087 746.844 614.912 747.507Z" fill="white"/>
<path d="M378.199 925.007C377.06 925.402 375.989 925.263 375.326 924.088C374.931 922.949 375.07 921.879 376.245 921.216C377.117 920.786 378.455 920.96 379.118 922.135C379.781 923.309 379.339 924.612 378.199 925.007Z" fill="white"/>
<path d="M329.212 962.686C328.072 963.082 327.002 962.942 326.339 961.768C325.943 960.628 326.083 959.558 327.257 958.895C328.397 958.5 329.467 958.639 330.131 959.814C330.526 960.953 330.084 962.256 329.212 962.686Z" fill="white"/>
<path d="M325.199 847.375C324.059 847.77 322.989 847.631 322.326 846.456C321.931 845.317 322.07 844.247 323.245 843.584C324.385 843.189 325.455 843.328 326.118 844.503C326.513 845.642 326.106 846.677 325.199 847.375Z" fill="white"/>
<path d="M228.83 209.19C227.69 209.585 226.62 209.446 225.957 208.271C225.561 207.131 225.701 206.062 226.876 205.399C228.015 205.003 229.086 205.143 229.749 206.317C230.144 207.457 229.702 208.759 228.83 209.19Z" fill="white"/>
<path d="M228.83 209.19C227.69 209.585 226.62 209.446 225.957 208.271C225.561 207.131 225.701 206.062 226.876 205.399C228.015 205.003 229.086 205.143 229.749 206.317C230.144 207.457 229.702 208.759 228.83 209.19Z" fill="white"/>
<path d="M97.3615 921.31C96.2217 921.705 95.1515 921.566 94.4884 920.391C94.0928 919.252 94.2323 918.182 95.407 917.519C96.2793 917.089 97.617 917.263 98.2801 918.437C98.9781 919.344 98.5362 920.647 97.3615 921.31Z" fill="white"/>
<path d="M31.794 904.602C30.6542 904.997 29.5841 904.858 28.921 903.683C28.5254 902.544 28.6649 901.474 29.8396 900.811C30.9794 900.415 32.0495 900.555 32.7125 901.729C33.1081 902.869 32.6663 904.171 31.794 904.602Z" fill="white"/>
<path d="M125.825 828.184C124.686 828.579 123.615 828.44 122.952 827.266C122.557 826.126 122.696 825.056 123.871 824.393C125.011 823.998 126.081 824.137 126.744 825.312C127.14 826.451 126.965 827.789 125.825 828.184Z" fill="white"/>
<path d="M97.3615 921.31C96.2217 921.705 95.1515 921.566 94.4884 920.391C94.0928 919.252 94.2323 918.182 95.407 917.519C96.2793 917.089 97.617 917.263 98.2801 918.437C98.9781 919.344 98.5362 920.647 97.3615 921.31Z" fill="white"/>
<path d="M228.83 209.19C227.69 209.585 226.62 209.446 225.957 208.271C225.561 207.131 225.701 206.062 226.876 205.399C228.015 205.003 229.086 205.143 229.749 206.317C230.144 207.457 229.702 208.759 228.83 209.19Z" fill="white"/>
<path d="M166.359 329.434C165.219 329.83 164.149 329.69 163.486 328.516C163.09 327.376 163.229 326.306 164.404 325.643C165.276 325.213 166.614 325.388 167.277 326.562C167.94 327.737 167.498 329.039 166.359 329.434Z" fill="white"/>
<path d="M169.373 354.309C168.233 354.704 167.163 354.564 166.5 353.39C166.105 352.25 166.244 351.181 167.419 350.518C168.291 350.087 169.629 350.262 170.292 351.436C170.687 352.576 170.513 353.913 169.373 354.309Z" fill="white"/>
<path d="M66.8742 316.194C65.7344 316.589 64.6643 316.45 64.0012 315.275C63.6056 314.136 63.7451 313.066 64.9198 312.403C66.0596 312.008 67.1297 312.147 67.7928 313.322C68.4908 314.229 68.0489 315.531 66.8742 316.194Z" fill="white"/>
<path d="M425.353 694.778C424.213 695.174 423.143 695.034 422.48 693.86C422.084 692.72 422.223 691.65 423.398 690.987C424.538 690.592 425.608 690.731 426.271 691.906C426.667 693.046 426.225 694.348 425.353 694.778Z" fill="white"/>
<path d="M468.404 736.023C467.264 736.419 466.194 736.279 465.531 735.105C465.136 733.965 465.275 732.895 466.45 732.232C467.59 731.837 468.66 731.977 469.323 733.151C469.753 734.023 469.311 735.326 468.404 736.023Z" fill="white"/>
<path d="M503.292 675.018C502.152 675.413 501.082 675.274 500.419 674.099C500.023 672.96 500.163 671.89 501.338 671.227C502.477 670.831 503.547 670.971 504.211 672.145C504.641 673.018 504.199 674.32 503.292 675.018Z" fill="white"/>
<path d="M425.353 694.778C424.213 695.174 423.143 695.034 422.48 693.86C422.084 692.72 422.223 691.65 423.398 690.987C424.538 690.592 425.608 690.731 426.271 691.906C426.667 693.046 426.225 694.348 425.353 694.778Z" fill="white"/>
<path d="M431.677 777.749C430.537 778.144 429.467 778.005 428.804 776.83C428.408 775.69 428.548 774.621 429.723 773.958C430.862 773.562 431.932 773.702 432.596 774.876C433.294 775.783 432.852 777.086 431.677 777.749Z" fill="white"/>
<path d="M375.067 769.553C373.927 769.948 372.857 769.809 372.194 768.634C371.798 767.495 371.937 766.425 373.112 765.762C374.252 765.366 375.322 765.506 375.985 766.68C376.648 767.855 376.241 768.89 375.067 769.553Z" fill="white"/>
<path d="M228.382 861.683C227.242 862.079 226.172 861.939 225.509 860.765C225.113 859.625 225.253 858.555 226.428 857.892C227.567 857.497 228.638 857.636 229.301 858.811C229.696 859.95 229.557 861.02 228.382 861.683Z" fill="white"/>
<path d="M125.825 828.184C124.686 828.579 123.615 828.44 122.952 827.266C122.557 826.126 122.696 825.056 123.871 824.393C125.011 823.998 126.081 824.137 126.744 825.312C127.14 826.451 126.965 827.789 125.825 828.184Z" fill="white"/>
<path d="M187.357 733.93C186.218 734.326 185.147 734.186 184.484 733.012C184.089 731.872 184.228 730.802 185.403 730.139C186.543 729.744 187.613 729.884 188.276 731.058C188.706 731.93 188.265 733.233 187.357 733.93Z" fill="white"/>
<path d="M228.382 861.683C227.242 862.079 226.172 861.939 225.509 860.765C225.113 859.625 225.253 858.555 226.428 857.892C227.567 857.497 228.638 857.636 229.301 858.811C229.696 859.95 229.557 861.02 228.382 861.683Z" fill="white"/>
<path d="M268.673 867.751C267.533 868.147 266.463 868.007 265.8 866.833C265.404 865.693 265.544 864.623 266.718 863.961C267.858 863.565 268.928 863.705 269.591 864.879C269.987 866.019 269.545 867.321 268.673 867.751Z" fill="white"/>
<path d="M305.357 744.961C304.218 745.356 303.148 745.217 302.484 744.042C302.089 742.902 302.228 741.833 303.403 741.17C304.275 740.739 305.613 740.914 306.276 742.088C306.672 743.228 306.23 744.53 305.357 744.961Z" fill="white"/>
<path d="M251.787 661.271C250.647 661.667 249.577 661.527 248.914 660.353C248.519 659.213 248.658 658.143 249.833 657.48C250.973 657.085 252.043 657.224 252.706 658.399C253.101 659.538 252.659 660.841 251.787 661.271Z" fill="white"/>
<path d="M212.296 630.282C211.156 630.678 210.086 630.538 209.423 629.364C209.028 628.224 209.167 627.154 210.342 626.491C211.481 626.096 212.552 626.235 213.215 627.41C213.878 628.584 213.436 629.887 212.296 630.282Z" fill="white"/>
<path d="M223.366 599.627C222.227 600.022 221.156 599.883 220.493 598.708C220.098 597.569 220.237 596.499 221.412 595.836C222.552 595.441 223.622 595.58 224.285 596.755C224.948 597.929 224.506 599.232 223.366 599.627Z" fill="white"/>
<path d="M251.787 661.271C250.647 661.667 249.577 661.527 248.914 660.353C248.519 659.213 248.658 658.143 249.833 657.48C250.973 657.085 252.043 657.224 252.706 658.399C253.101 659.538 252.659 660.841 251.787 661.271Z" fill="white"/>
<path d="M288.097 622.755C286.957 623.15 285.887 623.011 285.224 621.836C284.828 620.697 284.968 619.627 286.142 618.964C287.282 618.568 288.352 618.708 289.015 619.882C289.713 620.789 289.272 622.092 288.097 622.755Z" fill="white"/>
<path d="M223.366 599.627C222.227 600.022 221.156 599.883 220.493 598.708C220.098 597.569 220.237 596.499 221.412 595.836C222.552 595.441 223.622 595.58 224.285 596.755C224.948 597.929 224.506 599.232 223.366 599.627Z" fill="white"/>
<path d="M251.787 661.271C250.647 661.667 249.577 661.527 248.914 660.353C248.519 659.213 248.658 658.143 249.833 657.48C250.973 657.085 252.043 657.224 252.706 658.399C253.101 659.538 252.659 660.841 251.787 661.271Z" fill="white"/>
<path d="M250.394 678.226C249.254 678.622 248.184 678.482 247.521 677.308C247.125 676.168 247.265 675.098 248.439 674.435C249.579 674.04 250.649 674.179 251.312 675.354C251.975 676.528 251.534 677.831 250.394 678.226Z" fill="white"/>
<path d="M212.296 630.282C211.156 630.678 210.086 630.538 209.423 629.364C209.028 628.224 209.167 627.154 210.342 626.491C211.481 626.096 212.552 626.235 213.215 627.41C213.878 628.584 213.436 629.887 212.296 630.282Z" fill="white"/>
<path d="M251.787 661.271C250.647 661.667 249.577 661.527 248.914 660.353C248.519 659.213 248.658 658.143 249.833 657.48C250.973 657.085 252.043 657.224 252.706 658.399C253.101 659.538 252.659 660.841 251.787 661.271Z" fill="white"/>
<path d="M323.179 645.825C322.039 646.22 320.969 646.081 320.306 644.906C319.91 643.766 320.05 642.697 321.224 642.034C322.097 641.603 323.434 641.778 324.097 642.952C324.493 644.092 324.051 645.394 323.179 645.825Z" fill="white"/>
<path d="M250.394 678.226C249.254 678.622 248.184 678.482 247.521 677.308C247.125 676.168 247.265 675.098 248.439 674.435C249.579 674.04 250.649 674.179 251.312 675.354C251.975 676.528 251.534 677.831 250.394 678.226Z" fill="white"/>
<path d="M9.05389 417.46C7.91406 417.855 6.84395 417.716 6.18085 416.541C5.78527 415.402 5.92477 414.332 7.09947 413.669C8.2393 413.274 9.30941 413.413 9.97251 414.588C10.6356 415.762 10.1937 417.065 9.05389 417.46Z" fill="white"/>
<path d="M100.47 240.058C99.3299 240.453 98.2598 240.314 97.5967 239.139C97.2012 238 97.3406 236.93 98.5153 236.267C99.3876 235.837 100.725 236.011 101.388 237.185C101.784 238.325 101.377 239.36 100.47 240.058Z" fill="white"/>
<path d="M139.065 269.57C137.926 269.966 136.856 269.826 136.192 268.652C135.797 267.512 135.936 266.442 137.111 265.779C138.251 265.384 139.321 265.523 139.984 266.698C140.38 267.838 139.938 269.14 139.065 269.57Z" fill="white"/>
<path d="M130.649 202.646C129.51 203.042 128.44 202.902 127.776 201.728C127.381 200.588 127.52 199.518 128.695 198.856C129.835 198.46 130.905 198.6 131.568 199.774C131.964 200.914 131.557 201.949 130.649 202.646Z" fill="white"/>
<path d="M-1.05838 246.679C-2.19822 247.074 -3.26834 246.934 -3.93145 245.76C-4.32704 244.62 -4.18753 243.551 -3.01282 242.888C-1.87298 242.492 -0.802939 242.632 -0.13983 243.806C0.523279 244.981 0.116331 246.016 -1.05838 246.679Z" fill="white"/>
<path d="M241.087 430.3C239.947 430.695 238.877 430.555 238.214 429.381C237.818 428.241 237.958 427.171 239.133 426.509C240.272 426.113 241.343 426.253 242.006 427.427C242.401 428.567 242.227 429.904 241.087 430.3Z" fill="white"/>
<path d="M223.112 380.355C221.973 380.75 220.903 380.611 220.239 379.436C219.844 378.297 219.983 377.227 221.158 376.564C222.298 376.168 223.368 376.308 224.031 377.482C224.427 378.622 224.252 379.959 223.112 380.355Z" fill="white"/>
<path d="M241.087 430.3C239.947 430.695 238.877 430.555 238.214 429.381C237.818 428.241 237.958 427.171 239.133 426.509C240.272 426.113 241.343 426.253 242.006 427.427C242.401 428.567 242.227 429.904 241.087 430.3Z" fill="white"/>
<path d="M69.4074 528.419C68.2676 528.814 67.1975 528.675 66.5345 527.5C66.1389 526.361 66.2784 525.291 67.4531 524.628C68.5929 524.232 69.6629 524.372 70.326 525.546C70.9891 526.721 70.5472 528.023 69.4074 528.419Z" fill="white"/>
<path d="M132.062 494.425C130.922 494.821 129.852 494.681 129.189 493.507C128.793 492.367 128.933 491.297 130.107 490.634C131.247 490.239 132.317 490.378 132.98 491.553C133.411 492.425 133.236 493.762 132.062 494.425Z" fill="white"/>
<path d="M12.4074 454.346C11.2676 454.741 10.1975 454.602 9.53441 453.427C9.13885 452.288 9.27836 451.218 10.453 450.555C11.5928 450.16 12.6629 450.299 13.326 451.474C13.7216 452.613 13.5472 453.95 12.4074 454.346Z" fill="white"/>
<path d="M80.7627 679.233C79.6228 679.629 78.5528 679.489 77.8897 678.315C77.4941 677.175 77.6335 676.105 78.8082 675.442C79.9481 675.047 81.0182 675.186 81.6813 676.361C82.0769 677.5 81.635 678.803 80.7627 679.233Z" fill="white"/>
<path d="M63.716 599.215C62.5762 599.611 61.5061 599.471 60.843 598.297C60.4474 597.157 60.5869 596.087 61.7616 595.424C62.9014 595.029 63.9715 595.168 64.6346 596.343C65.3326 597.25 64.8907 598.552 63.716 599.215Z" fill="white"/>
<path d="M433.373 881.606C432.233 882.002 431.163 881.862 430.5 880.688C430.105 879.548 430.244 878.478 431.419 877.815C432.559 877.42 433.629 877.559 434.292 878.734C434.99 879.641 434.548 880.943 433.373 881.606Z" fill="white"/>
<path d="M525.771 861.555C524.631 861.95 523.561 861.811 522.897 860.636C522.502 859.497 522.641 858.427 523.816 857.764C524.956 857.368 526.026 857.508 526.689 858.682C527.085 859.822 526.643 861.124 525.771 861.555Z" fill="white"/>
<path d="M499.059 799.317C497.919 799.713 496.849 799.573 496.186 798.399C495.79 797.259 495.93 796.189 497.104 795.527C498.244 795.131 499.314 795.271 499.977 796.445C500.675 797.352 500.234 798.654 499.059 799.317Z" fill="white"/>
<path d="M433.373 881.606C432.233 882.002 431.163 881.862 430.5 880.688C430.105 879.548 430.244 878.478 431.419 877.815C432.559 877.42 433.629 877.559 434.292 878.734C434.99 879.641 434.548 880.943 433.373 881.606Z" fill="white"/>
<path d="M393.889 913.18C392.749 913.576 391.679 913.436 391.016 912.262C390.62 911.122 390.76 910.052 391.934 909.389C393.074 908.994 394.144 909.133 394.807 910.308C395.203 911.447 394.761 912.75 393.889 913.18Z" fill="white"/>
<path d="M384.881 869.572C383.741 869.967 382.671 869.828 382.008 868.653C381.612 867.513 381.752 866.444 382.927 865.781C384.066 865.385 385.137 865.525 385.8 866.699C386.463 867.874 386.021 869.176 384.881 869.572Z" fill="white"/>
<path d="M201.431 966.158C200.291 966.553 199.221 966.414 198.558 965.239C198.162 964.1 198.302 963.03 199.476 962.367C200.616 961.972 201.686 962.111 202.349 963.286C202.745 964.425 202.303 965.728 201.431 966.158Z" fill="white"/>
<path d="M171.39 397.277C170.25 397.672 169.18 397.533 168.517 396.358C168.121 395.219 168.261 394.149 169.435 393.486C170.575 393.091 171.645 393.23 172.308 394.405C173.006 395.312 172.565 396.614 171.39 397.277Z" fill="white"/>
<path d="M195.567 362.075C194.428 362.47 193.357 362.331 192.694 361.156C192.299 360.017 192.438 358.947 193.613 358.284C194.753 357.888 195.823 358.028 196.486 359.202C196.916 360.074 196.475 361.377 195.567 362.075Z" fill="white"/>
<path d="M169.373 354.309C168.233 354.704 167.163 354.564 166.5 353.39C166.105 352.25 166.244 351.181 167.419 350.518C168.291 350.087 169.629 350.262 170.292 351.436C170.687 352.576 170.513 353.913 169.373 354.309Z" fill="white"/>
<path d="M171.39 397.277C170.25 397.672 169.18 397.533 168.517 396.358C168.121 395.219 168.261 394.149 169.435 393.486C170.575 393.091 171.645 393.23 172.308 394.405C173.006 395.312 172.565 396.614 171.39 397.277Z" fill="white"/>
<path d="M223.112 380.355C221.973 380.75 220.903 380.611 220.239 379.436C219.844 378.297 219.983 377.227 221.158 376.564C222.298 376.168 223.368 376.308 224.031 377.482C224.427 378.622 224.252 379.959 223.112 380.355Z" fill="white"/>
<path d="M195.567 362.075C194.428 362.47 193.357 362.331 192.694 361.156C192.299 360.017 192.438 358.947 193.613 358.284C194.753 357.888 195.823 358.028 196.486 359.202C196.916 360.074 196.475 361.377 195.567 362.075Z" fill="white"/>
<path d="M171.39 397.277C170.25 397.672 169.18 397.533 168.517 396.358C168.121 395.219 168.261 394.149 169.435 393.486C170.575 393.091 171.645 393.23 172.308 394.405C173.006 395.312 172.565 396.614 171.39 397.277Z" fill="white"/>
<path d="M241.087 430.3C239.947 430.695 238.877 430.555 238.214 429.381C237.818 428.241 237.958 427.171 239.133 426.509C240.272 426.113 241.343 426.253 242.006 427.427C242.401 428.567 242.227 429.904 241.087 430.3Z" fill="white"/>
<path d="M223.112 380.355C221.973 380.75 220.903 380.611 220.239 379.436C219.844 378.297 219.983 377.227 221.158 376.564C222.298 376.168 223.368 376.308 224.031 377.482C224.427 378.622 224.252 379.959 223.112 380.355Z" fill="white"/>
<path d="M171.39 397.277C170.25 397.672 169.18 397.533 168.517 396.358C168.121 395.219 168.261 394.149 169.435 393.486C170.575 393.091 171.645 393.23 172.308 394.405C173.006 395.312 172.565 396.614 171.39 397.277Z" fill="white"/>
<path d="M164.597 511.996C163.457 512.391 162.387 512.252 161.724 511.077C161.328 509.937 161.468 508.868 162.642 508.205C163.782 507.809 164.852 507.949 165.515 509.123C165.946 509.995 165.504 511.298 164.597 511.996Z" fill="white"/>
<path d="M132.062 494.425C130.922 494.821 129.852 494.681 129.189 493.507C128.793 492.367 128.933 491.297 130.107 490.634C131.247 490.239 132.317 490.378 132.98 491.553C133.411 492.425 133.236 493.762 132.062 494.425Z" fill="white"/>
<path d="M89.8857 248.198C88.7459 248.594 87.6758 248.454 87.0127 247.28C86.6171 246.14 86.7566 245.07 87.9313 244.408C89.0711 244.012 90.1412 244.152 90.8043 245.326C91.1999 246.466 90.7929 247.501 89.8857 248.198Z" fill="white"/>
<path d="M-1.05838 246.679C-2.19822 247.074 -3.26834 246.934 -3.93145 245.76C-4.32704 244.62 -4.18753 243.551 -3.01282 242.888C-1.87298 242.492 -0.802939 242.632 -0.13983 243.806C0.523279 244.981 0.116331 246.016 -1.05838 246.679Z" fill="white"/>
<path d="M6.51286 359.734C5.37305 360.129 4.30305 359.99 3.63997 358.815C3.24441 357.676 3.38383 356.606 4.5585 355.943C5.69831 355.548 6.76839 355.687 7.43147 356.861C7.8619 357.734 7.68753 359.071 6.51286 359.734Z" fill="white"/>
<path d="M9.05389 417.46C7.91406 417.855 6.84395 417.716 6.18085 416.541C5.78527 415.402 5.92477 414.332 7.09947 413.669C8.2393 413.274 9.30941 413.413 9.97251 414.588C10.6356 415.762 10.1937 417.065 9.05389 417.46Z" fill="white"/>
<path d="M45.2688 371.315C44.129 371.71 43.0589 371.571 42.3958 370.396C42.0002 369.257 42.1397 368.187 43.3144 367.524C44.4542 367.129 45.5242 367.268 46.1873 368.443C46.8853 369.35 46.4435 370.652 45.2688 371.315Z" fill="white"/>
<path d="M201.945 281.847C200.806 282.243 199.736 282.103 199.073 280.929C198.677 279.789 198.816 278.719 199.991 278.057C201.131 277.661 202.201 277.801 202.864 278.975C203.527 280.15 203.085 281.452 201.945 281.847Z" fill="white"/>
<path d="M166.359 329.434C165.219 329.83 164.149 329.69 163.486 328.516C163.09 327.376 163.229 326.306 164.404 325.643C165.276 325.213 166.614 325.388 167.277 326.562C167.94 327.737 167.498 329.039 166.359 329.434Z" fill="white"/>
<path d="M139.065 269.57C137.926 269.966 136.856 269.826 136.192 268.652C135.797 267.512 135.936 266.442 137.111 265.779C138.251 265.384 139.321 265.523 139.984 266.698C140.38 267.838 139.938 269.14 139.065 269.57Z" fill="white"/>
<path d="M201.945 281.847C200.806 282.243 199.736 282.103 199.073 280.929C198.677 279.789 198.816 278.719 199.991 278.057C201.131 277.661 202.201 277.801 202.864 278.975C203.527 280.15 203.085 281.452 201.945 281.847Z" fill="white"/>
<path d="M242.707 344.828C241.567 345.223 240.497 345.084 239.834 343.909C239.439 342.77 239.578 341.7 240.753 341.037C241.893 340.641 242.963 340.781 243.626 341.955C244.021 343.095 243.847 344.432 242.707 344.828Z" fill="white"/>
<path d="M245.627 343.304C244.487 343.7 243.417 343.56 242.754 342.386C242.358 341.246 242.498 340.176 243.673 339.513C244.812 339.118 245.882 339.257 246.546 340.432C246.941 341.571 246.499 342.874 245.627 343.304Z" fill="white"/>
<path d="M-0.310393 766.859C-1.45021 767.254 -2.52023 767.115 -3.18332 765.941C-3.57889 764.801 -3.43947 763.731 -2.26478 763.068C-1.39249 762.638 -0.0548715 762.812 0.608219 763.987C1.00379 765.126 0.864293 766.196 -0.310393 766.859Z" fill="white"/>
<path d="M452.392 771.202C451.252 771.597 450.182 771.457 449.519 770.283C449.123 769.143 449.263 768.074 450.437 767.411C451.577 767.015 452.647 767.155 453.31 768.329C453.706 769.469 453.264 770.771 452.392 771.202Z" fill="white"/>
<path d="M499.059 799.317C497.919 799.713 496.849 799.573 496.186 798.399C495.79 797.259 495.93 796.189 497.104 795.527C498.244 795.131 499.314 795.271 499.977 796.445C500.675 797.352 500.234 798.654 499.059 799.317Z" fill="white"/>
<path d="M468.404 736.023C467.264 736.419 466.194 736.279 465.531 735.105C465.136 733.965 465.275 732.895 466.45 732.232C467.59 731.837 468.66 731.977 469.323 733.151C469.753 734.023 469.311 735.326 468.404 736.023Z" fill="white"/>
<path d="M452.392 771.202C451.252 771.597 450.182 771.457 449.519 770.283C449.123 769.143 449.263 768.074 450.437 767.411C451.577 767.015 452.647 767.155 453.31 768.329C453.706 769.469 453.264 770.771 452.392 771.202Z" fill="white"/>
<path d="M499.059 799.317C497.919 799.713 496.849 799.573 496.186 798.399C495.79 797.259 495.93 796.189 497.104 795.527C498.244 795.131 499.314 795.271 499.977 796.445C500.675 797.352 500.234 798.654 499.059 799.317Z" fill="white"/>
<path d="M441.458 775.761C440.318 776.156 439.248 776.017 438.585 774.842C438.189 773.703 438.329 772.633 439.504 771.97C440.643 771.575 441.714 771.714 442.377 772.889C442.772 774.028 442.33 775.331 441.458 775.761Z" fill="white"/>
<path d="M16.4306 210.606C15.2908 211.001 14.2208 210.862 13.5577 209.687C13.1621 208.548 13.3015 207.478 14.4762 206.815C15.6161 206.42 16.6862 206.559 17.3493 207.734C17.7448 208.873 17.3029 210.176 16.4306 210.606Z" fill="white"/>
<path d="M16.4306 210.606C15.2908 211.001 14.2208 210.862 13.5577 209.687C13.1621 208.548 13.3015 207.478 14.4762 206.815C15.6161 206.42 16.6862 206.559 17.3493 207.734C17.7448 208.873 17.3029 210.176 16.4306 210.606Z" fill="white"/>
<path d="M-1.05838 246.679C-2.19822 247.074 -3.26834 246.934 -3.93145 245.76C-4.32704 244.62 -4.18753 243.551 -3.01282 242.888C-1.87298 242.492 -0.802939 242.632 -0.13983 243.806C0.523279 244.981 0.116331 246.016 -1.05838 246.679Z" fill="white"/>
<path d="M256.136 878.357C254.996 878.753 253.926 878.613 253.263 877.439C252.867 876.299 253.007 875.229 254.182 874.567C255.321 874.171 256.391 874.311 257.055 875.485C257.718 876.66 257.276 877.962 256.136 878.357Z" fill="white"/>
<path d="M268.673 867.751C267.533 868.147 266.463 868.007 265.8 866.833C265.404 865.693 265.544 864.623 266.718 863.961C267.858 863.565 268.928 863.705 269.591 864.879C269.987 866.019 269.545 867.321 268.673 867.751Z" fill="white"/>
<path d="M228.382 861.683C227.242 862.079 226.172 861.939 225.509 860.765C225.113 859.625 225.253 858.555 226.428 857.892C227.567 857.497 228.638 857.636 229.301 858.811C229.696 859.95 229.557 861.02 228.382 861.683Z" fill="white"/>
<path d="M256.136 878.357C254.996 878.753 253.926 878.613 253.263 877.439C252.867 876.299 253.007 875.229 254.182 874.567C255.321 874.171 256.391 874.311 257.055 875.485C257.718 876.66 257.276 877.962 256.136 878.357Z" fill="white"/>
<path d="M268.574 924.86C267.435 925.256 266.365 925.116 265.701 923.942C265.306 922.802 265.445 921.732 266.62 921.07C267.76 920.674 268.83 920.814 269.493 921.988C270.156 923.163 269.749 924.197 268.574 924.86Z" fill="white"/>
<path d="M268.673 867.751C267.533 868.147 266.463 868.007 265.8 866.833C265.404 865.693 265.544 864.623 266.718 863.961C267.858 863.565 268.928 863.705 269.591 864.879C269.987 866.019 269.545 867.321 268.673 867.751Z" fill="white"/>
<path d="M211.143 614.083C210.003 614.478 208.933 614.338 208.27 613.164C207.874 612.024 208.014 610.955 209.188 610.292C210.328 609.896 211.398 610.036 212.061 611.21C212.759 612.117 212.317 613.42 211.143 614.083Z" fill="white"/>
<path d="M212.296 630.282C211.156 630.678 210.086 630.538 209.423 629.364C209.028 628.224 209.167 627.154 210.342 626.491C211.481 626.096 212.552 626.235 213.215 627.41C213.878 628.584 213.436 629.887 212.296 630.282Z" fill="white"/>
<path d="M223.366 599.627C222.227 600.022 221.156 599.883 220.493 598.708C220.098 597.569 220.237 596.499 221.412 595.836C222.552 595.441 223.622 595.58 224.285 596.755C224.948 597.929 224.506 599.232 223.366 599.627Z" fill="white"/>
<path d="M211.143 614.083C210.003 614.478 208.933 614.338 208.27 613.164C207.874 612.024 208.014 610.955 209.188 610.292C210.328 609.896 211.398 610.036 212.061 611.21C212.759 612.117 212.317 613.42 211.143 614.083Z" fill="white"/>
<path d="M223.366 599.627C222.227 600.022 221.156 599.883 220.493 598.708C220.098 597.569 220.237 596.499 221.412 595.836C222.552 595.441 223.622 595.58 224.285 596.755C224.948 597.929 224.506 599.232 223.366 599.627Z" fill="white"/>
<path d="M164.597 511.996C163.457 512.391 162.387 512.252 161.724 511.077C161.328 509.937 161.468 508.868 162.642 508.205C163.782 507.809 164.852 507.949 165.515 509.123C165.946 509.995 165.504 511.298 164.597 511.996Z" fill="white"/>
</g>
<defs>
<clipPath id="clip0">
<rect x="786.307" y="111.043" width="940" height="859" transform="rotate(97.4274 786.307 111.043)" fill="white"/>
</clipPath>
</defs>
</svg>
