<svg width="250" height="200" fill="none" xmlns="http://www.w3.org/2000/svg"><path d="M184.284 117.835c-3.399 13.03-6.425 19.951-16.81 30.569M132.135 169.834c-14.456 1.742-16.712 1.593-33.408-.978" stroke="#F05361" stroke-width="3" stroke-linecap="round"/><path d="M185.308 89.996c1.18 6.198 1.232 9.107.88 13.924" stroke="url(#paint0_linear)" stroke-width="3" stroke-linecap="round"/><path d="M96.4 35.862c13.617-3.248 21.662-3.674 37.125-.8" stroke="url(#paint1_linear)" stroke-width="3" stroke-linecap="round"/><path d="M69.432 51.547c1.43-1.85 2.43-2.7 4.653-3.696M155.883 158.345c-1.693 1.612-2.81 2.302-5.157 2.952M75.737 155.352c-3.324-.691-7.302-4.462-8.332-5.759M48.813 109.945c-.833-19.286.826-28.644 8.5-42.662" stroke="#F9A86D" stroke-width="3" stroke-linecap="round"/><path d="M69.388 62.326c7.866-9.092 13.021-13.44 25.53-17.842M131.677 41.276c12.264 4.312 14.011 5.322 26.366 13.973" stroke="#F05361" stroke-width="3" stroke-linecap="round"/><path d="M57.576 84.215c1.502-5.428 2.609-7.779 4.793-11.497" stroke="url(#paint2_linear)" stroke-width="3" stroke-linecap="round"/><path d="M107.401 162.667c-12.188-2.775-18.798-5.611-30.046-14.017" stroke="url(#paint3_linear)" stroke-width="3" stroke-linecap="round"/><path d="M135.188 160.754c-1.876.916-3.012 1.202-5.186 1.123M108.125 41.1c1.992-.623 3.159-.734 5.295-.328M171.122 75.14c2.388 1.866 4.085 6.456 4.398 7.901M174.754 122.13c-6.947 15.773-11.97 22.612-23.649 30.807" stroke="#F9A86D" stroke-width="3" stroke-linecap="round"/><path transform="matrix(.00365 -1 1 .00323 160.946 52.085)" stroke="#F9A86D" stroke-linecap="round" d="M.5-.5h7.759"/><path transform="matrix(.00365 -1 1 .00323 163.938 49.544)" stroke="url(#paint4_linear)" stroke-linecap="round" d="M.5-.5h10.921"/><path transform="matrix(.00365 -1 1 .00323 167.521 48.434)" stroke="url(#paint5_linear)" stroke-linecap="round" d="M.5-.5h10.922"/><path transform="matrix(.00366 -1 1 .00323 171.107 46.202)" stroke="url(#paint6_linear)" stroke-linecap="round" d="M.5-.5h10.922"/><path transform="matrix(.00365 -1 1 .00323 174.693 43.97)" stroke="url(#paint7_linear)" stroke-linecap="round" d="M.5-.5h10.922"/><path transform="matrix(.00365 -1 1 .00323 178.26 47.347)" stroke="url(#paint8_linear)" stroke-linecap="round" d="M.5-.5h10.922"/><path transform="matrix(.00366 -1 1 .00323 181.83 49.601)" stroke="url(#paint9_linear)" stroke-linecap="round" d="M.5-.5h10.922"/><path transform="matrix(.00365 -1 1 .00323 185.4 51.856)" stroke="url(#paint10_linear)" stroke-linecap="round" d="M.5-.5h10.922"/><path transform="rotate(-89.791 122.2 -67.213) skewX(.025)" stroke="url(#paint11_linear)" stroke-linecap="round" d="M.5-.5h10.922"/><path transform="matrix(.00365 -1 1 .00323 192.532 58.608)" stroke="url(#paint12_linear)" stroke-linecap="round" d="M.5-.5h10.921"/><path transform="matrix(.00365 -1 1 .00323 196.122 55.255)" stroke="url(#paint13_linear)" stroke-linecap="round" d="M.5-.5h10.921"/><path transform="matrix(.00365 -1 1 .00323 199.709 53.023)" stroke="url(#paint14_linear)" stroke-linecap="round" d="M.5-.5h10.922"/><path transform="matrix(.00366 -1 1 .00322 203.296 50.792)" stroke="url(#paint15_linear)" stroke-linecap="round" d="M.5-.5h10.922"/><path transform="matrix(.00365 -1 1 .00323 206.882 48.56)" stroke="url(#paint16_linear)" stroke-linecap="round" d="M.5-.5h10.922"/><path d="M224.43 42.203l6.825.024-1.262 6.2" stroke="#F05361" stroke-width="2" stroke-linecap="round"/><path d="M154.843 68.026L180.968 49.5l19.803 15.581 28.616-21" stroke="url(#paint17_linear)" stroke-width="2" stroke-linecap="round"/><g clip-path="url(#clip0)"><path d="M157.175 119.618l-15.15-10.715a5.339 5.339 0 00-5.551-.389 5.342 5.342 0 00-2.904 4.747l-.03 8.582c-6.317-1.121-12.064-4.589-15.947-9.735l-8.91-11.809 4.439-5.798c4.821-6.3 12.437-10.045 20.37-10.017h.176l-.008 2.487c-5.922.538-13.967 2.527-19.468 11.785a1.51 1.51 0 102.596 1.544c3.729-6.276 8.983-9.453 16.861-10.261l-.023 6.783a5.345 5.345 0 002.872 4.767 5.352 5.352 0 005.554-.351l15.224-10.61a5.364 5.364 0 00.03-8.775l-15.151-10.715a5.342 5.342 0 00-5.552-.388 5.343 5.343 0 00-2.904 4.746l-.02 5.967h-.177c-8.871-.03-17.388 4.157-22.78 11.201l-3.928 5.132-1.606-2.129C99.844 88.585 91.356 84.34 82.484 84.31l-10.75-.037a1.51 1.51 0 10-.01 3.021l10.75.037c7.934.027 15.523 3.824 20.301 10.156l2.113 2.801-2.586 3.378-.916-1.213a28.623 28.623 0 00-16.144-10.573 1.51 1.51 0 00-.704 2.938 25.6 25.6 0 0114.436 9.455l1.422 1.883-2.193 2.865c-4.82 6.3-12.437 10.044-20.37 10.017l-6.218-.022a1.512 1.512 0 00-.01 3.021l6.218.022c8.872.03 17.388-4.157 22.78-11.202l1.683-2.198 9.095 12.054a28.67 28.67 0 004.204 4.477c.285.243.632.362.978.363a1.51 1.51 0 00.99-2.657 25.556 25.556 0 01-3.76-4.003l-9.602-12.723 2.586-3.379 8.404 11.137c4.447 5.895 11.081 9.818 18.349 10.971l-.034 9.688a5.346 5.346 0 002.872 4.768 5.374 5.374 0 002.472.615 5.353 5.353 0 003.082-.966l15.223-10.611a5.364 5.364 0 002.296-4.379 5.365 5.365 0 00-2.266-4.395zM136.72 75.507a2.302 2.302 0 011.268-2.072 2.34 2.34 0 011.084-.267c.468.002.931.15 1.338.437l15.15 10.714a2.31 2.31 0 01.989 1.919 2.31 2.31 0 01-1.002 1.911l-15.223 10.61a2.309 2.309 0 01-2.424.153 2.303 2.303 0 01-1.253-2.08l.073-21.325zm18.697 50.407l-15.223 10.61a2.306 2.306 0 01-2.424.153 2.304 2.304 0 01-1.253-2.08l.074-21.325a2.303 2.303 0 011.267-2.073 2.35 2.35 0 011.085-.266c.467.002.93.148 1.337.436l15.15 10.715a2.31 2.31 0 01.99 1.918 2.31 2.31 0 01-1.003 1.912z" fill="url(#paint18_linear)"/><path d="M102.352 124.644a12.407 12.407 0 00-8.849 21.155 12.406 12.406 0 0013.516 2.737 12.416 12.416 0 007.7-11.44 12.419 12.419 0 00-3.609-8.783 12.42 12.42 0 00-8.758-3.669zm-.078 22.564a10.16 10.16 0 01-9.36-6.301 10.151 10.151 0 012.24-11.058 10.155 10.155 0 0117.309 7.24 10.168 10.168 0 01-10.189 10.119z" fill="url(#paint19_linear)"/><path d="M103.575 129.612l-2.482-.008-.007 2.127-2.482-.008a1.346 1.346 0 00-.879.308.994.994 0 00-.366.751l-.014 4.255c-.001.282.128.553.36.753.233.201.548.314.877.315l6.205.021-.007 2.128-7.446-.026-.008 2.128 3.723.012-.007 2.128 2.482.008.007-2.127 2.482.008c.33.002.646-.109.879-.308a.995.995 0 00.366-.751l.015-4.255a.992.992 0 00-.361-.753 1.35 1.35 0 00-.877-.315l-6.205-.021.008-2.128 7.446.026.007-2.128-3.723-.012.007-2.128z" fill="url(#paint20_linear)"/></g><defs><linearGradient id="paint0_linear" x1="185.308" y1="89.996" x2="185.26" y2="103.917" gradientUnits="userSpaceOnUse"><stop stop-color="#F05361"/><stop offset="1" stop-color="#F05361"/></linearGradient><linearGradient id="paint1_linear" x1="114.971" y1="33.139" x2="139.088" y2="36.937" gradientUnits="userSpaceOnUse"><stop stop-color="#F9A86D"/><stop offset="1" stop-color="#F05361"/></linearGradient><linearGradient id="paint2_linear" x1="57.576" y1="84.215" x2="63.111" y2="73.087" gradientUnits="userSpaceOnUse"><stop stop-color="#F05361"/><stop offset="1" stop-color="#F05361"/></linearGradient><linearGradient id="paint3_linear" x1="91.455" y1="157.515" x2="73.642" y2="144.953" gradientUnits="userSpaceOnUse"><stop stop-color="#F9A86D"/><stop offset="1" stop-color="#F05361"/></linearGradient><linearGradient id="paint4_linear" x1="10.239" y1="-.5" x2="1.828" y2="-.5" gradientUnits="userSpaceOnUse"><stop stop-color="#F9A86D"/><stop offset="1" stop-color="#F05361"/></linearGradient><linearGradient id="paint5_linear" x1="5.961" y1="0" x2=".722" y2="-.627" gradientUnits="userSpaceOnUse"><stop stop-color="#F9A86D"/><stop offset="1" stop-color="#F05361"/></linearGradient><linearGradient id="paint6_linear" x1="5.961" y1="0" x2=".722" y2="-.627" gradientUnits="userSpaceOnUse"><stop stop-color="#F9A86D"/><stop offset="1" stop-color="#F05361"/></linearGradient><linearGradient id="paint7_linear" x1="5.961" y1="0" x2=".722" y2="-.627" gradientUnits="userSpaceOnUse"><stop stop-color="#F9A86D"/><stop offset="1" stop-color="#F05361"/></linearGradient><linearGradient id="paint8_linear" x1="5.961" y1="0" x2=".722" y2="-.627" gradientUnits="userSpaceOnUse"><stop stop-color="#F9A86D"/><stop offset="1" stop-color="#F05361"/></linearGradient><linearGradient id="paint9_linear" x1="5.961" y1="0" x2=".722" y2="-.627" gradientUnits="userSpaceOnUse"><stop stop-color="#F9A86D"/><stop offset="1" stop-color="#F05361"/></linearGradient><linearGradient id="paint10_linear" x1="5.961" y1="0" x2=".722" y2="-.627" gradientUnits="userSpaceOnUse"><stop stop-color="#F9A86D"/><stop offset="1" stop-color="#F05361"/></linearGradient><linearGradient id="paint11_linear" x1="5.961" y1="0" x2=".722" y2="-.627" gradientUnits="userSpaceOnUse"><stop stop-color="#F9A86D"/><stop offset="1" stop-color="#F05361"/></linearGradient><linearGradient id="paint12_linear" x1="5.961" y1="0" x2=".722" y2="-.627" gradientUnits="userSpaceOnUse"><stop stop-color="#F9A86D"/><stop offset="1" stop-color="#F05361"/></linearGradient><linearGradient id="paint13_linear" x1="5.961" y1="0" x2=".722" y2="-.627" gradientUnits="userSpaceOnUse"><stop stop-color="#F9A86D"/><stop offset="1" stop-color="#F05361"/></linearGradient><linearGradient id="paint14_linear" x1="5.961" y1="0" x2=".722" y2="-.627" gradientUnits="userSpaceOnUse"><stop stop-color="#F9A86D"/><stop offset="1" stop-color="#F05361"/></linearGradient><linearGradient id="paint15_linear" x1="5.961" y1="0" x2=".722" y2="-.627" gradientUnits="userSpaceOnUse"><stop stop-color="#F9A86D"/><stop offset="1" stop-color="#F05361"/></linearGradient><linearGradient id="paint16_linear" x1="5.961" y1="0" x2=".722" y2="-.627" gradientUnits="userSpaceOnUse"><stop stop-color="#F9A86D"/><stop offset="1" stop-color="#F05361"/></linearGradient><linearGradient id="paint17_linear" x1="159.811" y1="66.802" x2="201.081" y2="65.082" gradientUnits="userSpaceOnUse"><stop stop-color="#F9A86D"/><stop offset="1" stop-color="#F05361"/></linearGradient><linearGradient id="paint18_linear" x1="114.949" y1="70.068" x2="214.244" y2="122.203" gradientUnits="userSpaceOnUse"><stop stop-color="#F9A86D"/><stop offset=".479" stop-color="#F05361"/><stop offset="1" stop-opacity="0"/></linearGradient><linearGradient id="paint19_linear" x1="66.207" y1="136.93" x2="139.617" y2="137.182" gradientUnits="userSpaceOnUse"><stop stop-color="#F9A86D"/><stop offset=".503" stop-color="#F05361"/><stop offset="1" stop-color="#B72563"/></linearGradient><linearGradient id="paint20_linear" x1="62.596" y1="136.918" x2="143.348" y2="137.195" gradientUnits="userSpaceOnUse"><stop stop-color="#F9A86D"/><stop offset=".503" stop-color="#F05361"/><stop offset="1" stop-color="#B72563"/></linearGradient><clipPath id="clip0"><path fill="#fff" transform="rotate(.197 -17437.76 20504.353)" d="M0 0h89.354v89.354H0z"/></clipPath></defs></svg>