<svg width="250" height="200" fill="none" xmlns="http://www.w3.org/2000/svg"><path d="M77.737 85.732c2.565-9.1 4.783-13.916 12.218-21.227M115.055 49.947c10.171-1.025 11.752-.889 23.436 1.144" stroke="#F05361" stroke-width="3" stroke-linecap="round"/><path d="M76.64 105.257c-.744-4.366-.74-6.409-.428-9.785" stroke="url(#paint0_linear)" stroke-width="3" stroke-linecap="round"/><path d="M91.915 131.256c-3.751-2.852-4.856-4.572-6.112-7.754" stroke="url(#paint1_linear)" stroke-width="3" stroke-linecap="round"/><path d="M138.303 144.47c-9.603 2.094-15.256 2.282-26.07.054" stroke="url(#paint2_linear)" stroke-width="3" stroke-linecap="round"/><path d="M157.446 133.83c-1.029 1.278-1.742 1.861-3.316 2.53M98.228 57.687c1.21-1.108 2.003-1.577 3.66-2.001M172.718 93.123c.321 13.548-.972 20.094-6.55 29.828" stroke="#F9A86D" stroke-width="3" stroke-linecap="round"/><path d="M150.886 99.356a3.161 3.161 0 003.163-3.162v-16.87a3.164 3.164 0 00-3.163-3.162h-16.593a3.277 3.277 0 00-.404-.398.894.894 0 00-.132-.09l-9.752-5.694a1.029 1.029 0 00-.343-.126l-11.597-2.109a1.041 1.041 0 00-.395 0l-9.283 1.859v-.823a1.057 1.057 0 00-1.054-1.054h-4.217a1.054 1.054 0 00-1.055 1.054v16.87a1.054 1.054 0 001.055 1.054h4.217a1.055 1.055 0 001.054-1.055V83.14l4.801 2.406c.146.071.308.107.471.105h6.326c.095 0 .19-.012.281-.038l1.827-.508v11.09a3.164 3.164 0 003.163 3.162h31.63zm-32.684-14.834l3.921-1.093a.997.997 0 00.258-.112c.373-.224.709-.504.997-.83h28.562v2.11h-33.738v-.075zm33.738-5.198v1.055h-27.505c.059-.281.09-.567.093-.854a4.315 4.315 0 00-.211-1.255h26.569a1.053 1.053 0 011.054 1.055zm-51.661 5.272H98.17v-14.76h2.109v14.76zm13.562-1.054h-5.933l-5.521-2.76v-9.027l9.499-1.898 11.215 2.037 7.311 4.268h-7.486a4.33 4.33 0 00-2.816-1.055h-5.071v2.109h5.071a2.328 2.328 0 012.309 2.309 2.21 2.21 0 01-.441 1.334 2.09 2.09 0 01-.572.58l-7.565 2.103zm4.361 12.651v-9.488h33.738v9.489a1.053 1.053 0 01-1.054 1.054h-31.63a1.054 1.054 0 01-1.054-1.055z" fill="url(#paint3_linear)"/><path d="M143.506 95.14c.556-.001 1.102-.15 1.581-.43a3.165 3.165 0 004.756-2.734 3.169 3.169 0 00-1.587-2.742 3.162 3.162 0 00-3.169.01 3.16 3.16 0 00-4.647 1.913 3.165 3.165 0 003.066 3.982zm0-4.218a1.043 1.043 0 01.788.367 1.094 1.094 0 001.226.253c.136-.059.259-.145.361-.253a1.041 1.041 0 011.533-.058 1.053 1.053 0 01-1.179 1.702 1.04 1.04 0 01-.354-.27 1.055 1.055 0 00-1.587 0 1.05 1.05 0 01-.788.368 1.055 1.055 0 110-2.109z" fill="url(#paint4_linear)"/><path d="M120.311 88.814h4.217v2.108h-4.217v-2.108z" fill="url(#paint5_linear)"/><path d="M120.311 93.03h7.38v2.11h-7.38v-2.11z" fill="url(#paint6_linear)"/><path d="M129.8 118.334h2.108a3.163 3.163 0 00-3.163-3.163v-1.054h-2.108v1.054a3.165 3.165 0 00-2.237 5.4 3.164 3.164 0 002.237.926v2.109a1.054 1.054 0 01-1.055-1.054h-2.108a3.161 3.161 0 003.163 3.163v1.054h2.108v-1.054a3.165 3.165 0 002.237-5.4 3.164 3.164 0 00-2.237-.926v-2.109a1.054 1.054 0 011.055 1.054zm0 4.218a1.058 1.058 0 01-1.055 1.054v-2.109a1.054 1.054 0 011.055 1.055zm-3.163-3.163a1.054 1.054 0 110-2.109v2.109z" fill="url(#paint7_linear)"/><path d="M158.266 101.465h-4.217a1.054 1.054 0 00-1.055 1.055v.822l-9.277-1.856a1.055 1.055 0 00-.396 0l-11.597 2.109a1.008 1.008 0 00-.343.127l-9.752 5.693a.86.86 0 00-.132.091 3.142 3.142 0 00-1.186 2.46v.976a10.521 10.521 0 00-2.847 9.978 10.537 10.537 0 007.089 7.577 10.534 10.534 0 0013.5-11.997l3.057.851c.094.025.19.038.287.038h6.326c.163.001.324-.035.471-.106l4.8-2.406v2.512a1.058 1.058 0 001.055 1.054h4.217a1.054 1.054 0 001.054-1.054V102.52a1.058 1.058 0 00-1.054-1.055zm-22.14 18.978a8.454 8.454 0 01-5.968 8.118 8.445 8.445 0 01-9.496-3.366 8.444 8.444 0 014.959-12.906 8.453 8.453 0 015.292.391 4.196 4.196 0 002.086 4.375c.082.049.17.087.261.113l2.444.679a8.24 8.24 0 01.422 2.596zm11.348-3.163h-5.932l-7.566-2.102a2.313 2.313 0 011.298-4.224h5.069v-2.108h-5.069a4.41 4.41 0 00-3.59 1.86 10.353 10.353 0 00-3.993-.806 10.5 10.5 0 00-4.343.949l8.932-5.216 11.216-2.039 9.498 1.899v9.027l-5.52 2.76zm9.738 1.054h-2.109v-14.76h2.109v14.76z" fill="url(#paint8_linear)"/><path d="M187.783 112.998c-3.01 12.105-5.704 18.538-14.99 28.427M141.149 161.429c-12.966 1.663-14.99 1.531-29.979-.802" stroke="#F05361" stroke-width="3" stroke-linecap="round"/><path d="M188.617 87.156c1.079 5.748 1.134 8.448.833 12.921" stroke="url(#paint9_linear)" stroke-width="3" stroke-linecap="round"/><path d="M108.672 37.194c12.209-3.058 19.427-3.479 33.311-.861" stroke="url(#paint10_linear)" stroke-width="3" stroke-linecap="round"/><path d="M84.522 51.838c1.277-1.72 2.172-2.513 4.163-3.445M162.424 150.689c-1.514 1.502-2.514 2.145-4.618 2.756M90.497 148.166c-2.984-.631-6.565-4.118-7.494-5.319M66.2 106.107c-.807-17.899.653-26.59 7.495-39.625" stroke="#F9A86D" stroke-width="3" stroke-linecap="round"/><path d="M187.34 63.481h-30.979V41.137h5.018a.649.649 0 00.637-.659.649.649 0 00-.637-.659h-5.655a.648.648 0 00-.637.66V64.14c0 .364.285.66.637.66h5.541l2.374 5.293c.146.326.53.472.846.32l2.323-1.114 7.046 5.2a.63.63 0 00.888-.154l6.585-9.546h6.014a.649.649 0 00.637-.659.65.65 0 00-.638-.659zM162.67 64.8h10.49l-8.634 4.142-1.856-4.142zm11.405 8.244l-5.937-4.382 8.051-3.862h3.572l-5.686 8.244z" fill="url(#paint11_linear)"/><path d="M197.88 39.82h-5.541l-2.374-5.295a.634.634 0 00-.846-.32l-2.324 1.115-7.045-5.2a.63.63 0 00-.888.154l-6.585 9.546h-8.35a.648.648 0 00-.637.658c0 .364.285.66.637.66h33.316V63.48h-7.354a.648.648 0 00-.637.66c0 .363.285.658.637.658h7.991a.648.648 0 00.637-.659V40.478a.648.648 0 00-.637-.659zm-6.946 0h-10.491l8.634-4.142 1.857 4.142zm-11.405-8.244l5.937 4.381-8.051 3.863h-3.572l5.686-8.244z" fill="url(#paint12_linear)"/><path d="M176.803 58.607c3.353 0 6.08-2.821 6.08-6.29 0-3.467-2.727-6.289-6.08-6.289s-6.08 2.822-6.08 6.29 2.727 6.289 6.08 6.289zm0-11.26c2.65 0 4.806 2.23 4.806 4.97 0 2.742-2.156 4.972-4.806 4.972s-4.806-2.23-4.806-4.971 2.156-4.972 4.806-4.972z" fill="url(#paint13_linear)"/><path d="M171.408 61.57h19.407a.648.648 0 00.637-.66c0-1.658 1.617-3.287 3.265-3.287a.648.648 0 00.637-.659v-9.31a.648.648 0 00-.637-.66c-1.648 0-3.265-1.628-3.265-3.287a.648.648 0 00-.637-.659h-28.374a.648.648 0 00-.637.66c0 1.76-1.364 3.304-2.919 3.304a.648.648 0 00-.637.66v9.275c0 .364.285.659.637.659 1.555 0 2.919 1.544 2.919 3.304 0 .364.285.66.637.66h6.418a.649.649 0 00.638-.66.649.649 0 00-.638-.659h-5.829a4.936 4.936 0 00-1.156-2.528c-.652-.748-1.471-1.224-2.352-1.38v-8.069c.881-.155 1.7-.631 2.352-1.38a4.936 4.936 0 001.156-2.528h27.204c.321 1.894 1.978 3.572 3.846 3.892v8.102c-1.868.32-3.525 1.997-3.846 3.891h-18.826a.648.648 0 00-.637.66c0 .364.285.658.637.658z" fill="url(#paint14_linear)"/><defs><linearGradient id="paint0_linear" x1="76.64" y1="105.257" x2="76.864" y2="95.487" gradientUnits="userSpaceOnUse"><stop stop-color="#F05361"/><stop offset="1" stop-color="#F05361"/></linearGradient><linearGradient id="paint1_linear" x1="91.915" y1="131.256" x2="87.018" y2="122.799" gradientUnits="userSpaceOnUse"><stop stop-color="#F05361"/><stop offset="1" stop-color="#F05361"/></linearGradient><linearGradient id="paint2_linear" x1="125.231" y1="146.127" x2="108.355" y2="143.132" gradientUnits="userSpaceOnUse"><stop stop-color="#F9A86D"/><stop offset="1" stop-color="#F05361"/></linearGradient><linearGradient id="paint3_linear" x1="80.88" y1="130.158" x2="161.859" y2="43.531" gradientUnits="userSpaceOnUse"><stop stop-color="#FFF200"/><stop offset="1" stop-color="#CD118C"/></linearGradient><linearGradient id="paint4_linear" x1="159.677" y1="561.401" x2="596.412" y2="-141.026" gradientUnits="userSpaceOnUse"><stop stop-color="#FFF200"/><stop offset="1" stop-color="#CD118C"/></linearGradient><linearGradient id="paint5_linear" x1="76.295" y1="221.76" x2="200.829" y2="-44.685" gradientUnits="userSpaceOnUse"><stop stop-color="#FFF200"/><stop offset="1" stop-color="#CD118C"/></linearGradient><linearGradient id="paint6_linear" x1="63.919" y1="231.489" x2="144.853" y2="-71.546" gradientUnits="userSpaceOnUse"><stop stop-color="#FFF200"/><stop offset="1" stop-color="#CD118C"/></linearGradient><linearGradient id="paint7_linear" x1="179.968" y1="1114.45" x2="1100.81" y2="457.723" gradientUnits="userSpaceOnUse"><stop stop-color="#FFF200"/><stop offset="1" stop-color="#CD118C"/></linearGradient><linearGradient id="paint8_linear" x1="554.869" y1="2536.67" x2="2636.99" y2="-644.539" gradientUnits="userSpaceOnUse"><stop stop-color="#FFF200"/><stop offset="1" stop-color="#CD118C"/></linearGradient><linearGradient id="paint9_linear" x1="188.617" y1="87.156" x2="188.617" y2="100.077" gradientUnits="userSpaceOnUse"><stop stop-color="#F05361"/><stop offset="1" stop-color="#F05361"/></linearGradient><linearGradient id="paint10_linear" x1="125.327" y1="34.608" x2="147.012" y2="37.835" gradientUnits="userSpaceOnUse"><stop stop-color="#F9A86D"/><stop offset="1" stop-color="#F05361"/></linearGradient><linearGradient id="paint11_linear" x1="171.532" y1="39.819" x2="171.532" y2="74.619" gradientUnits="userSpaceOnUse"><stop stop-color="#F9A86D"/><stop offset=".932" stop-color="#F05361"/><stop offset="1" stop-color="#F05361"/></linearGradient><linearGradient id="paint12_linear" x1="180.903" y1="30" x2="180.903" y2="64.799" gradientUnits="userSpaceOnUse"><stop stop-color="#F9A86D"/><stop offset=".932" stop-color="#F05361"/><stop offset="1" stop-color="#F05361"/></linearGradient><linearGradient id="paint13_linear" x1="176.803" y1="46.028" x2="176.803" y2="58.607" gradientUnits="userSpaceOnUse"><stop stop-color="#F9A86D"/><stop offset=".932" stop-color="#F05361"/><stop offset="1" stop-color="#F05361"/></linearGradient><linearGradient id="paint14_linear" x1="176.801" y1="43.048" x2="176.801" y2="61.569" gradientUnits="userSpaceOnUse"><stop stop-color="#F9A86D"/><stop offset=".932" stop-color="#F05361"/><stop offset="1" stop-color="#F05361"/></linearGradient></defs></svg>