<svg width="250" height="200" fill="none" xmlns="http://www.w3.org/2000/svg"><path d="M187.451 115.327c-3.301 12.834-6.255 19.655-16.439 30.14M136.306 166.676c-14.22 1.763-16.44 1.624-32.879-.85" stroke="#F05361" stroke-width="3" stroke-linecap="round"/><path d="M188.365 87.927c1.183 6.095 1.244 8.958.914 13.7" stroke="url(#paint0_linear)" stroke-width="3" stroke-linecap="round"/><path d="M100.687 34.955c13.39-3.243 21.305-3.689 36.532-.913" stroke="url(#paint1_linear)" stroke-width="3" stroke-linecap="round"/><path d="M74.198 50.481c1.401-1.824 2.383-2.665 4.567-3.653M159.638 155.289c-1.66 1.592-2.757 2.275-5.065 2.922M80.755 152.613c-3.273-.669-7.2-4.366-8.219-5.639M54.108 108.02c-.886-18.977.715-28.191 8.22-42.012" stroke="#F9A86D" stroke-width="3" stroke-linecap="round"/><path d="M78.762 116.807c-2.856-8.506-3.692-13.47-1.773-23.179M88.884 68.788c7.427-6.244 8.739-6.983 18.988-11.638" stroke="#F05361" stroke-width="3" stroke-linecap="round"/><path d="M88.345 132.706c-2.919-3.026-4.009-4.629-5.57-7.444" stroke="url(#paint2_linear)" stroke-width="3" stroke-linecap="round"/><path d="M114.229 144.921c-4.468-.23-6.254-.988-8.94-2.812" stroke="url(#paint3_linear)" stroke-width="3" stroke-linecap="round"/><path d="M157.671 130.471c-6.41 6.778-10.742 9.95-20.413 13.986" stroke="url(#paint4_linear)" stroke-width="3" stroke-linecap="round"/><path d="M166.99 111.888c-.123 1.553-.371 2.392-1.247 3.759M79.828 83.857c.356-1.517.727-2.309 1.8-3.527M125.618 56.297c2.106-.826 5.699-.174 6.747.173M157.189 71.801c7.499 10.452 9.986 16.276 10.819 26.892" stroke="#F9A86D" stroke-width="3" stroke-linecap="round"/><path d="M70.882 72.395c5.79-9.54 9.835-14.316 20.6-20.283M124.631 43.483c11.891 2.046 13.647 2.7 26.293 8.703" stroke="#F05361" stroke-width="3" stroke-linecap="round"/><path d="M63.463 94.256c.533-5.2 1.182-7.523 2.605-11.264" stroke="url(#paint5_linear)" stroke-width="3" stroke-linecap="round"/><path d="M72.626 128.652c-3.366-4.429-4.079-6.735-4.502-10.75" stroke="url(#paint6_linear)" stroke-width="3" stroke-linecap="round"/><path d="M121.214 158.335c-11.584-.652-18.072-2.223-29.668-8.174" stroke="url(#paint7_linear)" stroke-width="3" stroke-linecap="round"/><path d="M146.348 152.279c-1.574 1.129-2.57 1.567-4.572 1.831M103.045 46.97c1.727-.879 2.777-1.161 4.796-1.12M165.971 68.363c2.475 1.338 4.739 5.275 5.249 6.55M176.575 110.803c-3.915 15.511-7.452 22.548-16.872 31.857" stroke="#F9A86D" stroke-width="3" stroke-linecap="round"/><g clip-path="url(#clip0)"><path d="M144.639 95.56a.89.89 0 00.127-.934l-6.282-14.139 4.09-4.965a.896.896 0 00-1.383-1.14l-4.09 4.965-15.081-3.457a.896.896 0 00-.891.304l-28.48 34.575a.895.895 0 00.122 1.26l22.129 18.227a.894.894 0 001.26-.122l28.479-34.575zm-50.037 15.656l27.557-33.457 13.668 3.133-3.123 3.792a4.48 4.48 0 101.383 1.139l3.123-3.79 5.696 12.814-27.556 33.457-20.748-17.088zm35.312-23.143a.896.896 0 001.383 1.14l1.605-1.948a2.66 2.66 0 01-.22 3.087 2.698 2.698 0 11-1.161-4.228l-1.607 1.95z" fill="url(#paint8_linear)"/><path stroke="url(#paint9_linear)" stroke-linecap="round" d="M118.117 109.425V97.443"/><path stroke="url(#paint10_linear)" stroke-linecap="round" d="M99.777 105.404l21.194 16.484"/><path stroke="url(#paint11_linear)" stroke-linecap="round" d="M121.78 106.982V95"/><path stroke="url(#paint12_linear)" stroke-linecap="round" d="M125.444 110.646V98.664"/><path stroke="url(#paint13_linear)" stroke-linecap="round" d="M129.108 108.204V96.222"/><path stroke="url(#paint14_linear)" stroke-linecap="round" d="M132.772 105.761V93.779"/></g><path d="M154 61.998l17.098-18.21c22.594-25.385 28.7 12.692 47.63 8.829" stroke="url(#paint15_linear)" stroke-width="2" stroke-linecap="round"/><defs><linearGradient id="paint0_linear" x1="188.365" y1="87.927" x2="188.365" y2="101.627" gradientUnits="userSpaceOnUse"><stop stop-color="#F05361"/><stop offset="1" stop-color="#F05361"/></linearGradient><linearGradient id="paint1_linear" x1="118.953" y1="32.213" x2="142.699" y2="35.868" gradientUnits="userSpaceOnUse"><stop stop-color="#F9A86D"/><stop offset="1" stop-color="#F05361"/></linearGradient><linearGradient id="paint2_linear" x1="88.345" y1="132.706" x2="83.294" y2="124.925" gradientUnits="userSpaceOnUse"><stop stop-color="#F05361"/><stop offset="1" stop-color="#F05361"/></linearGradient><linearGradient id="paint3_linear" x1="114.229" y1="144.921" x2="105.865" y2="140.908" gradientUnits="userSpaceOnUse"><stop stop-color="#F05361"/><stop offset="1" stop-color="#F05361"/></linearGradient><linearGradient id="paint4_linear" x1="148.307" y1="138.762" x2="133.472" y2="145.44" gradientUnits="userSpaceOnUse"><stop stop-color="#F9A86D"/><stop offset="1" stop-color="#F05361"/></linearGradient><linearGradient id="paint5_linear" x1="63.463" y1="94.256" x2="66.804" y2="83.214" gradientUnits="userSpaceOnUse"><stop stop-color="#F05361"/><stop offset="1" stop-color="#F05361"/></linearGradient><linearGradient id="paint6_linear" x1="72.626" y1="128.652" x2="69.728" y2="117.485" gradientUnits="userSpaceOnUse"><stop stop-color="#F05361"/><stop offset="1" stop-color="#F05361"/></linearGradient><linearGradient id="paint7_linear" x1="105.822" y1="156.09" x2="87.574" y2="147.353" gradientUnits="userSpaceOnUse"><stop stop-color="#F9A86D"/><stop offset="1" stop-color="#F05361"/></linearGradient><linearGradient id="paint8_linear" x1="145.388" y1="100.579" x2="91.901" y2="105.75" gradientUnits="userSpaceOnUse"><stop stop-color="#F05361"/><stop offset="1" stop-color="#F9A86D"/></linearGradient><linearGradient id="paint9_linear" x1="118.617" y1="103.434" x2="117.876" y2="109.124" gradientUnits="userSpaceOnUse"><stop stop-color="#F9A86D"/><stop offset="1" stop-color="#F05361"/></linearGradient><linearGradient id="paint10_linear" x1="119.539" y1="120.496" x2="99.961" y2="107.175" gradientUnits="userSpaceOnUse"><stop stop-color="#F47A66"/><stop offset="1" stop-color="#F8A06C"/></linearGradient><linearGradient id="paint11_linear" x1="122.28" y1="100.991" x2="121.539" y2="106.681" gradientUnits="userSpaceOnUse"><stop stop-color="#F9A86D"/><stop offset="1" stop-color="#F05361"/></linearGradient><linearGradient id="paint12_linear" x1="125.944" y1="104.655" x2="125.203" y2="110.345" gradientUnits="userSpaceOnUse"><stop stop-color="#F9A86D"/><stop offset="1" stop-color="#F05361"/></linearGradient><linearGradient id="paint13_linear" x1="129.608" y1="102.213" x2="128.867" y2="107.903" gradientUnits="userSpaceOnUse"><stop stop-color="#F9A86D"/><stop offset="1" stop-color="#F05361"/></linearGradient><linearGradient id="paint14_linear" x1="133.272" y1="99.77" x2="132.531" y2="105.46" gradientUnits="userSpaceOnUse"><stop stop-color="#F9A86D"/><stop offset="1" stop-color="#F05361"/></linearGradient><linearGradient id="paint15_linear" x1="249.871" y1="41.028" x2="168.272" y2="51.136" gradientUnits="userSpaceOnUse"><stop stop-color="#F9A86D"/><stop offset="1" stop-color="#F15D62"/></linearGradient><clipPath id="clip0"><path fill="#fff" transform="rotate(84.478 30.791 115.5)" d="M0 0h53.737v53.737H0z"/></clipPath></defs></svg>