<svg width="591" height="843" viewBox="0 0 591 843" fill="none" xmlns="http://www.w3.org/2000/svg">
<g clip-path="url(#clip0)">
<path fill-rule="evenodd" clip-rule="evenodd" d="M452.178 557.058L452.681 690.732H484.62L407.413 781.188L330.206 690.732H362.145V557.058C362.145 535.952 354.852 516.604 343.032 501.277C372.456 491.478 399.114 476.15 421.748 456.049C440.861 484.945 452.178 519.619 452.178 557.058ZM330.206 207.044H362.145V285.941C362.145 333.682 325.176 372.88 278.148 376.397C275.884 376.397 273.621 376.397 271.358 376.397C171.516 376.397 90.5366 457.305 90.5366 557.058V690.732H181.073L180.821 557.058C180.821 509.318 218.042 470.12 264.819 466.853C267.082 466.853 269.346 466.853 271.358 466.853C371.199 466.853 452.178 385.946 452.178 286.193L452.681 207.295H484.62L407.413 116.839L330.206 207.044ZM199.432 341.471C170.259 351.271 143.601 366.598 120.967 386.699C101.602 358.055 90.2852 323.38 90.2852 286.193V207.295H180.821L180.57 286.193C180.57 307.048 187.612 326.144 199.432 341.471Z" fill="#1A83FF"/>
<path d="M2.51562 207.045H572.139" stroke="white" stroke-width="1.9199" stroke-miterlimit="2.6131" stroke-linecap="round" stroke-dasharray="9.6 9.6"/>
<path d="M18.6113 690.48H588.486" stroke="white" stroke-width="1.9199" stroke-miterlimit="2.6131" stroke-linecap="round" stroke-dasharray="9.6 9.6"/>
<path d="M452.43 285.942V2.5127" stroke="white" stroke-width="1.9199" stroke-miterlimit="2.6131" stroke-linecap="round" stroke-dasharray="9.6 9.6"/>
<path d="M361.895 285.942V2.5127" stroke="white" stroke-width="1.9199" stroke-miterlimit="2.6131" stroke-linecap="round" stroke-dasharray="9.6 9.6"/>
<path d="M180.57 285.942V2.5127" stroke="white" stroke-width="1.9199" stroke-miterlimit="2.6131" stroke-linecap="round" stroke-dasharray="9.6 9.6"/>
<path d="M90.2852 285.942V2.5127" stroke="white" stroke-width="1.9199" stroke-miterlimit="2.6131" stroke-linecap="round" stroke-dasharray="9.6 9.6"/>
<path d="M452.43 840.488V557.059" stroke="white" stroke-width="1.9199" stroke-miterlimit="2.6131" stroke-linecap="round" stroke-dasharray="9.6 9.6"/>
<path d="M361.895 840.488V557.059" stroke="white" stroke-width="1.9199" stroke-miterlimit="2.6131" stroke-linecap="round" stroke-dasharray="9.6 9.6"/>
<path d="M180.57 840.488V557.059" stroke="white" stroke-width="1.9199" stroke-miterlimit="2.6131" stroke-linecap="round" stroke-dasharray="9.6 9.6"/>
<path d="M90.2852 840.488V557.059" stroke="white" stroke-width="1.9199" stroke-miterlimit="2.6131" stroke-linecap="round" stroke-dasharray="9.6 9.6"/>
<path d="M312.348 461.9C409.761 439.289 470.384 342.061 447.754 244.733C425.123 147.406 327.808 86.8365 230.394 109.447C132.981 132.058 72.3576 229.287 94.9884 326.614C117.619 423.941 214.934 484.511 312.348 461.9Z" stroke="white" stroke-width="1.9199" stroke-miterlimit="2.6131" stroke-linecap="round" stroke-dasharray="9.6 9.6"/>
<path d="M292.004 373.762C340.691 362.371 370.917 313.704 359.517 265.061C348.116 216.417 299.406 186.217 250.72 197.607C202.033 208.998 171.806 257.665 183.207 306.308C194.607 354.952 243.317 385.152 292.004 373.762Z" stroke="white" stroke-width="1.9199" stroke-miterlimit="2.6131" stroke-linecap="round" stroke-dasharray="9.6 9.6"/>
<path d="M300.168 735.168C398.902 719.282 466.051 626.435 450.15 527.789C434.25 429.142 341.321 362.053 242.587 377.939C143.854 393.826 76.7044 486.673 92.605 585.319C108.506 683.965 201.435 751.055 300.168 735.168Z" stroke="white" stroke-width="1.9199" stroke-miterlimit="2.6131" stroke-linecap="round" stroke-dasharray="9.6 9.6"/>
<path d="M281.218 646.482C330.925 641.052 366.814 596.39 361.378 546.727C355.943 497.064 311.242 461.207 261.535 466.637C211.828 472.068 175.939 516.729 181.374 566.392C186.81 616.055 231.511 651.912 281.218 646.482Z" stroke="white" stroke-width="1.9199" stroke-miterlimit="2.6131" stroke-linecap="round" stroke-dasharray="9.6 9.6"/>
<path d="M322.842 506.644C444.99 478.223 520.95 356.251 492.505 234.212C464.059 112.173 341.979 36.2793 219.832 64.6996C97.6842 93.12 21.7237 215.092 50.1692 337.131C78.6147 459.171 200.694 535.064 322.842 506.644Z" stroke="white" stroke-width="1.9199" stroke-miterlimit="2.6131" stroke-linecap="round" stroke-dasharray="9.6 9.6"/>
<path d="M311.48 779.884C434.932 757.754 517.054 639.825 494.904 516.483C472.755 393.14 354.722 311.091 231.27 333.221C107.818 355.35 25.6958 473.279 47.8452 596.622C69.9945 719.964 188.028 802.014 311.48 779.884Z" stroke="white" stroke-width="1.9199" stroke-miterlimit="2.6131" stroke-linecap="round" stroke-dasharray="9.6 9.6"/>
</g>
<defs>
<clipPath id="clip0">
<rect width="591" height="843" fill="white"/>
</clipPath>
</defs>
</svg>
