<svg id="Layer_1" data-name="Layer 1" xmlns="http://www.w3.org/2000/svg" viewBox="0 0 841.89 595.28"><defs><style>.cls-1{fill:#337df6;fill-rule:evenodd}</style></defs><path class="cls-1" d="M420.94 0c164.39 0 297.64 133.26 297.64 297.64S585.33 595.28 420.94 595.28 123.31 462 123.31 297.64 256.56 0 420.94 0zm0 28.72C272.42 28.72 152 149.12 152 297.64s120.4 268.92 268.92 268.92 268.93-120.4 268.93-268.92S569.47 28.72 420.94 28.72z"/><path class="cls-1" d="M400.12 59.63c6.87-.59 13.81-.91 20.82-.91v28.46c-6.18 0-12.29.28-18.34.8zM182.94 318.46c-.6-6.86-.92-13.8-.92-20.82h28.46c0 6.18.29 12.29.81 18.34zM441.77 535.65c-6.87.59-13.81.91-20.83.91V508.1c6.19 0 12.3-.28 18.35-.8zM659 276.81c.6 6.87.92 13.81.92 20.83h-28.51c0-6.18-.29-12.3-.81-18.34zM357.85 67.2a244.07 244.07 0 0120.33-4.63l5.09 28c-6.08 1.1-12 2.47-17.9 4.07zM190.51 360.73c-1.81-6.65-3.37-13.42-4.63-20.32l28-5.1q1.67 9.12 4.08 17.9zM484 528.07q-10 2.73-20.33 4.63l-5.09-28c6.08-1.11 12.05-2.48 17.9-4.07zM651.38 234.55c1.81 6.64 3.37 13.42 4.63 20.32L628 260q-1.66-9.12-4.08-17.9zM317.62 82.22q9.33-4.47 19.17-8.19l10 26.63q-8.67 3.27-16.88 7.22zM205.52 401q-4.46-9.33-8.19-19.17l26.64-10c2.18 5.78 4.6 11.41 7.21 16.88zM524.27 513.06c-6.22 3-12.6 5.72-19.17 8.19l-10-26.64q8.67-3.27 16.88-7.21zM636.37 194.32q4.46 9.31 8.19 19.16l-26.64 10a217.46 217.46 0 00-7.21-16.89zM280.73 104.19q8.37-6.06 17.39-11.49l14.63 24.41c-5.3 3.18-10.4 6.57-15.32 10.12zM227.5 437.85q-6.06-8.37-11.49-17.39l24.41-14.63c3.18 5.3 6.57 10.4 10.12 15.32zM561.16 491.08c-5.58 4-11.37 7.89-17.39 11.49l-14.63-24.41q8-4.77 15.32-10.12zM614.39 157.42q6.06 8.39 11.49 17.39l-24.41 14.64a212.44 212.44 0 00-10.12-15.32zM248.37 132.41c4.77-5 9.77-9.78 15.05-14.41l18.77 21.4c-4.65 4.07-9.06 8.32-13.27 12.7zM255.72 470.22c-5-4.77-9.79-9.78-14.41-15.06l21.39-18.76q6.12 7 12.7 13.26zM593.52 462.86q-7.15 7.45-15 14.42l-18.77-21.4q7-6.12 13.26-12.7zM586.17 125.06c5 4.77 9.79 9.78 14.41 15.05l-21.4 18.77q-6.1-7-12.69-13.26zM221.58 166q5.7-8.62 12.23-16.88l22.29 17.69q-5.76 7.26-10.77 14.87zM289.28 497a240.54 240.54 0 01-16.88-12.23l17.7-22.29q7.26 5.76 14.87 10.78zM620.31 429.3q-5.7 8.61-12.23 16.88l-22.29-17.7q5.76-7.26 10.77-14.86zM552.61 98.27c5.74 3.8 11.38 7.87 16.87 12.23l-17.69 22.29Q544.53 127 536.92 122zM201.23 203.79c2.71-6.33 5.7-12.61 9-18.79l25.1 13.41Q231 206.59 227.4 215zM327.1 517.35q-9.51-4.07-18.8-9l13.42-25.1c5.45 2.92 11 5.55 16.56 7.94zM640.66 391.49q-4.06 9.5-9 18.79l-25.1-13.42q4.37-8.17 7.94-16.55zM514.79 77.92a250.26 250.26 0 0118.8 9L520.17 112q-8.17-4.36-16.56-7.93zM188 244.64c1.54-6.72 3.35-13.43 5.5-20.11l27.1 8.71q-2.84 8.82-4.85 17.71zM367.94 530.6q-10.06-2.29-20.1-5.5l8.71-27.1c5.88 1.9 11.79 3.5 17.71 4.85zM653.91 350.64q-2.31 10.08-5.5 20.1l-27.1-8.7q2.84-8.84 4.85-17.71zM474 64.67a242.95 242.95 0 0120.1 5.51l-8.71 27.09c-5.88-1.89-11.79-3.49-17.71-4.85zM182.26 287.19c.3-6.88.89-13.8 1.81-20.76l28.22 3.72c-.81 6.13-1.33 12.22-1.6 18.29zM410.5 536.33c-6.88-.31-13.81-.9-20.76-1.82l3.71-28.21q9.19 1.2 18.29 1.59zM659.63 308.08c-.3 6.89-.89 13.81-1.81 20.77l-28.22-3.72c.81-6.13 1.33-12.23 1.6-18.29zM431.39 59c6.88.31 13.81.9 20.76 1.81L448.44 89c-6.13-.81-12.23-1.33-18.29-1.6zM380.65 147.25a155.63 155.63 0 0140.29-5.25v21.21a134.5 134.5 0 00-34.8 4.56zM310.85 187.54a155.76 155.76 0 0132.26-24.71l10.6 18.36a134.77 134.77 0 00-27.86 21.35zM270.55 257.34a156.16 156.16 0 0115.58-37.54l18.37 10.61a134.42 134.42 0 00-13.5 32.42zM270.55 337.93a156 156 0 01-5.27-40.29h21.2a134.44 134.44 0 004.56 34.8zM310.85 407.73a155.88 155.88 0 01-24.72-32.26l18.37-10.6a134.77 134.77 0 0021.35 27.86zM380.65 448a155.76 155.76 0 01-37.54-15.58l10.6-18.37a134.66 134.66 0 0032.43 13.46zM461.24 448a156.08 156.08 0 01-40.3 5.28V432.1a134.52 134.52 0 0034.81-4.56zM531 407.73a156.15 156.15 0 01-32.26 24.72l-10.6-18.37A134.43 134.43 0 00516 392.73zM571.34 337.94a156.26 156.26 0 01-15.58 37.53l-18.37-10.6a134.75 134.75 0 0013.46-32.42zM571.34 257.34a156.14 156.14 0 015.27 40.3h-21.2a135 135 0 00-4.56-34.81zM531 187.54a156.15 156.15 0 0124.72 32.26l-18.37 10.61A134.57 134.57 0 00516 202.54zM461.24 147.25a155.76 155.76 0 0137.54 15.58l-10.6 18.36a134.62 134.62 0 00-32.43-13.45z"/><path class="cls-1" d="M420.94 107.48c105 0 190.16 85.14 190.16 190.16S526 487.79 420.94 487.79s-190.15-85.13-190.15-190.15 85.13-190.16 190.15-190.16zm0 17.52a172.64 172.64 0 10172.64 172.64A172.64 172.64 0 00420.94 125z"/><path class="cls-1" d="M420.94 175.57a122.07 122.07 0 11-122.07 122.07 122.08 122.08 0 01122.07-122.07zm0 7.06a115 115 0 10115 115 115 115 0 00-115-115z"/></svg>