<svg width="694" height="659" viewBox="0 0 694 659" fill="none" xmlns="http://www.w3.org/2000/svg">
<g opacity="0.5">
<g clip-path="url(#clip0)">
<path d="M258.039 424.496C261.206 423.915 263.307 420.882 262.736 417.713C262.161 414.549 259.131 412.451 255.964 413.023C252.8 413.605 250.699 416.639 251.267 419.806C251.845 422.972 254.875 425.07 258.039 424.496Z" fill="url(#paint0_linear)"/>
<path d="M314.156 295.034C294.024 324.104 301.263 364.114 330.295 384.219C359.327 404.324 399.326 397.028 419.458 367.957C439.59 338.887 432.349 298.879 403.317 278.774C374.285 258.669 334.287 265.963 314.156 295.034ZM409.886 361.329C393.414 385.114 360.688 391.082 336.934 374.632C313.18 358.182 307.256 325.448 323.728 301.662C340.198 277.879 372.924 271.911 396.678 288.361C420.433 304.811 426.357 337.545 409.886 361.329Z" fill="url(#paint1_linear)"/>
<path d="M146.806 462.221C147.364 465.379 150.371 467.491 153.534 466.939L192.593 460.117C199.27 458.899 204.516 453.885 206.301 447.603L214.631 446.24C219.119 445.502 223.649 446.519 227.39 449.11L291.021 493.176C302.31 500.993 315.986 504.041 329.534 501.761C330.091 501.667 324.895 503.06 408.904 479.896C421.307 476.542 428.682 463.716 425.343 451.299C422.011 438.98 409.327 431.635 397.001 434.836L348.626 444.345C348.104 437.48 344.562 430.974 338.686 426.904L285.311 389.941C279.919 381.5 272.976 374.308 264.661 368.55C241.612 352.588 214.104 349.31 189.463 361.817C185.51 357.802 179.757 355.857 173.91 356.923L135.304 364.022C132.151 364.602 130.056 367.62 130.614 370.778L146.806 462.221ZM258.021 378.133C265.353 383.21 271.418 389.597 276.052 397.118C276.474 397.803 277.032 398.392 277.692 398.849L332.047 436.491C337.237 440.085 338.686 447.359 334.984 452.706C331.322 457.992 324.051 459.318 318.771 455.662L279.718 428.617C277.076 426.787 273.446 427.449 271.613 430.095C269.78 432.743 270.438 436.372 273.081 438.202L312.133 465.247C322.691 472.558 337.234 469.906 344.555 459.334C345.139 458.491 345.658 457.615 346.122 456.712C392.92 447.51 399.51 446.227 399.81 446.144C406.014 444.475 412.424 448.157 414.097 454.348C415.765 460.554 412.079 466.968 405.851 468.654L327.329 490.314C316.887 492 306.359 489.616 297.659 483.591L234.027 439.525C227.792 435.207 220.236 433.507 212.759 434.738L205.969 435.852L194.472 372.337C214.637 361.943 237.566 363.968 258.021 378.133ZM175.993 368.388C178.666 367.901 181.287 369.294 182.387 371.818C182.865 372.898 181.988 369.082 195.215 441.871C195.801 445.112 193.584 448.093 190.563 448.644L157.264 454.46L143.095 374.436L175.993 368.388Z" fill="url(#paint2_linear)"/>
<path d="M380.978 298.762L377.088 304.378C370.147 302.498 362.455 305.054 358.128 311.303C352.638 319.231 354.611 330.143 362.53 335.627C365.169 337.454 365.827 341.091 363.997 343.733C362.167 346.376 358.531 347.039 355.892 345.211C353.848 343.796 352.53 340.979 352.188 337.282C351.889 334.077 349.051 331.726 345.849 332.027C342.645 332.33 340.29 335.171 340.588 338.376C341.037 343.195 342.575 347.402 345.022 350.682L341.149 356.276C339.315 358.924 339.973 362.552 342.616 364.382C345.258 366.213 348.887 365.552 350.721 362.904L354.61 357.288C361.552 359.167 369.244 356.611 373.571 350.363C379.062 342.434 377.087 331.524 369.168 326.04C366.53 324.212 365.871 320.576 367.701 317.933C369.531 315.291 373.168 314.626 375.807 316.453C377.504 317.628 378.693 319.735 379.249 322.544C379.874 325.701 382.939 327.749 386.094 327.121C389.25 326.491 391.3 323.423 390.677 320.267C389.878 316.231 388.369 313.215 386.684 310.973L390.55 305.391C392.383 302.743 391.726 299.112 389.084 297.282C386.441 295.452 382.811 296.114 380.978 298.762Z" fill="url(#paint3_linear)"/>
</g>
<path d="M521.607 173.26C520.556 170.852 517.256 169.499 514.223 170.241L476.773 179.397C470.38 181.002 465.998 185.43 465.232 190.505L457.231 192.387C452.921 193.403 448.291 193.054 444.191 191.4L374.446 163.269C362.072 158.278 348.099 157.243 335.096 160.352C334.561 160.48 339.466 158.884 260.263 185.202C248.559 189.036 243.315 199.766 248.574 209.126C253.811 218.409 267.486 222.894 279.138 219.187L325.352 207.019C326.954 212.324 331.478 217.052 337.919 219.65L396.422 243.247C403.077 249.303 411.065 254.232 420.179 257.908C445.443 268.098 473.096 267.954 495.424 255.779C499.958 258.523 505.942 259.475 511.54 258.069L548.5 248.741C551.517 247.979 553.107 245.419 552.056 243.01L521.607 173.26ZM425.211 249.78C417.175 246.538 410.182 242.152 404.419 236.739C403.895 236.246 403.251 235.841 402.527 235.549L342.95 211.519C337.261 209.225 334.68 203.692 337.486 199.158C340.261 194.674 347.224 192.925 353.011 195.259L395.816 212.524C398.713 213.693 402.188 212.82 403.577 210.576C404.967 208.33 403.743 205.564 400.846 204.395L358.041 187.13C346.469 182.463 332.543 185.96 326.995 194.926C326.552 195.641 326.18 196.375 325.864 197.125C281.157 208.898 274.861 210.546 274.577 210.64C268.722 212.552 261.816 210.308 259.185 205.643C256.557 200.965 259.178 195.599 265.055 193.673L339.083 169.066C349.117 166.726 359.879 167.552 369.415 171.398L439.161 199.529C445.995 202.286 453.718 202.87 460.899 201.176L467.421 199.64L488.817 248.063C470.571 258.151 447.631 258.823 425.211 249.78ZM507.67 249.33C505.11 249.972 502.304 249.142 500.82 247.281C500.177 246.486 501.647 249.377 477.076 193.889C475.984 191.418 477.699 188.875 480.592 188.148L512.519 180.342L539.165 241.381L507.67 249.33Z" fill="url(#paint4_linear)"/>
</g>
<defs>
<linearGradient id="paint0_linear" x1="260.322" y1="413.967" x2="253.683" y2="423.553" gradientUnits="userSpaceOnUse">
<stop stop-color="#B72563"/>
<stop offset="1" stop-color="#F9A86D"/>
</linearGradient>
<linearGradient id="paint1_linear" x1="403.317" y1="278.774" x2="330.295" y2="384.219" gradientUnits="userSpaceOnUse">
<stop stop-color="#B72563"/>
<stop offset="1" stop-color="#F9A86D"/>
</linearGradient>
<linearGradient id="paint2_linear" x1="248.808" y1="490.652" x2="334.076" y2="340.386" gradientUnits="userSpaceOnUse">
<stop offset="0.165752" stop-color="#B72563"/>
<stop offset="1" stop-color="#F9A86D"/>
</linearGradient>
<linearGradient id="paint3_linear" x1="388.931" y1="297.176" x2="342.463" y2="364.276" gradientUnits="userSpaceOnUse">
<stop stop-color="#B72563"/>
<stop offset="1" stop-color="#F9A86D"/>
</linearGradient>
<linearGradient id="paint4_linear" x1="373.076" y1="264.116" x2="395.185" y2="177.694" gradientUnits="userSpaceOnUse">
<stop stop-color="#F9A86D"/>
<stop offset="1" stop-color="#B72563"/>
</linearGradient>
<clipPath id="clip0">
<rect x="260.439" y="179.829" width="297.598" height="298.577" transform="rotate(34.7032 260.439 179.829)" fill="white"/>
</clipPath>
</defs>
</svg>
