<svg width="17" height="24" fill="none" xmlns="http://www.w3.org/2000/svg"><path d="M8.364 0C3.752 0 0 3.9 0 8.692c0 5.948 7.485 14.68 7.803 15.048.3.347.822.346 1.121 0 .319-.368 7.803-9.1 7.803-15.048C16.727 3.899 12.975 0 8.364 0zm0 13.065c-2.32 0-4.208-1.962-4.208-4.373 0-2.411 1.887-4.373 4.208-4.373 2.32 0 4.207 1.962 4.207 4.373 0 2.411-1.887 4.373-4.207 4.373z" fill="url(#paint0_linear)"/><defs><linearGradient id="paint0_linear" x1="8.364" y1="27" x2="16.783" y2="12.031" gradientUnits="userSpaceOnUse"><stop stop-color="#2E70ED"/><stop offset="1" stop-color="#449DF8"/></linearGradient></defs></svg>