<svg width="16" height="16" fill="none" xmlns="http://www.w3.org/2000/svg"><path d="M15.567 9.586v5.566H12.34V9.96c0-1.303-.466-2.194-1.634-2.194-.892 0-1.422.6-1.655 1.18-.085.208-.107.496-.107.787v5.42H5.717s.043-8.795 0-9.705h3.227v1.375l-.022.032h.022v-.032c.429-.66 1.193-1.603 2.908-1.603 2.123 0 3.715 1.387 3.715 4.367zM2.34.77C1.237.769.515 1.493.515 2.445c0 .932.7 1.677 1.783 1.677h.021c1.126 0 1.826-.745 1.826-1.677C4.123 1.493 3.445.77 2.34.77zM.706 15.152h3.226V5.447H.706v9.705z" fill="#F1F2F2"/></svg>