<svg width="27" height="27" fill="none" xmlns="http://www.w3.org/2000/svg"><g clip-path="url(#clip0)"><path d="M23.045 0H3.955A3.96 3.96 0 000 3.955v19.09A3.96 3.96 0 003.955 27h19.09A3.96 3.96 0 0027 23.045V3.955A3.96 3.96 0 0023.045 0zm-13.5 21.41H6.38V10.336h3.164V21.41zm0-12.656H6.38V5.59h3.164v3.164zM20.619 21.41h-3.164v-6.328c0-.872-.71-1.582-1.582-1.582-.872 0-1.582.71-1.582 1.582v6.328h-3.164V10.336h3.164v.596c.829-.257 1.367-.596 2.373-.596 2.146.002 3.955 1.927 3.955 4.202v6.872z" fill="#fff"/></g><defs><clipPath id="clip0"><path fill="#fff" d="M0 0h27v27H0z"/></clipPath></defs></svg>