<svg width="151" height="49" viewBox="0 0 151 49" fill="none" xmlns="http://www.w3.org/2000/svg">
<path d="M26.0683 42H10.2387C6.46371 42 2.3185 42 0 42C0 40.1605 0 36.5321 0 33.2858V7H26.0683V12.7466H6.55829V20.9193H17.4563V26.6659H6.55829V32.824C6.55829 34.1219 6.55829 35.5075 6.55829 36.2534C7.72024 36.2534 9.1362 36.2534 10.7089 36.2534H26.0683V42ZM90.0217 31.5579C90.0217 34.8147 88.8084 37.3682 86.3791 39.2209C83.9525 41.0736 80.8504 42 77.0781 42C74.0921 42 71.2062 41.1957 68.4148 39.5846C67.0394 38.7458 65.9071 37.562 65.0208 36.0304C64.1345 34.4989 63.6913 32.7523 63.6913 30.7855L69.8929 30.4961C69.8929 32.2347 70.6468 33.5884 72.1574 34.5546C73.6652 35.5234 75.3379 36.0065 77.1754 36.0065C81.2773 36.0065 83.3283 34.5891 83.3283 31.7516C83.3283 29.4317 81.934 28.0621 79.1453 27.6427L73.4355 27.0641C70.582 26.6447 68.3175 25.644 66.6448 24.0647C64.9722 22.4854 64.1345 20.2133 64.1345 17.2484C64.1345 14.2835 65.3316 11.8362 67.7284 9.90118C70.1226 7.96618 73.1491 7 76.8079 7C80.4667 7 83.4094 7.91043 85.6414 9.73131C87.8735 11.5522 88.9868 13.8986 88.9868 16.7653L82.8852 17.0546C82.3285 14.2516 80.4072 12.8501 77.1267 12.8501C75.1271 12.8501 73.5598 13.2695 72.4276 14.1083C71.2953 14.9444 70.7279 15.9371 70.7279 17.0811C70.7279 18.2252 71.1386 19.1276 71.9601 19.7886C72.7816 20.4468 73.7976 20.8583 75.0109 21.0202L80.6207 21.6015C86.8871 22.4376 90.0217 25.7582 90.0217 31.5579ZM116.479 25.3706V23.5816C116.479 20.4867 116.085 18.0234 115.298 16.1866C114.38 14.0579 112.412 12.9961 109.391 12.9961C106.34 12.9961 104.357 14.0579 103.438 16.1866C102.682 17.9252 102.306 20.3911 102.306 23.5816V25.3706C102.306 29.5273 102.895 32.3329 104.076 33.7822C104.535 34.3953 105.216 34.9182 106.119 35.3536C107.021 35.7889 108.105 36.0065 109.367 36.0065C110.632 36.0065 111.704 35.7968 112.591 35.3774C113.477 34.9581 114.166 34.4431 114.658 33.83C115.15 33.2195 115.528 32.4126 115.79 31.4145C116.249 29.8352 116.479 27.8206 116.479 25.3706ZM123.321 22.9047V25.5166C123.321 31.2845 122.213 35.4757 119.997 38.0849C117.784 40.6967 114.231 42 109.343 42C104.454 42 100.92 40.6967 98.7364 38.0849C96.5557 35.4757 95.464 31.2367 95.464 25.3706V22.857C95.464 17.5058 96.5719 13.527 98.7877 10.9151C101.001 8.30593 104.511 7 109.318 7C114.126 7 117.66 8.32186 119.924 10.9656C122.189 13.6066 123.321 17.5881 123.321 22.9047ZM151 42H140.391C136.386 42 133.492 41.2382 131.709 39.7146C129.923 38.191 129.031 35.7092 129.031 32.2666V7H135.986V32.2666C135.986 33.6442 136.303 34.5944 136.938 35.1173C137.57 35.6429 138.721 35.9057 140.391 35.9057H151" fill="white"/>
<path fill-rule="evenodd" clip-rule="evenodd" d="M58.6265 32.4729H58.6562V42.3264H61L55.3242 49L49.6484 42.3264H51.9922V32.4729H51.9895C51.9895 30.9235 51.4602 29.4957 50.5773 28.3654C52.732 27.6489 54.6951 26.5078 56.3611 25.0368C57.7895 27.1594 58.6265 29.7175 58.6265 32.4729ZM49.6484 6.67088H51.9922V12.4927H51.9895C51.9868 16.0161 49.2623 18.9013 45.8088 19.1555C45.644 19.15 45.4793 19.1473 45.3146 19.1473C37.962 19.1473 32.0054 25.1125 32 32.4729V42.3264H38.6641V32.4729H38.6371C38.6398 28.9468 41.3696 26.0616 44.8259 25.8101C44.9879 25.8155 45.1499 25.8209 45.3146 25.8209C52.6645 25.8209 58.6238 19.8531 58.6265 12.4927H58.6562V6.67088H61L55.3242 0L49.6484 6.67088ZM40.0331 16.5812C39.1609 15.4509 38.6398 14.034 38.6371 12.4927H38.6641V6.67088H32V12.4927C32.0027 15.24 32.8344 17.7926 34.2547 19.9126C35.9207 18.4416 37.881 17.2978 40.0331 16.5812Z" fill="#3887F6"/>
</svg>
