<svg width="26" height="20" fill="none" xmlns="http://www.w3.org/2000/svg"><path d="M26 16.25c0 .57-.16 1.098-.417 1.563l-8.21-9.185 8.12-7.104c.317.501.507 1.09.507 1.726v13zm-13-5.954L24.3.409A3.21 3.21 0 0022.75 0H3.25c-.564 0-1.086.156-1.548.41L13 10.295zm3.15-.598l-2.615 2.29a.811.811 0 01-1.07 0L9.85 9.698 1.536 19a3.21 3.21 0 001.714.5h19.5a3.21 3.21 0 001.714-.5L16.15 9.698zM.506 1.524A3.227 3.227 0 000 3.25v13c0 .57.16 1.098.417 1.563l8.209-9.186-8.12-7.103z" fill="url(#paint0_linear)"/><defs><linearGradient id="paint0_linear" x1="12.235" y1="19.882" x2="35.176" y2="3.824" gradientUnits="userSpaceOnUse"><stop stop-color="#2E70ED"/><stop offset="1" stop-color="#6DACEC"/></linearGradient></defs></svg>