<svg width="23" height="33" fill="none" xmlns="http://www.w3.org/2000/svg"><path d="M11.5 0C5.159 0 0 5.361 0 11.951c0 8.179 10.291 20.185 10.73 20.692a1.01 1.01 0 001.54 0C12.71 32.136 23 20.13 23 11.951 23 5.361 17.841 0 11.5 0zm0 17.964c-3.19 0-5.786-2.697-5.786-6.013 0-3.315 2.596-6.013 5.786-6.013 3.19 0 5.786 2.698 5.786 6.013 0 3.316-2.596 6.013-5.786 6.013z" fill="url(#paint0_linear)"/><defs><linearGradient id="paint0_linear" x1="11.5" y1="37.125" x2="23.076" y2="16.543" gradientUnits="userSpaceOnUse"><stop stop-color="#2E70ED"/><stop offset="1" stop-color="#449DF8"/></linearGradient></defs></svg>