<svg width="23" height="23" fill="none" xmlns="http://www.w3.org/2000/svg"><g clip-path="url(#clip0)"><path d="M12.051 13.312l-3.627-1.517a.726.726 0 00-.676.065.716.716 0 00-.32.598v5.51a.717.717 0 001.25.484l3.628-3.994a.717.717 0 00-.255-1.146z" fill="#2E70ED"/><path d="M22.77.192a.72.72 0 00-.75-.143L.459 8.435a.718.718 0 00.005 1.341l17.01 6.47a.718.718 0 00.944-.46L22.97.928a.722.722 0 00-.199-.738z" fill="#4D93F5"/><path d="M7.427 12.458L18.21 4.791l-8.067 8.945-2.715-1.278zM7.893 19.026a.958.958 0 01-.797-1.488 8.6 8.6 0 00.437-.727.959.959 0 011.706.875s-.195.382-.546.911a.957.957 0 01-.8.43z" fill="#2E70ED"/></g><defs><clipPath id="clip0"><path fill="#fff" d="M0 0h23v23H0z"/></clipPath></defs></svg>