<svg width="684" height="1042" viewBox="0 0 684 1042" fill="none" xmlns="http://www.w3.org/2000/svg">
<g opacity="0.1">
<g clip-path="url(#clip0)">
<path d="M334.593 221.457V252.475C334.593 253.918 343.238 251.754 354.124 247.786L762.679 94.1371C793.417 82.5954 819.992 70.3324 819.992 68.1683V12.2631C819.992 9.73838 793.417 19.4767 762.679 32.8218L354.124 210.276C343.238 214.964 334.593 220.014 334.593 221.457Z" fill="#84B4EB"/>
<path d="M64.9971 388.451V429.207C64.9971 431.011 71.4008 431.372 79.4054 430.289L464.267 371.138C501.728 365.367 535.027 356.711 535.027 352.383V255.721C535.027 251.393 501.408 257.525 464.267 268.706L79.4054 380.877C71.4008 383.401 64.9971 386.647 64.9971 388.451Z" fill="#84B4EB"/>
<path d="M16.0088 614.596V636.958C16.0088 638.04 18.8904 640.204 22.7327 642.368L140.24 704.044C147.604 708.012 154.008 710.176 154.008 708.372V675.19C154.008 673.747 147.604 669.78 140.24 666.534L22.7327 615.678C18.8904 613.875 16.0088 613.514 16.0088 614.596Z" fill="#84B4EB"/>
<path d="M51.5488 390.615V405.763C51.5488 406.484 53.7901 406.484 56.6718 405.763L133.836 387.369C137.999 386.287 141.521 384.844 141.521 383.762V364.646C141.521 363.924 137.999 364.285 133.836 365.367L56.6718 387.729C53.7901 388.451 51.5488 389.893 51.5488 390.615Z" fill="#84B4EB"/>
<path d="M110.144 456.258V497.736C110.144 499.54 117.508 501.343 126.793 501.704L585.937 521.18C632.044 522.984 673.347 521.18 673.347 516.492V414.78C673.347 410.092 632.044 410.092 585.937 413.698L126.793 451.57C117.508 452.291 110.144 454.455 110.144 456.258Z" fill="#84B4EB"/>
<path d="M75.8838 331.824V347.334C75.8838 348.055 78.4453 347.694 81.3269 346.612L167.136 313.43C171.939 311.626 175.781 309.462 175.781 308.38V288.543C175.781 287.822 171.939 288.543 167.136 290.707L81.3269 328.218C78.4453 329.66 75.8838 331.103 75.8838 331.824Z" fill="#84B4EB"/>
<path d="M134.797 438.585V458.422C134.797 459.144 138.639 459.865 143.122 459.505L282.722 450.848C291.047 450.488 298.091 449.045 298.091 447.602V419.83C298.091 418.748 291.047 418.387 282.722 419.469L143.122 435.7C138.639 436.421 134.797 437.503 134.797 438.585Z" fill="#84B4EB"/>
<path d="M671.525 1042C658.378 1035.52 639.316 1025.43 618.939 1013.55L191.677 765.022C181.817 759.259 173.929 753.496 173.929 751.695V714.597C173.929 712.796 181.817 715.317 191.677 720.36L618.939 929.264C656.406 947.633 689.273 966.362 689.273 969.964V1042H671.525Z" fill="#84B4EB"/>
<path d="M339.715 577.086V612.793C339.715 614.236 349.641 617.842 362.128 620.367L888.19 731.817C932.376 741.194 971.438 746.965 971.438 743.719V671.583C971.438 668.337 932.696 660.042 888.19 653.549L362.128 577.446C349.641 576.004 339.715 575.643 339.715 577.086Z" fill="#84B4EB"/>
<path d="M57.6328 473.931V489.08C57.6328 489.801 59.8741 490.523 62.7558 490.523L142.161 491.605C146.644 491.605 150.166 490.883 150.166 490.162V470.685C150.166 469.964 146.644 469.243 142.161 469.243L62.7558 472.489C59.8741 472.489 57.6328 473.21 57.6328 473.931Z" fill="#84B4EB"/>
<path d="M156.891 323.889V339.398C156.891 340.12 159.772 339.759 163.614 338.316L268.955 303.691C274.718 301.888 279.841 299.363 279.841 298.642V278.804C279.841 278.083 275.039 279.165 268.955 281.329L163.614 320.282C159.772 321.725 156.891 323.168 156.891 323.889Z" fill="#84B4EB"/>
<path d="M55.0723 421.994V438.585C55.0723 439.306 57.6337 439.667 60.5154 439.306L149.206 427.404C154.329 426.683 158.492 425.24 158.492 424.518V402.517C158.492 401.435 154.329 401.435 149.206 402.517L60.5154 419.83C57.6337 420.19 55.0723 421.272 55.0723 421.994Z" fill="#84B4EB"/>
<path d="M0 563.38V590.431C0 591.513 3.52203 594.038 7.68442 595.48L155.289 652.828C165.535 656.796 174.18 658.599 174.18 656.435V612.071C174.18 610.268 165.535 605.94 155.289 603.415L7.68442 563.38C3.52203 561.937 0 562.298 0 563.38Z" fill="#84B4EB"/>
<path d="M43.8662 554.363V566.987C43.8662 567.708 45.7873 568.429 48.0286 569.151L108.543 584.66C111.745 585.381 114.307 585.742 114.307 585.021V569.511C114.307 568.79 111.745 567.708 108.543 566.987L48.0286 554.002C45.4671 553.642 43.8662 553.642 43.8662 554.363Z" fill="#84B4EB"/>
<path d="M772.925 1042L695.12 1000.88C680.392 993.308 668.865 986.095 668.865 984.652V957.601C668.865 956.519 680.392 961.208 695.12 968.422L843.366 1042H772.925Z" fill="#D6D6D6"/>
<path d="M50.2686 526.951V539.214C50.2686 539.935 52.1897 540.657 54.4309 541.017L114.305 551.116C117.507 551.477 120.069 551.477 120.069 550.756V535.607C120.069 534.886 117.507 534.165 114.305 533.804L54.4309 526.59C52.1897 526.23 50.2686 526.59 50.2686 526.951Z" fill="#D6D6D6"/>
<path d="M278.561 687.814V705.848C278.561 706.569 283.043 709.094 288.486 711.258L450.499 775.819C459.785 779.426 467.789 781.951 467.789 780.869V757.064C467.789 755.982 459.785 752.375 450.499 748.768L288.486 689.978C283.043 687.814 278.561 687.092 278.561 687.814Z" fill="#D6D6D6"/>
<path d="M46.4268 657.156V667.976C46.4268 668.337 48.0277 669.78 49.9488 670.862L100.538 699.716C103.099 701.159 105.341 701.88 105.341 701.519V688.896C105.341 688.174 103.099 686.732 100.538 685.289L49.9488 658.599C48.0277 657.156 46.4268 656.795 46.4268 657.156Z" fill="#D6D6D6"/>
<path d="M61.7949 501.343V511.081C61.7949 511.442 63.3958 511.803 64.9968 512.163L111.103 515.77C113.345 516.131 115.266 515.77 115.266 515.049V503.868C115.266 503.507 113.345 502.786 111.103 502.786L64.9968 500.622C63.0757 500.622 61.7949 500.982 61.7949 501.343Z" fill="#D6D6D6"/>
<path d="M73.002 620.727V634.433C73.002 635.155 75.2432 636.597 77.8047 637.679L149.846 668.698C153.688 670.501 156.89 671.222 156.89 670.501V652.828C156.89 652.106 153.688 650.303 149.846 648.86L77.8047 621.088C75.2432 620.367 73.002 620.006 73.002 620.727Z" fill="#D6D6D6"/>
<path d="M974 542.821L587.858 525.148C572.81 524.426 560.963 522.623 560.963 521.18V489.801C560.963 488.359 572.81 487.277 587.858 487.277L974 488.359V542.821Z" fill="#D6D6D6"/>
<path d="M105.021 673.387V691.06C105.021 691.781 107.902 693.945 111.744 696.11L220.287 754.9C226.69 758.146 231.813 760.31 231.813 759.228V735.784C231.813 734.702 226.69 731.456 220.287 728.21L111.744 675.19C107.902 673.387 105.021 672.305 105.021 673.387Z" fill="#D6D6D6"/>
<path d="M51.2295 365.006V375.105C51.2295 375.466 52.8304 375.466 54.4313 374.745L101.498 359.236C103.74 358.514 105.981 357.432 105.981 356.711V345.169C105.981 344.808 104.06 344.808 101.498 345.89L54.4313 362.842C52.8304 363.564 51.2295 364.646 51.2295 365.006Z" fill="#3D8EF7"/>
<path d="M354.764 637.319V665.452C354.764 666.534 362.768 670.141 373.014 673.026L731.941 776.901C757.235 784.115 779.008 788.804 779.008 786.64V739.391C779.008 737.227 757.235 730.374 731.941 724.242L373.014 639.122C362.768 636.958 354.764 636.237 354.764 637.319Z" fill="#3D8EF7"/>
<path d="M59.2344 570.233V601.612C59.2344 603.055 64.0371 605.94 70.1206 608.104L296.171 688.175C313.14 694.306 327.869 697.552 327.869 695.027V638.401C327.869 635.876 313.14 630.105 296.171 626.138L70.1206 570.594C64.0371 568.79 59.2344 568.79 59.2344 570.233Z" fill="#3D8EF7"/>
<path d="M195.632 495.212V528.755C195.632 530.198 202.676 532.001 211.641 533.083L569.927 568.069C598.423 570.954 623.398 570.954 623.398 568.069V504.589C623.398 501.704 598.423 499.179 569.927 498.458L211.641 492.687C202.676 492.687 195.632 493.769 195.632 495.212Z" fill="#3D8EF7"/>
<path d="M974.001 118.303C955.75 125.155 929.495 133.451 901.319 141.747L326.909 309.101C314.101 312.708 303.855 314.512 303.855 312.708V274.476C303.855 272.673 314.101 267.623 326.909 262.935L901.319 51.577C929.495 41.1174 955.43 32.4611 974.001 27.0509V118.303Z" fill="#3D8EF7"/>
<path d="M165.535 526.951V545.707C165.535 546.428 169.377 547.871 173.86 548.231L309.938 567.347C317.943 568.429 324.667 568.429 324.667 567.347V542.1C324.667 541.018 317.943 539.575 309.938 538.854L173.86 526.591C169.377 525.509 165.535 525.869 165.535 526.951Z" fill="#3D8EF7"/>
<path d="M296.49 743.359V761.753C296.49 762.474 301.293 765.36 307.056 768.245L480.276 852.283C490.522 857.333 498.847 860.579 498.847 859.136V834.249C498.847 833.167 490.202 828.479 480.276 823.79L307.056 746.605C300.973 744.08 296.49 742.637 296.49 743.359Z" fill="#3D8EF7"/>
<path d="M51.2295 451.57V461.669C51.2295 462.029 52.8304 462.39 54.4313 462.39L101.498 459.144C103.74 459.144 105.981 458.422 105.981 458.062V446.52C105.981 446.159 104.06 445.799 101.498 446.159L54.4313 450.488C52.8304 450.848 51.2295 451.209 51.2295 451.57Z" fill="#3D8EF7"/>
</g>
</g>
<g opacity="0.2">
<g clip-path="url(#clip1)">
<path d="M84.9176 403.1C93.8063 401.084 101.425 415.193 101.425 434.593C101.425 453.992 93.8063 469.613 84.9176 469.109C76.7909 468.857 70.4418 454.496 70.4418 437.364C70.4418 420.232 76.7909 404.863 84.9176 403.1ZM84.9176 398.817C75.775 401.084 68.6641 418.468 68.6641 437.616C68.6641 456.764 75.521 472.888 84.9176 473.392C94.8222 473.896 103.711 456.512 103.711 434.341C103.711 412.17 94.8222 396.297 84.9176 398.817Z" fill="url(#paint0_radial)"/>
<path d="M84.9181 395.037C96.0924 392.014 105.743 409.398 105.743 434.089C105.743 458.779 96.0924 477.927 84.9181 477.171C74.7596 476.415 67.1407 458.779 67.1407 437.868C67.1407 416.956 74.7596 397.809 84.9181 395.037ZM84.9181 393.274C74.5056 396.045 66.6328 415.949 66.6328 437.868C66.6328 459.535 74.5056 477.927 84.9181 478.935C96.3464 479.69 106.505 459.787 106.505 434.089C106.505 408.39 96.3464 390.25 84.9181 393.274Z" fill="url(#paint1_radial)"/>
<path d="M85.679 453.489L84.1553 453.741V435.601L85.679 435.349V453.489Z" fill="url(#paint2_radial)"/>
<path d="M88.7268 417.712L84.9174 431.569L81.1079 418.972L78.8223 419.476L84.1555 436.86L85.6792 436.608L91.2664 417.46L88.7268 417.712Z" fill="url(#paint3_radial)"/>
<path d="M90.2504 436.86L79.584 437.868V434.089L90.2504 433.081V436.86Z" fill="url(#paint4_radial)"/>
<path d="M90.2504 444.167L79.584 444.922V441.143L90.2504 440.387V444.167Z" fill="url(#paint5_radial)"/>
<path d="M47.0786 392.769C50.3801 391.762 53.1737 397.808 53.1737 406.374C53.1737 414.94 50.3801 422.499 47.0786 423.255C43.7771 423.758 41.2375 417.712 41.2375 409.398C41.2375 401.335 43.7771 393.777 47.0786 392.769ZM47.0786 390.754C43.5231 392.014 40.4756 400.328 40.4756 409.65C40.4756 418.72 43.2692 425.774 47.0786 425.27C50.888 424.514 53.9356 416.2 53.9356 406.374C53.9356 396.549 50.888 389.494 47.0786 390.754Z" fill="url(#paint6_radial)"/>
<path d="M47.0788 388.99C51.1422 387.479 54.6976 395.037 54.6976 405.871C54.6976 416.704 51.1422 426.026 47.0788 426.782C43.0154 427.538 39.9678 419.727 39.9678 409.65C39.7139 399.824 43.0154 390.502 47.0788 388.99ZM47.0788 388.234C43.0154 389.746 39.7139 399.32 39.7139 409.902C39.7139 420.483 43.0154 428.294 47.0788 427.79C51.3961 427.034 55.2056 417.46 55.2056 406.123C55.2056 394.785 51.3961 386.723 47.0788 388.234Z" fill="url(#paint7_radial)"/>
<path d="M47.3332 415.948L46.5713 416.2V407.886L47.3332 407.634V415.948Z" fill="url(#paint8_radial)"/>
<path d="M48.3495 399.572L47.0797 405.871L45.5559 400.328L44.54 400.58L46.5717 408.39L47.3336 408.138L49.3653 399.32L48.3495 399.572Z" fill="url(#paint9_radial)"/>
<path d="M49.1113 408.138L45.0479 409.146V407.382L49.1113 406.375V408.138Z" fill="url(#paint10_radial)"/>
<path d="M49.1113 411.414L45.0479 412.421V410.658L49.1113 409.65V411.414Z" fill="url(#paint11_radial)"/>
<path d="M123.013 502.113C130.378 503.121 136.473 515.466 136.473 529.071C136.473 542.676 130.378 551.998 123.013 549.479C116.156 547.211 110.823 535.37 110.823 522.773C110.569 510.428 115.902 501.106 123.013 502.113ZM123.013 499.09C115.14 498.082 109.299 508.412 109.299 522.521C109.299 536.63 115.394 549.983 123.013 552.754C131.14 555.526 138.251 545.196 138.251 529.575C138.251 513.955 131.14 500.35 123.013 499.09Z" fill="url(#paint12_radial)"/>
<path d="M123.013 496.319C132.156 497.578 140.029 512.695 140.029 529.827C140.029 546.959 132.156 558.297 123.013 555.274C114.379 552.25 108.029 537.638 108.029 522.017C108.029 506.396 114.379 495.311 123.013 496.319ZM123.013 495.059C114.125 493.799 107.268 506.145 107.268 522.017C107.268 538.141 114.125 553.51 123.013 556.533C132.41 559.809 140.791 547.967 140.791 530.079C140.791 512.191 132.41 496.319 123.013 495.059Z" fill="url(#paint13_radial)"/>
<path d="M123.267 526.804L119.712 525.796V512.191L123.267 512.947C125.299 513.451 127.077 516.726 127.077 520.757C127.077 524.536 125.299 527.308 123.267 526.804ZM120.982 523.529L123.267 524.033C124.537 524.284 125.553 522.521 125.553 520.253C125.553 517.986 124.537 515.718 123.267 515.466L120.982 514.963V523.529Z" fill="url(#paint14_radial)"/>
<path d="M124.283 539.401L119.712 538.141V523.529L124.283 524.536C126.569 525.04 128.347 528.819 128.347 533.102C128.347 537.134 126.569 539.905 124.283 539.401ZM120.982 535.874L124.029 536.63C125.553 537.134 126.569 535.118 126.569 532.599C126.569 529.827 125.299 527.56 124.029 527.056L120.982 526.3V535.874Z" fill="url(#paint15_radial)"/>
<path d="M123.776 541.669L122.252 541.165V510.428L123.776 510.68V541.669Z" fill="url(#paint16_radial)"/>
<path d="M17.1108 458.275C20.4123 458.275 23.2059 466.337 23.2059 476.163C23.2059 485.989 20.4123 493.547 17.1108 492.791C14.0632 492.288 11.5236 484.225 11.5236 474.903C11.5236 465.833 14.0632 458.275 17.1108 458.275ZM17.1108 456.008C13.5553 456.008 10.7617 464.574 10.7617 474.903C10.7617 485.233 13.5553 494.303 17.1108 495.059C20.9202 495.815 23.9678 487.501 23.9678 476.163C23.9678 464.826 20.9202 456.008 17.1108 456.008Z" fill="url(#paint17_radial)"/>
<path d="M17.1109 453.992C21.1743 453.992 24.7298 463.818 24.7298 476.163C24.7298 488.508 21.1743 497.83 17.1109 497.074C13.3015 496.319 10.254 486.241 10.254 474.903C10.254 463.566 13.3015 454.244 17.1109 453.992ZM17.1109 453.236C13.0475 453.236 10 463.062 10 474.903C10 486.745 13.0475 497.074 17.1109 498.082C21.4283 499.09 24.9838 489.264 24.9838 476.415C24.9838 463.566 21.4283 452.984 17.1109 453.236Z" fill="url(#paint18_radial)"/>
<path d="M17.3646 476.163L15.8408 475.911V465.833H17.3646C18.3804 465.833 19.1423 468.101 19.1423 471.124C19.1423 474.148 18.3804 476.415 17.3646 476.163ZM16.3487 474.148H17.3646C17.8725 474.148 18.3804 472.888 18.3804 471.124C18.3804 469.361 17.8725 467.849 17.3646 467.849H16.3487V474.148Z" fill="url(#paint19_radial)"/>
<path d="M17.8725 485.233L15.8408 484.981V474.148L17.8725 474.4C18.8884 474.4 19.6503 476.919 19.6503 479.942C19.6503 482.966 18.8884 485.485 17.8725 485.233ZM16.3487 483.218L17.8725 483.47C18.6344 483.47 19.1423 481.958 19.1423 480.194C19.1423 478.431 18.6344 476.667 17.8725 476.667L16.3487 476.415V483.218Z" fill="url(#paint20_radial)"/>
<path d="M17.6193 486.997L16.8574 486.745V464.322H17.6193V486.997Z" fill="url(#paint21_radial)"/>
<path d="M137.997 436.104C142.314 435.852 146.124 441.899 146.124 449.709C146.124 457.519 142.568 463.818 137.997 463.818C133.68 463.818 130.378 457.771 130.378 450.213C130.378 442.655 133.68 436.356 137.997 436.104ZM137.997 434.34C133.172 434.844 129.362 441.899 129.362 450.213C129.362 458.527 133.172 465.33 137.997 465.582C143.076 465.582 147.14 458.527 147.14 449.709C147.14 440.639 143.076 433.837 137.997 434.34Z" fill="url(#paint22_radial)"/>
<path d="M137.997 432.577C143.584 432.073 148.156 439.631 148.156 449.457C148.156 459.283 143.584 467.093 137.997 466.841C132.664 466.589 128.601 459.031 128.601 449.961C128.601 440.891 132.664 433.081 137.997 432.577ZM137.997 432.073C132.41 432.577 128.093 440.639 128.093 450.213C128.093 459.787 132.41 467.597 137.997 467.849C143.838 468.101 148.664 459.787 148.664 449.709C148.41 439.379 143.584 431.569 137.997 432.073Z" fill="url(#paint23_radial)"/>
<path d="M140.029 453.992H134.95V452.48H140.029V453.992Z" fill="url(#paint24_radial)"/>
<path d="M138.505 450.969H135.203V449.457H138.505C139.52 449.457 140.282 447.946 140.282 446.434C140.282 444.67 139.52 443.411 138.505 443.411H136.473V441.899H138.505C140.028 441.899 141.044 443.914 141.044 446.434C141.044 448.953 139.774 450.969 138.505 450.969Z" fill="url(#paint25_radial)"/>
<path d="M136.728 457.771H135.966V442.151H136.728V457.771Z" fill="url(#paint26_radial)"/>
<path d="M47.8403 437.112C53.6814 436.608 58.7607 448.198 58.7607 463.566C58.7607 478.683 53.6814 490.272 47.8403 489.516C42.2531 488.761 37.9358 476.919 37.9358 463.062C37.9358 449.205 42.2531 437.616 47.8403 437.112ZM47.8403 433.585C41.4912 434.341 36.9199 447.442 36.9199 462.81C36.9199 478.179 41.7452 491.532 47.8403 492.54C54.4433 493.547 60.2844 480.446 60.2844 463.314C60.2844 446.182 54.4433 432.829 47.8403 433.585Z" fill="url(#paint27_radial)"/>
<path d="M47.8406 430.813C55.2055 429.805 61.5546 444.418 61.5546 463.566C61.5546 482.714 55.2055 497.074 47.8406 495.815C40.9837 494.555 35.9044 479.942 35.9044 463.062C35.6504 446.182 40.9837 431.569 47.8406 430.813ZM47.8406 429.302C40.7297 430.309 35.3965 445.426 35.3965 462.81C35.3965 480.446 40.7297 495.563 47.8406 497.074C55.4595 498.586 62.0625 483.469 62.0625 463.566C62.0625 443.662 55.4595 428.294 47.8406 429.302Z" fill="url(#paint28_radial)"/>
<path d="M50.6352 471.124L44.0322 470.872V467.849L50.6352 468.353V471.124Z" fill="url(#paint29_radial)"/>
<path d="M48.3496 465.582L44.0322 465.33V462.558H48.3496C49.6194 462.558 50.6352 460.039 50.6352 456.764C50.6352 453.488 49.6194 450.969 48.3496 450.969H45.556V448.197L48.3496 447.946C50.1273 447.946 51.9051 451.725 51.9051 456.512C51.9051 461.551 50.1273 465.582 48.3496 465.582Z" fill="url(#paint30_radial)"/>
<path d="M46.3186 478.179L45.0488 477.927V448.449H46.3186V478.179Z" fill="url(#paint31_radial)"/>
<path d="M471.196 541.417C493.544 544.44 512.845 562.328 512.845 581.224C512.845 600.12 493.544 610.953 471.196 605.662C450.371 600.875 434.371 583.491 434.371 566.863C434.371 549.983 450.117 538.645 471.196 541.417ZM471.196 537.134C447.577 534.11 429.8 547.211 429.8 565.855C429.8 584.499 447.577 604.151 471.196 609.693C496.592 615.74 518.687 603.647 518.687 581.98C518.687 560.312 496.592 540.409 471.196 537.134Z" fill="url(#paint32_radial)"/>
<path d="M471.195 533.607C499.131 536.882 524.019 559.305 524.019 583.239C524.019 607.174 499.385 620.527 471.195 613.473C445.545 607.174 425.99 585.759 425.99 565.351C425.99 544.692 445.291 530.331 471.195 533.607ZM471.195 531.843C444.529 528.82 424.212 543.684 424.212 564.848C424.212 586.011 444.275 608.434 471.195 614.984C500.401 622.291 526.305 608.434 526.305 583.491C526.305 558.549 500.401 535.118 471.195 531.843Z" fill="url(#paint33_radial)"/>
<path d="M461.798 586.767L459.005 583.743C461.291 581.224 464.846 576.437 465.354 574.925C465.862 573.665 464.592 571.65 462.814 569.382C459.767 565.603 459.259 561.824 461.291 558.801C463.068 556.029 466.878 554.518 471.195 555.273C477.544 556.281 482.623 561.32 482.623 566.611L478.052 565.855C478.052 562.58 474.751 559.557 470.941 559.053C468.401 558.549 465.862 559.557 464.846 561.32C463.576 563.084 464.084 565.603 466.116 568.123C468.401 570.894 470.433 574.169 469.417 576.941C468.909 578.2 467.132 580.72 465.354 582.987C468.148 582.987 471.449 583.239 473.989 584.751C478.306 587.018 482.623 587.27 484.147 586.515L486.687 590.042C483.639 591.05 477.544 590.546 472.211 587.522C469.417 585.759 463.576 586.515 461.798 586.767Z" fill="url(#paint34_radial)"/>
<path d="M476.527 576.185L459.258 573.161V569.634L476.527 572.657V576.185Z" fill="url(#paint35_radial)"/>
<path d="M192.345 364.804C198.695 363.041 203.774 369.339 203.774 378.661C203.774 387.983 198.441 396.549 192.345 397.809C186.25 398.817 181.679 392.518 181.679 383.7C181.679 374.882 186.25 366.316 192.345 364.804ZM192.345 362.789C185.488 364.552 180.155 374.126 180.155 384.204C180.155 394.03 185.488 401.336 192.345 400.076C199.456 398.817 205.298 389.243 205.298 378.661C205.298 367.576 199.202 360.773 192.345 362.789Z" fill="url(#paint36_radial)"/>
<path d="M192.346 360.773C200.219 358.505 206.822 366.316 206.822 377.905C206.822 389.495 200.219 400.328 192.346 401.588C184.981 402.848 179.14 395.037 179.14 384.204C179.14 373.37 184.727 362.789 192.346 360.773ZM192.346 360.017C184.473 362.285 178.632 373.118 178.632 384.456C178.632 395.793 184.727 403.855 192.346 402.596C200.473 401.336 207.33 390.25 207.33 377.905C207.33 365.56 200.473 357.75 192.346 360.017Z" fill="url(#paint37_radial)"/>
<path d="M189.552 389.747L188.79 388.739C189.298 386.975 190.568 383.952 190.568 383.196C190.568 382.44 190.314 381.684 189.806 380.677C189.044 379.165 188.79 377.149 189.298 375.386C189.806 373.622 190.822 372.362 192.092 372.11C193.869 371.607 195.393 373.37 195.393 376.142H194.123C194.123 374.63 193.107 373.37 192.092 373.622C191.33 373.874 190.568 374.63 190.314 375.638C190.06 376.897 190.06 377.905 190.568 378.913C191.33 379.921 191.838 381.18 191.584 382.944C191.584 383.7 190.822 385.212 190.568 386.723C191.33 386.219 192.346 385.967 193.107 386.219C194.377 386.723 195.647 385.967 195.901 385.463L196.663 386.723C195.901 387.731 194.123 388.487 192.599 387.731C191.838 387.731 190.06 389.243 189.552 389.747Z" fill="url(#paint38_radial)"/>
<path d="M193.869 381.936L188.79 382.944V381.18L193.869 379.921V381.936Z" fill="url(#paint39_radial)"/>
<path d="M596.145 311.392C630.43 303.329 661.16 321.721 661.16 353.466C661.16 385.211 630.43 413.177 596.145 415.697C565.162 417.964 542.051 398.312 542.051 371.858C542.051 345.404 565.162 318.698 596.145 311.392ZM596.145 304.589C561.352 313.155 535.702 343.389 535.702 372.866C535.702 402.343 561.352 424.515 596.145 422.499C635.255 419.98 670.81 388.487 670.81 352.207C670.81 315.927 635.255 295.015 596.145 304.589Z" fill="url(#paint40_radial)"/>
<path d="M596.146 298.795C639.573 287.709 679.192 310.384 679.192 350.695C679.192 391.006 639.573 426.026 596.146 428.294C558.052 430.309 530.37 405.619 530.37 373.622C530.37 341.625 558.052 308.369 596.146 298.795ZM596.146 296.023C556.528 306.353 527.83 340.869 527.83 374.126C527.83 407.383 556.528 433.081 596.146 431.065C641.351 428.798 683.001 392.518 683.001 350.191C683.001 307.865 641.351 284.182 596.146 296.023Z" fill="url(#paint41_radial)"/>
<path d="M587.765 369.591C593.352 368.331 600.209 366.064 605.035 361.529C608.59 358.254 610.368 354.474 610.368 349.939C610.368 341.877 602.495 337.342 590.305 338.098L589.289 344.145C595.892 343.893 603.257 345.404 603.257 351.199C603.257 353.719 602.241 355.734 600.463 357.75C595.384 362.789 584.972 364.3 576.845 365.56V369.591L605.542 391.51L615.701 390.502L587.765 369.591Z" fill="url(#paint42_radial)"/>
<path d="M620.779 338.35L571.257 347.672V341.877L620.779 332.051V338.35Z" fill="url(#paint43_radial)"/>
<path d="M620.779 351.955L571.257 360.269V354.474L620.779 345.656V351.955Z" fill="url(#paint44_radial)"/>
<path d="M69.4282 498.586C72.7297 499.09 75.7773 506.144 75.7773 513.955C75.7773 521.765 72.9837 527.308 69.4282 526.3C66.1267 525.292 63.5871 518.49 63.5871 510.931C63.5871 503.625 66.3807 498.082 69.4282 498.586ZM69.4282 496.822C65.6188 496.067 62.8252 502.617 62.8252 510.931C62.8252 519.245 65.8727 527.056 69.4282 528.315C73.2377 529.575 76.5392 523.277 76.5392 514.207C76.5392 505.388 73.4916 497.578 69.4282 496.822Z" fill="url(#paint45_radial)"/>
<path d="M69.4275 495.311C73.7448 496.067 77.3003 504.633 77.3003 514.459C77.3003 524.284 73.7448 531.339 69.4275 529.827C65.3641 528.567 62.0626 520.001 62.0626 510.679C62.3165 501.609 65.3641 494.555 69.4275 495.311ZM69.4275 494.555C65.1101 493.799 61.8086 501.106 61.8086 510.679C61.8086 520.253 65.1101 529.071 69.4275 530.583C73.7448 532.095 77.5543 524.788 77.5543 514.459C77.8082 504.381 73.9988 495.311 69.4275 494.555Z" fill="url(#paint46_radial)"/>
<path d="M68.6653 513.703C69.1732 513.703 69.9351 513.451 70.443 512.695C70.697 511.939 70.9509 511.183 70.9509 509.924C70.9509 507.908 70.189 506.145 68.9192 505.389V506.9C69.6811 507.404 70.443 508.16 70.443 509.672C70.443 510.428 70.443 510.931 70.189 511.183C69.6811 512.191 68.6653 511.939 67.6494 511.687V512.695L70.697 520.505L71.7128 520.757L68.6653 513.703Z" fill="url(#paint47_radial)"/>
<path d="M71.9669 507.656L66.8877 506.648V504.885L71.9669 506.144V507.656Z" fill="url(#paint48_radial)"/>
<path d="M71.9669 511.183L66.8877 510.175V508.412L71.9669 509.672V511.183Z" fill="url(#paint49_radial)"/>
<path d="M360.723 321.721C382.563 315.927 401.611 329.028 401.611 351.703C401.611 374.126 382.563 394.785 360.723 397.305C340.66 399.824 325.422 385.715 325.422 366.315C325.168 346.916 340.406 327.264 360.723 321.721ZM360.723 316.934C338.12 323.233 321.104 345.404 321.104 367.323C321.104 389.242 338.12 404.863 360.723 402.343C385.611 399.572 407.452 376.393 407.452 350.695C407.452 324.997 385.357 310.132 360.723 316.934Z" fill="url(#paint50_radial)"/>
<path d="M360.723 312.651C388.151 304.841 412.531 321.217 412.531 349.687C412.531 378.409 388.151 403.855 360.723 406.627C335.835 409.146 317.549 391.762 317.549 367.827C317.295 344.144 335.835 319.706 360.723 312.651ZM360.723 310.636C335.073 317.942 315.771 343.641 315.771 368.331C315.771 393.022 334.819 411.162 360.723 408.642C389.421 405.871 415.071 379.165 415.071 349.183C414.817 319.202 389.167 302.322 360.723 310.636Z" fill="url(#paint51_radial)"/>
<path d="M363.77 389.494L357.929 388.234V330.791L363.77 329.531V389.494Z" fill="url(#paint52_radial)"/>
<path d="M360.976 385.463C360.468 385.463 359.96 385.211 359.452 385.211C348.024 382.44 345.23 374.629 345.23 370.85L347.77 371.102L350.31 371.354C350.31 372.11 350.564 378.66 359.96 380.424C365.293 381.432 369.865 380.424 372.404 377.653C374.182 375.637 374.436 372.866 372.912 370.094C371.389 367.575 368.341 366.063 365.801 364.803L365.293 364.552C361.738 362.788 359.96 362.032 359.706 361.78C359.706 361.78 357.929 361.024 354.373 359.261L353.865 359.009C351.326 357.749 348.024 356.237 346.5 352.962C344.723 349.435 344.976 345.656 347.008 341.877C349.802 337.342 355.389 334.066 362.246 333.31C376.468 331.547 380.531 340.113 380.531 345.152L373.42 345.656C373.42 344.9 372.912 337.342 361.738 338.349C356.659 338.853 352.849 340.869 350.818 343.892C349.548 345.908 349.294 348.427 350.564 350.443C351.58 352.458 354.119 353.466 356.151 354.474L356.659 354.726C359.96 356.237 361.992 356.993 361.992 356.993C361.992 356.993 364.024 357.749 367.833 359.513L368.341 359.765C371.643 361.276 376.214 363.292 378.753 367.323C381.801 372.11 381.547 377.149 377.992 380.928C374.436 385.463 367.833 386.723 360.976 385.463Z" fill="url(#paint53_radial)"/>
<path d="M244.407 452.228C270.82 451.725 295.2 480.698 295.2 516.978C295.2 553.006 270.82 575.681 244.407 568.627C221.043 562.076 203.773 534.11 203.773 505.389C203.773 476.415 221.043 452.732 244.407 452.228ZM244.407 444.67C217.995 445.678 199.202 472.384 199.202 504.381C199.202 536.378 217.995 568.123 244.407 575.933C274.629 584.751 302.819 559.305 302.819 517.734C302.819 476.415 274.629 443.662 244.407 444.67Z" fill="url(#paint54_radial)"/>
<path d="M244.408 438.12C277.931 436.356 309.676 472.384 309.676 518.742C309.676 565.099 277.931 593.065 244.408 582.484C215.71 573.665 195.139 539.149 195.139 504.129C195.139 469.109 215.71 439.631 244.408 438.12ZM244.408 435.096C214.694 436.86 193.361 467.597 193.361 503.877C193.361 540.157 214.44 576.185 244.408 585.759C279.455 596.844 312.978 567.871 312.978 519.246C312.978 470.62 279.455 433.081 244.408 435.096Z" fill="url(#paint55_radial)"/>
<path d="M250.25 508.664L219.774 504.885V498.838L250.25 502.114V508.664Z" fill="url(#paint56_radial)"/>
<path d="M250.25 521.262L219.774 516.475V510.428L250.25 514.711V521.262Z" fill="url(#paint57_radial)"/>
<path d="M247.964 545.952C241.615 544.692 235.774 539.653 231.71 532.347C227.647 525.292 225.615 516.726 225.615 507.908C225.615 499.09 227.901 491.028 231.71 484.981C236.028 478.683 241.615 475.408 247.964 475.66C254.567 475.911 260.916 479.943 265.741 487.249L261.424 491.532C257.614 485.737 252.789 482.714 247.964 482.21C243.139 481.958 238.567 484.478 235.266 489.264C231.964 494.303 230.187 500.854 230.187 508.412C230.187 515.719 231.964 523.025 235.266 528.82C238.567 534.614 243.139 538.394 247.964 539.149C253.043 540.157 257.868 538.142 261.424 533.355L265.741 538.646C260.662 544.944 254.313 547.464 247.964 545.952Z" fill="url(#paint58_radial)"/>
<path d="M20.1581 411.414C21.9358 410.91 23.7135 414.941 23.7135 420.736C23.7135 426.278 22.1898 431.065 20.1581 431.317C18.3803 431.569 16.8566 427.538 16.8566 421.995C16.8566 416.453 18.3803 411.918 20.1581 411.414ZM20.1581 410.154C18.1264 410.658 16.3486 416.201 16.3486 422.247C16.3486 428.294 18.1264 433.081 20.1581 432.577C22.1898 432.325 23.9675 426.782 23.9675 420.484C23.9675 414.185 22.1898 409.65 20.1581 410.154Z" fill="url(#paint59_radial)"/>
<path d="M20.1582 409.146C22.4438 408.39 24.4755 413.681 24.4755 420.484C24.4755 427.538 22.4438 433.333 20.1582 433.837C17.8725 434.089 16.0948 429.05 16.0948 422.247C16.0948 415.697 17.8725 409.65 20.1582 409.146ZM20.1582 408.642C17.8725 409.398 15.8408 415.445 15.8408 422.499C15.8408 429.554 17.6186 434.845 20.1582 434.593C22.6978 434.341 24.7295 428.042 24.7295 420.736C24.7295 413.177 22.4438 407.887 20.1582 408.642Z" fill="url(#paint60_radial)"/>
<path d="M20.4112 427.79H19.9033V414.941H20.4112V427.79Z" fill="url(#paint61_radial)"/>
<path d="M20.1575 427.034C19.1416 427.034 19.1416 425.271 19.1416 424.263H19.3956H19.6495C19.6495 424.515 19.6495 426.027 20.4114 426.027C20.6654 426.027 20.9193 425.523 21.1733 425.019C21.1733 424.515 21.1733 424.011 21.1733 423.507C21.1733 423.003 20.9193 422.751 20.6654 422.5C20.1575 421.996 20.1575 421.996 20.1575 421.996C20.1575 421.996 20.1575 421.744 19.9035 421.492C19.6495 421.24 19.3956 420.988 19.3956 420.232C19.1416 419.476 19.1416 418.468 19.3956 417.461C19.3956 416.453 19.6495 415.697 20.1575 415.697C20.9193 415.697 21.1733 417.461 21.1733 418.468H20.6654C20.6654 418.216 20.6654 416.705 19.9035 416.705C19.6495 416.705 19.3956 417.209 19.1416 417.713C19.1416 418.216 19.1416 418.72 19.1416 419.224C19.1416 419.728 19.3956 419.98 19.6495 420.232C20.1575 420.736 20.1575 420.988 20.1575 420.988C20.1575 420.988 20.1575 421.24 20.4114 421.492C20.6654 421.744 20.9193 421.996 20.9193 422.751C21.1733 423.507 21.1733 424.515 20.9193 425.523C20.9193 426.531 20.6654 427.034 20.1575 427.034Z" fill="url(#paint62_radial)"/>
<path d="M34.1257 494.051C35.6494 494.303 36.9193 498.082 36.9193 502.113C36.9193 506.396 35.6494 509.42 34.1257 508.916C32.6019 508.412 31.3321 504.885 31.3321 500.854C31.3321 496.823 32.6019 493.547 34.1257 494.051ZM34.1257 493.043C32.3479 492.792 31.0781 496.319 31.0781 500.854C31.0781 505.389 32.3479 509.42 34.1257 509.924C35.9034 510.428 37.1732 506.9 37.1732 502.113C37.1732 497.327 35.6494 493.295 34.1257 493.043Z" fill="url(#paint63_radial)"/>
<path d="M34.1258 492.036C35.9035 492.288 37.6813 496.823 37.6813 502.113C37.6813 507.404 36.1575 511.183 34.1258 510.679C32.348 510.176 30.8243 505.641 30.8243 500.602C30.5703 495.563 32.0941 491.784 34.1258 492.036ZM34.1258 491.784C32.0941 491.532 30.5703 495.563 30.5703 500.602C30.5703 505.893 32.0941 510.428 34.1258 511.183C36.1575 511.687 37.6813 507.656 37.6813 502.365C37.6813 496.823 35.9035 492.036 34.1258 491.784Z" fill="url(#paint64_radial)"/>
<path d="M34.126 506.145H33.8721V496.571H34.126V506.145Z" fill="url(#paint65_radial)"/>
<path d="M34.1262 505.641C33.8722 505.641 33.8722 505.641 34.1262 505.641C33.3643 505.389 33.1104 503.877 33.1104 503.121H33.3643H33.6183C33.6183 503.373 33.6183 504.381 34.1262 504.633C34.3802 504.633 34.6341 504.633 34.6341 504.129C34.6341 503.877 34.6341 503.373 34.6341 502.869C34.6341 502.366 34.3802 502.366 34.3802 502.114C34.1262 501.862 34.1262 501.61 34.1262 501.61C34.1262 501.61 34.1262 501.358 33.8722 501.106C33.6183 500.854 33.6183 500.602 33.3643 499.846C33.3643 499.09 33.3643 498.334 33.3643 497.831C33.3643 497.327 33.6183 497.075 34.1262 497.075C34.8881 497.327 34.8881 498.838 34.8881 499.342H34.6341C34.6341 499.09 34.6341 498.082 34.1262 497.831C33.8722 497.831 33.6183 497.831 33.6183 498.334C33.6183 498.586 33.6183 499.09 33.6183 499.594C33.6183 500.098 33.8722 500.098 33.8722 500.35C34.1262 500.602 34.1262 500.854 34.1262 500.854C34.1262 500.854 34.1262 501.106 34.3802 501.358C34.6341 501.61 34.6341 501.862 34.8881 502.617C34.8881 503.373 34.8881 504.129 34.8881 504.633C34.6341 505.389 34.3802 505.641 34.1262 505.641Z" fill="url(#paint66_radial)"/>
</g>
</g>
<defs>
<radialGradient id="paint0_radial" cx="0" cy="0" r="1" gradientUnits="userSpaceOnUse" gradientTransform="translate(27.8968 463.624) scale(1277.84 1238.43)">
<stop offset="0.0671642" stop-color="#E3E3E3"/>
<stop offset="0.5574" stop-color="#579FC4"/>
<stop offset="0.6188" stop-color="#417692"/>
<stop offset="0.6823" stop-color="#2D5266"/>
<stop offset="0.7465" stop-color="#1D3541"/>
<stop offset="0.8104" stop-color="#101E24"/>
<stop offset="0.8741" stop-color="#070D10"/>
<stop offset="0.9374" stop-color="#020304"/>
<stop offset="1"/>
</radialGradient>
<radialGradient id="paint1_radial" cx="0" cy="0" r="1" gradientUnits="userSpaceOnUse" gradientTransform="translate(27.8968 463.624) scale(1277.85 1238.44)">
<stop offset="0.0671642" stop-color="#E3E3E3"/>
<stop offset="0.5574" stop-color="#579FC4"/>
<stop offset="0.6188" stop-color="#417692"/>
<stop offset="0.6823" stop-color="#2D5266"/>
<stop offset="0.7465" stop-color="#1D3541"/>
<stop offset="0.8104" stop-color="#101E24"/>
<stop offset="0.8741" stop-color="#070D10"/>
<stop offset="0.9374" stop-color="#020304"/>
<stop offset="1"/>
</radialGradient>
<radialGradient id="paint2_radial" cx="0" cy="0" r="1" gradientUnits="userSpaceOnUse" gradientTransform="translate(27.9016 463.625) scale(1277.73 1238.34)">
<stop offset="0.0671642" stop-color="#E3E3E3"/>
<stop offset="0.5574" stop-color="#579FC4"/>
<stop offset="0.6188" stop-color="#417692"/>
<stop offset="0.6823" stop-color="#2D5266"/>
<stop offset="0.7465" stop-color="#1D3541"/>
<stop offset="0.8104" stop-color="#101E24"/>
<stop offset="0.8741" stop-color="#070D10"/>
<stop offset="0.9374" stop-color="#020304"/>
<stop offset="1"/>
</radialGradient>
<radialGradient id="paint3_radial" cx="0" cy="0" r="1" gradientUnits="userSpaceOnUse" gradientTransform="translate(27.8959 463.624) scale(1277.86 1238.45)">
<stop offset="0.0671642" stop-color="#E3E3E3"/>
<stop offset="0.5574" stop-color="#579FC4"/>
<stop offset="0.6188" stop-color="#417692"/>
<stop offset="0.6823" stop-color="#2D5266"/>
<stop offset="0.7465" stop-color="#1D3541"/>
<stop offset="0.8104" stop-color="#101E24"/>
<stop offset="0.8741" stop-color="#070D10"/>
<stop offset="0.9374" stop-color="#020304"/>
<stop offset="1"/>
</radialGradient>
<radialGradient id="paint4_radial" cx="0" cy="0" r="1" gradientUnits="userSpaceOnUse" gradientTransform="translate(27.8961 463.624) scale(1277.85 1238.44)">
<stop offset="0.0671642" stop-color="#E3E3E3"/>
<stop offset="0.5574" stop-color="#579FC4"/>
<stop offset="0.6188" stop-color="#417692"/>
<stop offset="0.6823" stop-color="#2D5266"/>
<stop offset="0.7465" stop-color="#1D3541"/>
<stop offset="0.8104" stop-color="#101E24"/>
<stop offset="0.8741" stop-color="#070D10"/>
<stop offset="0.9374" stop-color="#020304"/>
<stop offset="1"/>
</radialGradient>
<radialGradient id="paint5_radial" cx="0" cy="0" r="1" gradientUnits="userSpaceOnUse" gradientTransform="translate(27.8961 463.625) scale(1277.85 1238.44)">
<stop offset="0.0671642" stop-color="#E3E3E3"/>
<stop offset="0.5574" stop-color="#579FC4"/>
<stop offset="0.6188" stop-color="#417692"/>
<stop offset="0.6823" stop-color="#2D5266"/>
<stop offset="0.7465" stop-color="#1D3541"/>
<stop offset="0.8104" stop-color="#101E24"/>
<stop offset="0.8741" stop-color="#070D10"/>
<stop offset="0.9374" stop-color="#020304"/>
<stop offset="1"/>
</radialGradient>
<radialGradient id="paint6_radial" cx="0" cy="0" r="1" gradientUnits="userSpaceOnUse" gradientTransform="translate(27.8981 463.624) scale(1277.85 1238.44)">
<stop offset="0.0671642" stop-color="#E3E3E3"/>
<stop offset="0.5574" stop-color="#579FC4"/>
<stop offset="0.6188" stop-color="#417692"/>
<stop offset="0.6823" stop-color="#2D5266"/>
<stop offset="0.7465" stop-color="#1D3541"/>
<stop offset="0.8104" stop-color="#101E24"/>
<stop offset="0.8741" stop-color="#070D10"/>
<stop offset="0.9374" stop-color="#020304"/>
<stop offset="1"/>
</radialGradient>
<radialGradient id="paint7_radial" cx="0" cy="0" r="1" gradientUnits="userSpaceOnUse" gradientTransform="translate(27.8984 463.624) scale(1277.85 1238.44)">
<stop offset="0.0671642" stop-color="#E3E3E3"/>
<stop offset="0.5574" stop-color="#579FC4"/>
<stop offset="0.6188" stop-color="#417692"/>
<stop offset="0.6823" stop-color="#2D5266"/>
<stop offset="0.7465" stop-color="#1D3541"/>
<stop offset="0.8104" stop-color="#101E24"/>
<stop offset="0.8741" stop-color="#070D10"/>
<stop offset="0.9374" stop-color="#020304"/>
<stop offset="1"/>
</radialGradient>
<radialGradient id="paint8_radial" cx="0" cy="0" r="1" gradientUnits="userSpaceOnUse" gradientTransform="translate(27.9008 463.625) scale(1277.86 1238.44)">
<stop offset="0.0671642" stop-color="#E3E3E3"/>
<stop offset="0.5574" stop-color="#579FC4"/>
<stop offset="0.6188" stop-color="#417692"/>
<stop offset="0.6823" stop-color="#2D5266"/>
<stop offset="0.7465" stop-color="#1D3541"/>
<stop offset="0.8104" stop-color="#101E24"/>
<stop offset="0.8741" stop-color="#070D10"/>
<stop offset="0.9374" stop-color="#020304"/>
<stop offset="1"/>
</radialGradient>
<radialGradient id="paint9_radial" cx="0" cy="0" r="1" gradientUnits="userSpaceOnUse" gradientTransform="translate(27.8991 463.624) scale(1277.85 1238.45)">
<stop offset="0.0671642" stop-color="#E3E3E3"/>
<stop offset="0.5574" stop-color="#579FC4"/>
<stop offset="0.6188" stop-color="#417692"/>
<stop offset="0.6823" stop-color="#2D5266"/>
<stop offset="0.7465" stop-color="#1D3541"/>
<stop offset="0.8104" stop-color="#101E24"/>
<stop offset="0.8741" stop-color="#070D10"/>
<stop offset="0.9374" stop-color="#020304"/>
<stop offset="1"/>
</radialGradient>
<radialGradient id="paint10_radial" cx="0" cy="0" r="1" gradientUnits="userSpaceOnUse" gradientTransform="translate(27.8995 463.624) scale(1277.85 1238.44)">
<stop offset="0.0671642" stop-color="#E3E3E3"/>
<stop offset="0.5574" stop-color="#579FC4"/>
<stop offset="0.6188" stop-color="#417692"/>
<stop offset="0.6823" stop-color="#2D5266"/>
<stop offset="0.7465" stop-color="#1D3541"/>
<stop offset="0.8104" stop-color="#101E24"/>
<stop offset="0.8741" stop-color="#070D10"/>
<stop offset="0.9374" stop-color="#020304"/>
<stop offset="1"/>
</radialGradient>
<radialGradient id="paint11_radial" cx="0" cy="0" r="1" gradientUnits="userSpaceOnUse" gradientTransform="translate(27.8995 463.623) scale(1277.82 1238.42)">
<stop offset="0.0671642" stop-color="#E3E3E3"/>
<stop offset="0.5574" stop-color="#579FC4"/>
<stop offset="0.6188" stop-color="#417692"/>
<stop offset="0.6823" stop-color="#2D5266"/>
<stop offset="0.7465" stop-color="#1D3541"/>
<stop offset="0.8104" stop-color="#101E24"/>
<stop offset="0.8741" stop-color="#070D10"/>
<stop offset="0.9374" stop-color="#020304"/>
<stop offset="1"/>
</radialGradient>
<radialGradient id="paint12_radial" cx="0" cy="0" r="1" gradientUnits="userSpaceOnUse" gradientTransform="translate(27.8977 463.624) scale(1277.85 1238.44)">
<stop offset="0.0671642" stop-color="#E3E3E3"/>
<stop offset="0.5574" stop-color="#579FC4"/>
<stop offset="0.6188" stop-color="#417692"/>
<stop offset="0.6823" stop-color="#2D5266"/>
<stop offset="0.7465" stop-color="#1D3541"/>
<stop offset="0.8104" stop-color="#101E24"/>
<stop offset="0.8741" stop-color="#070D10"/>
<stop offset="0.9374" stop-color="#020304"/>
<stop offset="1"/>
</radialGradient>
<radialGradient id="paint13_radial" cx="0" cy="0" r="1" gradientUnits="userSpaceOnUse" gradientTransform="translate(27.8982 463.624) scale(1277.85 1238.44)">
<stop offset="0.0671642" stop-color="#E3E3E3"/>
<stop offset="0.5574" stop-color="#579FC4"/>
<stop offset="0.6188" stop-color="#417692"/>
<stop offset="0.6823" stop-color="#2D5266"/>
<stop offset="0.7465" stop-color="#1D3541"/>
<stop offset="0.8104" stop-color="#101E24"/>
<stop offset="0.8741" stop-color="#070D10"/>
<stop offset="0.9374" stop-color="#020304"/>
<stop offset="1"/>
</radialGradient>
<radialGradient id="paint14_radial" cx="0" cy="0" r="1" gradientUnits="userSpaceOnUse" gradientTransform="translate(27.8959 463.624) scale(1277.86 1238.45)">
<stop offset="0.0671642" stop-color="#E3E3E3"/>
<stop offset="0.5574" stop-color="#579FC4"/>
<stop offset="0.6188" stop-color="#417692"/>
<stop offset="0.6823" stop-color="#2D5266"/>
<stop offset="0.7465" stop-color="#1D3541"/>
<stop offset="0.8104" stop-color="#101E24"/>
<stop offset="0.8741" stop-color="#070D10"/>
<stop offset="0.9374" stop-color="#020304"/>
<stop offset="1"/>
</radialGradient>
<radialGradient id="paint15_radial" cx="0" cy="0" r="1" gradientUnits="userSpaceOnUse" gradientTransform="translate(27.8969 463.624) scale(1277.86 1238.45)">
<stop offset="0.0671642" stop-color="#E3E3E3"/>
<stop offset="0.5574" stop-color="#579FC4"/>
<stop offset="0.6188" stop-color="#417692"/>
<stop offset="0.6823" stop-color="#2D5266"/>
<stop offset="0.7465" stop-color="#1D3541"/>
<stop offset="0.8104" stop-color="#101E24"/>
<stop offset="0.8741" stop-color="#070D10"/>
<stop offset="0.9374" stop-color="#020304"/>
<stop offset="1"/>
</radialGradient>
<radialGradient id="paint16_radial" cx="0" cy="0" r="1" gradientUnits="userSpaceOnUse" gradientTransform="translate(27.8883 463.624) scale(1277.94 1238.52)">
<stop offset="0.0671642" stop-color="#E3E3E3"/>
<stop offset="0.5574" stop-color="#579FC4"/>
<stop offset="0.6188" stop-color="#417692"/>
<stop offset="0.6823" stop-color="#2D5266"/>
<stop offset="0.7465" stop-color="#1D3541"/>
<stop offset="0.8104" stop-color="#101E24"/>
<stop offset="0.8741" stop-color="#070D10"/>
<stop offset="0.9374" stop-color="#020304"/>
<stop offset="1"/>
</radialGradient>
<radialGradient id="paint17_radial" cx="0" cy="0" r="1" gradientUnits="userSpaceOnUse" gradientTransform="translate(27.898 463.624) scale(1277.86 1238.45)">
<stop offset="0.0671642" stop-color="#E3E3E3"/>
<stop offset="0.5574" stop-color="#579FC4"/>
<stop offset="0.6188" stop-color="#417692"/>
<stop offset="0.6823" stop-color="#2D5266"/>
<stop offset="0.7465" stop-color="#1D3541"/>
<stop offset="0.8104" stop-color="#101E24"/>
<stop offset="0.8741" stop-color="#070D10"/>
<stop offset="0.9374" stop-color="#020304"/>
<stop offset="1"/>
</radialGradient>
<radialGradient id="paint18_radial" cx="0" cy="0" r="1" gradientUnits="userSpaceOnUse" gradientTransform="translate(27.8982 463.624) scale(1277.86 1238.45)">
<stop offset="0.0671642" stop-color="#E3E3E3"/>
<stop offset="0.5574" stop-color="#579FC4"/>
<stop offset="0.6188" stop-color="#417692"/>
<stop offset="0.6823" stop-color="#2D5266"/>
<stop offset="0.7465" stop-color="#1D3541"/>
<stop offset="0.8104" stop-color="#101E24"/>
<stop offset="0.8741" stop-color="#070D10"/>
<stop offset="0.9374" stop-color="#020304"/>
<stop offset="1"/>
</radialGradient>
<radialGradient id="paint19_radial" cx="0" cy="0" r="1" gradientUnits="userSpaceOnUse" gradientTransform="translate(27.8981 463.624) scale(1277.86 1238.44)">
<stop offset="0.0671642" stop-color="#E3E3E3"/>
<stop offset="0.5574" stop-color="#579FC4"/>
<stop offset="0.6188" stop-color="#417692"/>
<stop offset="0.6823" stop-color="#2D5266"/>
<stop offset="0.7465" stop-color="#1D3541"/>
<stop offset="0.8104" stop-color="#101E24"/>
<stop offset="0.8741" stop-color="#070D10"/>
<stop offset="0.9374" stop-color="#020304"/>
<stop offset="1"/>
</radialGradient>
<radialGradient id="paint20_radial" cx="0" cy="0" r="1" gradientUnits="userSpaceOnUse" gradientTransform="translate(27.8978 463.624) scale(1277.85 1238.44)">
<stop offset="0.0671642" stop-color="#E3E3E3"/>
<stop offset="0.5574" stop-color="#579FC4"/>
<stop offset="0.6188" stop-color="#417692"/>
<stop offset="0.6823" stop-color="#2D5266"/>
<stop offset="0.7465" stop-color="#1D3541"/>
<stop offset="0.8104" stop-color="#101E24"/>
<stop offset="0.8741" stop-color="#070D10"/>
<stop offset="0.9374" stop-color="#020304"/>
<stop offset="1"/>
</radialGradient>
<radialGradient id="paint21_radial" cx="0" cy="0" r="1" gradientUnits="userSpaceOnUse" gradientTransform="translate(27.8988 463.624) scale(1277.86 1238.45)">
<stop offset="0.0671642" stop-color="#E3E3E3"/>
<stop offset="0.5574" stop-color="#579FC4"/>
<stop offset="0.6188" stop-color="#417692"/>
<stop offset="0.6823" stop-color="#2D5266"/>
<stop offset="0.7465" stop-color="#1D3541"/>
<stop offset="0.8104" stop-color="#101E24"/>
<stop offset="0.8741" stop-color="#070D10"/>
<stop offset="0.9374" stop-color="#020304"/>
<stop offset="1"/>
</radialGradient>
<radialGradient id="paint22_radial" cx="0" cy="0" r="1" gradientUnits="userSpaceOnUse" gradientTransform="translate(27.8989 463.624) scale(1277.84 1238.43)">
<stop offset="0.0671642" stop-color="#E3E3E3"/>
<stop offset="0.5574" stop-color="#579FC4"/>
<stop offset="0.6188" stop-color="#417692"/>
<stop offset="0.6823" stop-color="#2D5266"/>
<stop offset="0.7465" stop-color="#1D3541"/>
<stop offset="0.8104" stop-color="#101E24"/>
<stop offset="0.8741" stop-color="#070D10"/>
<stop offset="0.9374" stop-color="#020304"/>
<stop offset="1"/>
</radialGradient>
<radialGradient id="paint23_radial" cx="0" cy="0" r="1" gradientUnits="userSpaceOnUse" gradientTransform="translate(27.8991 463.624) scale(1277.84 1238.43)">
<stop offset="0.0671642" stop-color="#E3E3E3"/>
<stop offset="0.5574" stop-color="#579FC4"/>
<stop offset="0.6188" stop-color="#417692"/>
<stop offset="0.6823" stop-color="#2D5266"/>
<stop offset="0.7465" stop-color="#1D3541"/>
<stop offset="0.8104" stop-color="#101E24"/>
<stop offset="0.8741" stop-color="#070D10"/>
<stop offset="0.9374" stop-color="#020304"/>
<stop offset="1"/>
</radialGradient>
<radialGradient id="paint24_radial" cx="0" cy="0" r="1" gradientUnits="userSpaceOnUse" gradientTransform="translate(27.8989 463.625) scale(1277.84 1238.43)">
<stop offset="0.0671642" stop-color="#E3E3E3"/>
<stop offset="0.5574" stop-color="#579FC4"/>
<stop offset="0.6188" stop-color="#417692"/>
<stop offset="0.6823" stop-color="#2D5266"/>
<stop offset="0.7465" stop-color="#1D3541"/>
<stop offset="0.8104" stop-color="#101E24"/>
<stop offset="0.8741" stop-color="#070D10"/>
<stop offset="0.9374" stop-color="#020304"/>
<stop offset="1"/>
</radialGradient>
<radialGradient id="paint25_radial" cx="0" cy="0" r="1" gradientUnits="userSpaceOnUse" gradientTransform="translate(27.9011 463.624) scale(1277.8 1238.4)">
<stop offset="0.0671642" stop-color="#E3E3E3"/>
<stop offset="0.5574" stop-color="#579FC4"/>
<stop offset="0.6188" stop-color="#417692"/>
<stop offset="0.6823" stop-color="#2D5266"/>
<stop offset="0.7465" stop-color="#1D3541"/>
<stop offset="0.8104" stop-color="#101E24"/>
<stop offset="0.8741" stop-color="#070D10"/>
<stop offset="0.9374" stop-color="#020304"/>
<stop offset="1"/>
</radialGradient>
<radialGradient id="paint26_radial" cx="0" cy="0" r="1" gradientUnits="userSpaceOnUse" gradientTransform="translate(27.8739 463.624) scale(1278.13 1238.69)">
<stop offset="0.0671642" stop-color="#E3E3E3"/>
<stop offset="0.5574" stop-color="#579FC4"/>
<stop offset="0.6188" stop-color="#417692"/>
<stop offset="0.6823" stop-color="#2D5266"/>
<stop offset="0.7465" stop-color="#1D3541"/>
<stop offset="0.8104" stop-color="#101E24"/>
<stop offset="0.8741" stop-color="#070D10"/>
<stop offset="0.9374" stop-color="#020304"/>
<stop offset="1"/>
</radialGradient>
<radialGradient id="paint27_radial" cx="0" cy="0" r="1" gradientUnits="userSpaceOnUse" gradientTransform="translate(27.8978 463.624) scale(1277.85 1238.44)">
<stop offset="0.0671642" stop-color="#E3E3E3"/>
<stop offset="0.5574" stop-color="#579FC4"/>
<stop offset="0.6188" stop-color="#417692"/>
<stop offset="0.6823" stop-color="#2D5266"/>
<stop offset="0.7465" stop-color="#1D3541"/>
<stop offset="0.8104" stop-color="#101E24"/>
<stop offset="0.8741" stop-color="#070D10"/>
<stop offset="0.9374" stop-color="#020304"/>
<stop offset="1"/>
</radialGradient>
<radialGradient id="paint28_radial" cx="0" cy="0" r="1" gradientUnits="userSpaceOnUse" gradientTransform="translate(27.8984 463.624) scale(1277.85 1238.44)">
<stop offset="0.0671642" stop-color="#E3E3E3"/>
<stop offset="0.5574" stop-color="#579FC4"/>
<stop offset="0.6188" stop-color="#417692"/>
<stop offset="0.6823" stop-color="#2D5266"/>
<stop offset="0.7465" stop-color="#1D3541"/>
<stop offset="0.8104" stop-color="#101E24"/>
<stop offset="0.8741" stop-color="#070D10"/>
<stop offset="0.9374" stop-color="#020304"/>
<stop offset="1"/>
</radialGradient>
<radialGradient id="paint29_radial" cx="0" cy="0" r="1" gradientUnits="userSpaceOnUse" gradientTransform="translate(27.899 463.624) scale(1277.86 1238.44)">
<stop offset="0.0671642" stop-color="#E3E3E3"/>
<stop offset="0.5574" stop-color="#579FC4"/>
<stop offset="0.6188" stop-color="#417692"/>
<stop offset="0.6823" stop-color="#2D5266"/>
<stop offset="0.7465" stop-color="#1D3541"/>
<stop offset="0.8104" stop-color="#101E24"/>
<stop offset="0.8741" stop-color="#070D10"/>
<stop offset="0.9374" stop-color="#020304"/>
<stop offset="1"/>
</radialGradient>
<radialGradient id="paint30_radial" cx="0" cy="0" r="1" gradientUnits="userSpaceOnUse" gradientTransform="translate(27.8989 463.624) scale(1277.87 1238.46)">
<stop offset="0.0671642" stop-color="#E3E3E3"/>
<stop offset="0.5574" stop-color="#579FC4"/>
<stop offset="0.6188" stop-color="#417692"/>
<stop offset="0.6823" stop-color="#2D5266"/>
<stop offset="0.7465" stop-color="#1D3541"/>
<stop offset="0.8104" stop-color="#101E24"/>
<stop offset="0.8741" stop-color="#070D10"/>
<stop offset="0.9374" stop-color="#020304"/>
<stop offset="1"/>
</radialGradient>
<radialGradient id="paint31_radial" cx="0" cy="0" r="1" gradientUnits="userSpaceOnUse" gradientTransform="translate(27.8989 463.624) scale(1277.89 1238.48)">
<stop offset="0.0671642" stop-color="#E3E3E3"/>
<stop offset="0.5574" stop-color="#579FC4"/>
<stop offset="0.6188" stop-color="#417692"/>
<stop offset="0.6823" stop-color="#2D5266"/>
<stop offset="0.7465" stop-color="#1D3541"/>
<stop offset="0.8104" stop-color="#101E24"/>
<stop offset="0.8741" stop-color="#070D10"/>
<stop offset="0.9374" stop-color="#020304"/>
<stop offset="1"/>
</radialGradient>
<radialGradient id="paint32_radial" cx="0" cy="0" r="1" gradientUnits="userSpaceOnUse" gradientTransform="translate(27.8985 463.624) scale(1277.84 1238.43)">
<stop offset="0.0671642" stop-color="#E3E3E3"/>
<stop offset="0.5574" stop-color="#579FC4"/>
<stop offset="0.6188" stop-color="#417692"/>
<stop offset="0.6823" stop-color="#2D5266"/>
<stop offset="0.7465" stop-color="#1D3541"/>
<stop offset="0.8104" stop-color="#101E24"/>
<stop offset="0.8741" stop-color="#070D10"/>
<stop offset="0.9374" stop-color="#020304"/>
<stop offset="1"/>
</radialGradient>
<radialGradient id="paint33_radial" cx="0" cy="0" r="1" gradientUnits="userSpaceOnUse" gradientTransform="translate(27.8978 463.624) scale(1277.84 1238.43)">
<stop offset="0.0671642" stop-color="#E3E3E3"/>
<stop offset="0.5574" stop-color="#579FC4"/>
<stop offset="0.6188" stop-color="#417692"/>
<stop offset="0.6823" stop-color="#2D5266"/>
<stop offset="0.7465" stop-color="#1D3541"/>
<stop offset="0.8104" stop-color="#101E24"/>
<stop offset="0.8741" stop-color="#070D10"/>
<stop offset="0.9374" stop-color="#020304"/>
<stop offset="1"/>
</radialGradient>
<radialGradient id="paint34_radial" cx="0" cy="0" r="1" gradientUnits="userSpaceOnUse" gradientTransform="translate(27.8958 463.624) scale(1277.85 1238.44)">
<stop offset="0.0671642" stop-color="#E3E3E3"/>
<stop offset="0.5574" stop-color="#579FC4"/>
<stop offset="0.6188" stop-color="#417692"/>
<stop offset="0.6823" stop-color="#2D5266"/>
<stop offset="0.7465" stop-color="#1D3541"/>
<stop offset="0.8104" stop-color="#101E24"/>
<stop offset="0.8741" stop-color="#070D10"/>
<stop offset="0.9374" stop-color="#020304"/>
<stop offset="1"/>
</radialGradient>
<radialGradient id="paint35_radial" cx="0" cy="0" r="1" gradientUnits="userSpaceOnUse" gradientTransform="translate(27.8969 463.625) scale(1277.84 1238.43)">
<stop offset="0.0671642" stop-color="#E3E3E3"/>
<stop offset="0.5574" stop-color="#579FC4"/>
<stop offset="0.6188" stop-color="#417692"/>
<stop offset="0.6823" stop-color="#2D5266"/>
<stop offset="0.7465" stop-color="#1D3541"/>
<stop offset="0.8104" stop-color="#101E24"/>
<stop offset="0.8741" stop-color="#070D10"/>
<stop offset="0.9374" stop-color="#020304"/>
<stop offset="1"/>
</radialGradient>
<radialGradient id="paint36_radial" cx="0" cy="0" r="1" gradientUnits="userSpaceOnUse" gradientTransform="translate(27.8974 463.624) scale(1277.85 1238.44)">
<stop offset="0.0671642" stop-color="#E3E3E3"/>
<stop offset="0.5574" stop-color="#579FC4"/>
<stop offset="0.6188" stop-color="#417692"/>
<stop offset="0.6823" stop-color="#2D5266"/>
<stop offset="0.7465" stop-color="#1D3541"/>
<stop offset="0.8104" stop-color="#101E24"/>
<stop offset="0.8741" stop-color="#070D10"/>
<stop offset="0.9374" stop-color="#020304"/>
<stop offset="1"/>
</radialGradient>
<radialGradient id="paint37_radial" cx="0" cy="0" r="1" gradientUnits="userSpaceOnUse" gradientTransform="translate(27.8989 463.624) scale(1277.84 1238.43)">
<stop offset="0.0671642" stop-color="#E3E3E3"/>
<stop offset="0.5574" stop-color="#579FC4"/>
<stop offset="0.6188" stop-color="#417692"/>
<stop offset="0.6823" stop-color="#2D5266"/>
<stop offset="0.7465" stop-color="#1D3541"/>
<stop offset="0.8104" stop-color="#101E24"/>
<stop offset="0.8741" stop-color="#070D10"/>
<stop offset="0.9374" stop-color="#020304"/>
<stop offset="1"/>
</radialGradient>
<radialGradient id="paint38_radial" cx="0" cy="0" r="1" gradientUnits="userSpaceOnUse" gradientTransform="translate(27.8966 463.625) scale(1277.86 1238.45)">
<stop offset="0.0671642" stop-color="#E3E3E3"/>
<stop offset="0.5574" stop-color="#579FC4"/>
<stop offset="0.6188" stop-color="#417692"/>
<stop offset="0.6823" stop-color="#2D5266"/>
<stop offset="0.7465" stop-color="#1D3541"/>
<stop offset="0.8104" stop-color="#101E24"/>
<stop offset="0.8741" stop-color="#070D10"/>
<stop offset="0.9374" stop-color="#020304"/>
<stop offset="1"/>
</radialGradient>
<radialGradient id="paint39_radial" cx="0" cy="0" r="1" gradientUnits="userSpaceOnUse" gradientTransform="translate(27.8967 463.621) scale(1277.85 1238.44)">
<stop offset="0.0671642" stop-color="#E3E3E3"/>
<stop offset="0.5574" stop-color="#579FC4"/>
<stop offset="0.6188" stop-color="#417692"/>
<stop offset="0.6823" stop-color="#2D5266"/>
<stop offset="0.7465" stop-color="#1D3541"/>
<stop offset="0.8104" stop-color="#101E24"/>
<stop offset="0.8741" stop-color="#070D10"/>
<stop offset="0.9374" stop-color="#020304"/>
<stop offset="1"/>
</radialGradient>
<radialGradient id="paint40_radial" cx="0" cy="0" r="1" gradientUnits="userSpaceOnUse" gradientTransform="translate(27.8985 466.565) scale(1277.84 1350.21)">
<stop offset="0.0671642" stop-color="#E3E3E3"/>
<stop offset="0.5574" stop-color="#579FC4"/>
<stop offset="0.6188" stop-color="#417692"/>
<stop offset="0.6823" stop-color="#2D5266"/>
<stop offset="0.7465" stop-color="#1D3541"/>
<stop offset="0.8104" stop-color="#101E24"/>
<stop offset="0.8741" stop-color="#070D10"/>
<stop offset="0.9374" stop-color="#020304"/>
<stop offset="1"/>
</radialGradient>
<radialGradient id="paint41_radial" cx="0" cy="0" r="1" gradientUnits="userSpaceOnUse" gradientTransform="translate(27.8994 466.565) scale(1277.84 1350.21)">
<stop offset="0.0671642" stop-color="#E3E3E3"/>
<stop offset="0.5574" stop-color="#579FC4"/>
<stop offset="0.6188" stop-color="#417692"/>
<stop offset="0.6823" stop-color="#2D5266"/>
<stop offset="0.7465" stop-color="#1D3541"/>
<stop offset="0.8104" stop-color="#101E24"/>
<stop offset="0.8741" stop-color="#070D10"/>
<stop offset="0.9374" stop-color="#020304"/>
<stop offset="1"/>
</radialGradient>
<radialGradient id="paint42_radial" cx="0" cy="0" r="1" gradientUnits="userSpaceOnUse" gradientTransform="translate(27.899 466.565) scale(1277.84 1350.22)">
<stop offset="0.0671642" stop-color="#E3E3E3"/>
<stop offset="0.5574" stop-color="#579FC4"/>
<stop offset="0.6188" stop-color="#417692"/>
<stop offset="0.6823" stop-color="#2D5266"/>
<stop offset="0.7465" stop-color="#1D3541"/>
<stop offset="0.8104" stop-color="#101E24"/>
<stop offset="0.8741" stop-color="#070D10"/>
<stop offset="0.9374" stop-color="#020304"/>
<stop offset="1"/>
</radialGradient>
<radialGradient id="paint43_radial" cx="0" cy="0" r="1" gradientUnits="userSpaceOnUse" gradientTransform="translate(27.9007 466.563) scale(1277.84 1350.21)">
<stop offset="0.0671642" stop-color="#E3E3E3"/>
<stop offset="0.5574" stop-color="#579FC4"/>
<stop offset="0.6188" stop-color="#417692"/>
<stop offset="0.6823" stop-color="#2D5266"/>
<stop offset="0.7465" stop-color="#1D3541"/>
<stop offset="0.8104" stop-color="#101E24"/>
<stop offset="0.8741" stop-color="#070D10"/>
<stop offset="0.9374" stop-color="#020304"/>
<stop offset="1"/>
</radialGradient>
<radialGradient id="paint44_radial" cx="0" cy="0" r="1" gradientUnits="userSpaceOnUse" gradientTransform="translate(27.9006 466.565) scale(1277.84 1350.21)">
<stop offset="0.0671642" stop-color="#E3E3E3"/>
<stop offset="0.5574" stop-color="#579FC4"/>
<stop offset="0.6188" stop-color="#417692"/>
<stop offset="0.6823" stop-color="#2D5266"/>
<stop offset="0.7465" stop-color="#1D3541"/>
<stop offset="0.8104" stop-color="#101E24"/>
<stop offset="0.8741" stop-color="#070D10"/>
<stop offset="0.9374" stop-color="#020304"/>
<stop offset="1"/>
</radialGradient>
<radialGradient id="paint45_radial" cx="0" cy="0" r="1" gradientUnits="userSpaceOnUse" gradientTransform="translate(27.8985 463.624) scale(1277.86 1238.45)">
<stop offset="0.0671642" stop-color="#E3E3E3"/>
<stop offset="0.5574" stop-color="#579FC4"/>
<stop offset="0.6188" stop-color="#417692"/>
<stop offset="0.6823" stop-color="#2D5266"/>
<stop offset="0.7465" stop-color="#1D3541"/>
<stop offset="0.8104" stop-color="#101E24"/>
<stop offset="0.8741" stop-color="#070D10"/>
<stop offset="0.9374" stop-color="#020304"/>
<stop offset="1"/>
</radialGradient>
<radialGradient id="paint46_radial" cx="0" cy="0" r="1" gradientUnits="userSpaceOnUse" gradientTransform="translate(27.8984 463.624) scale(1277.85 1238.44)">
<stop offset="0.0671642" stop-color="#E3E3E3"/>
<stop offset="0.5574" stop-color="#579FC4"/>
<stop offset="0.6188" stop-color="#417692"/>
<stop offset="0.6823" stop-color="#2D5266"/>
<stop offset="0.7465" stop-color="#1D3541"/>
<stop offset="0.8104" stop-color="#101E24"/>
<stop offset="0.8741" stop-color="#070D10"/>
<stop offset="0.9374" stop-color="#020304"/>
<stop offset="1"/>
</radialGradient>
<radialGradient id="paint47_radial" cx="0" cy="0" r="1" gradientUnits="userSpaceOnUse" gradientTransform="translate(27.8989 463.624) scale(1277.84 1238.43)">
<stop offset="0.0671642" stop-color="#E3E3E3"/>
<stop offset="0.5574" stop-color="#579FC4"/>
<stop offset="0.6188" stop-color="#417692"/>
<stop offset="0.6823" stop-color="#2D5266"/>
<stop offset="0.7465" stop-color="#1D3541"/>
<stop offset="0.8104" stop-color="#101E24"/>
<stop offset="0.8741" stop-color="#070D10"/>
<stop offset="0.9374" stop-color="#020304"/>
<stop offset="1"/>
</radialGradient>
<radialGradient id="paint48_radial" cx="0" cy="0" r="1" gradientUnits="userSpaceOnUse" gradientTransform="translate(27.8967 463.626) scale(1277.84 1238.43)">
<stop offset="0.0671642" stop-color="#E3E3E3"/>
<stop offset="0.5574" stop-color="#579FC4"/>
<stop offset="0.6188" stop-color="#417692"/>
<stop offset="0.6823" stop-color="#2D5266"/>
<stop offset="0.7465" stop-color="#1D3541"/>
<stop offset="0.8104" stop-color="#101E24"/>
<stop offset="0.8741" stop-color="#070D10"/>
<stop offset="0.9374" stop-color="#020304"/>
<stop offset="1"/>
</radialGradient>
<radialGradient id="paint49_radial" cx="0" cy="0" r="1" gradientUnits="userSpaceOnUse" gradientTransform="translate(27.8967 463.623) scale(1277.89 1238.47)">
<stop offset="0.0671642" stop-color="#E3E3E3"/>
<stop offset="0.5574" stop-color="#579FC4"/>
<stop offset="0.6188" stop-color="#417692"/>
<stop offset="0.6823" stop-color="#2D5266"/>
<stop offset="0.7465" stop-color="#1D3541"/>
<stop offset="0.8104" stop-color="#101E24"/>
<stop offset="0.8741" stop-color="#070D10"/>
<stop offset="0.9374" stop-color="#020304"/>
<stop offset="1"/>
</radialGradient>
<radialGradient id="paint50_radial" cx="0" cy="0" r="1" gradientUnits="userSpaceOnUse" gradientTransform="translate(27.8989 463.624) scale(1277.84 1238.43)">
<stop offset="0.0671642" stop-color="#E3E3E3"/>
<stop offset="0.5574" stop-color="#579FC4"/>
<stop offset="0.6188" stop-color="#417692"/>
<stop offset="0.6823" stop-color="#2D5266"/>
<stop offset="0.7465" stop-color="#1D3541"/>
<stop offset="0.8104" stop-color="#101E24"/>
<stop offset="0.8741" stop-color="#070D10"/>
<stop offset="0.9374" stop-color="#020304"/>
<stop offset="1"/>
</radialGradient>
<radialGradient id="paint51_radial" cx="0" cy="0" r="1" gradientUnits="userSpaceOnUse" gradientTransform="translate(27.8995 463.624) scale(1277.84 1238.43)">
<stop offset="0.0671642" stop-color="#E3E3E3"/>
<stop offset="0.5574" stop-color="#579FC4"/>
<stop offset="0.6188" stop-color="#417692"/>
<stop offset="0.6823" stop-color="#2D5266"/>
<stop offset="0.7465" stop-color="#1D3541"/>
<stop offset="0.8104" stop-color="#101E24"/>
<stop offset="0.8741" stop-color="#070D10"/>
<stop offset="0.9374" stop-color="#020304"/>
<stop offset="1"/>
</radialGradient>
<radialGradient id="paint52_radial" cx="0" cy="0" r="1" gradientUnits="userSpaceOnUse" gradientTransform="translate(-13.7527 492.253) scale(1876.77 1861.84)">
<stop offset="0.0671642" stop-color="#E3E3E3"/>
<stop offset="0.5574" stop-color="#579FC4"/>
<stop offset="0.6188" stop-color="#417692"/>
<stop offset="0.6823" stop-color="#2D5266"/>
<stop offset="0.7465" stop-color="#1D3541"/>
<stop offset="0.8104" stop-color="#101E24"/>
<stop offset="0.8741" stop-color="#070D10"/>
<stop offset="0.9374" stop-color="#020304"/>
<stop offset="1"/>
</radialGradient>
<radialGradient id="paint53_radial" cx="0" cy="0" r="1" gradientUnits="userSpaceOnUse" gradientTransform="translate(-13.7552 492.253) scale(1876.77 1861.86)">
<stop offset="0.0671642" stop-color="#E3E3E3"/>
<stop offset="0.5574" stop-color="#579FC4"/>
<stop offset="0.6188" stop-color="#417692"/>
<stop offset="0.6823" stop-color="#2D5266"/>
<stop offset="0.7465" stop-color="#1D3541"/>
<stop offset="0.8104" stop-color="#101E24"/>
<stop offset="0.8741" stop-color="#070D10"/>
<stop offset="0.9374" stop-color="#020304"/>
<stop offset="1"/>
</radialGradient>
<radialGradient id="paint54_radial" cx="0" cy="0" r="1" gradientUnits="userSpaceOnUse" gradientTransform="translate(27.8983 463.624) scale(1277.84 1238.43)">
<stop offset="0.0671642" stop-color="#E3E3E3"/>
<stop offset="0.5574" stop-color="#579FC4"/>
<stop offset="0.6188" stop-color="#417692"/>
<stop offset="0.6823" stop-color="#2D5266"/>
<stop offset="0.7465" stop-color="#1D3541"/>
<stop offset="0.8104" stop-color="#101E24"/>
<stop offset="0.8741" stop-color="#070D10"/>
<stop offset="0.9374" stop-color="#020304"/>
<stop offset="1"/>
</radialGradient>
<radialGradient id="paint55_radial" cx="0" cy="0" r="1" gradientUnits="userSpaceOnUse" gradientTransform="translate(27.8986 463.624) scale(1277.85 1238.43)">
<stop offset="0.0671642" stop-color="#E3E3E3"/>
<stop offset="0.5574" stop-color="#579FC4"/>
<stop offset="0.6188" stop-color="#417692"/>
<stop offset="0.6823" stop-color="#2D5266"/>
<stop offset="0.7465" stop-color="#1D3541"/>
<stop offset="0.8104" stop-color="#101E24"/>
<stop offset="0.8741" stop-color="#070D10"/>
<stop offset="0.9374" stop-color="#020304"/>
<stop offset="1"/>
</radialGradient>
<radialGradient id="paint56_radial" cx="0" cy="0" r="1" gradientUnits="userSpaceOnUse" gradientTransform="translate(27.9006 463.624) scale(1277.84 1238.43)">
<stop offset="0.0671642" stop-color="#E3E3E3"/>
<stop offset="0.5574" stop-color="#579FC4"/>
<stop offset="0.6188" stop-color="#417692"/>
<stop offset="0.6823" stop-color="#2D5266"/>
<stop offset="0.7465" stop-color="#1D3541"/>
<stop offset="0.8104" stop-color="#101E24"/>
<stop offset="0.8741" stop-color="#070D10"/>
<stop offset="0.9374" stop-color="#020304"/>
<stop offset="1"/>
</radialGradient>
<radialGradient id="paint57_radial" cx="0" cy="0" r="1" gradientUnits="userSpaceOnUse" gradientTransform="translate(27.9006 463.625) scale(1277.84 1238.43)">
<stop offset="0.0671642" stop-color="#E3E3E3"/>
<stop offset="0.5574" stop-color="#579FC4"/>
<stop offset="0.6188" stop-color="#417692"/>
<stop offset="0.6823" stop-color="#2D5266"/>
<stop offset="0.7465" stop-color="#1D3541"/>
<stop offset="0.8104" stop-color="#101E24"/>
<stop offset="0.8741" stop-color="#070D10"/>
<stop offset="0.9374" stop-color="#020304"/>
<stop offset="1"/>
</radialGradient>
<radialGradient id="paint58_radial" cx="0" cy="0" r="1" gradientUnits="userSpaceOnUse" gradientTransform="translate(27.8996 463.624) scale(1277.84 1238.43)">
<stop offset="0.0671642" stop-color="#E3E3E3"/>
<stop offset="0.5574" stop-color="#579FC4"/>
<stop offset="0.6188" stop-color="#417692"/>
<stop offset="0.6823" stop-color="#2D5266"/>
<stop offset="0.7465" stop-color="#1D3541"/>
<stop offset="0.8104" stop-color="#101E24"/>
<stop offset="0.8741" stop-color="#070D10"/>
<stop offset="0.9374" stop-color="#020304"/>
<stop offset="1"/>
</radialGradient>
<radialGradient id="paint59_radial" cx="0" cy="0" r="1" gradientUnits="userSpaceOnUse" gradientTransform="translate(27.8974 463.624) scale(1277.85 1238.44)">
<stop offset="0.0671642" stop-color="#E3E3E3"/>
<stop offset="0.5574" stop-color="#579FC4"/>
<stop offset="0.6188" stop-color="#417692"/>
<stop offset="0.6823" stop-color="#2D5266"/>
<stop offset="0.7465" stop-color="#1D3541"/>
<stop offset="0.8104" stop-color="#101E24"/>
<stop offset="0.8741" stop-color="#070D10"/>
<stop offset="0.9374" stop-color="#020304"/>
<stop offset="1"/>
</radialGradient>
<radialGradient id="paint60_radial" cx="0" cy="0" r="1" gradientUnits="userSpaceOnUse" gradientTransform="translate(27.8978 463.625) scale(1277.87 1238.45)">
<stop offset="0.0671642" stop-color="#E3E3E3"/>
<stop offset="0.5574" stop-color="#579FC4"/>
<stop offset="0.6188" stop-color="#417692"/>
<stop offset="0.6823" stop-color="#2D5266"/>
<stop offset="0.7465" stop-color="#1D3541"/>
<stop offset="0.8104" stop-color="#101E24"/>
<stop offset="0.8741" stop-color="#070D10"/>
<stop offset="0.9374" stop-color="#020304"/>
<stop offset="1"/>
</radialGradient>
<radialGradient id="paint61_radial" cx="0" cy="0" r="1" gradientUnits="userSpaceOnUse" gradientTransform="translate(27.8979 463.624) scale(1277.86 1238.45)">
<stop offset="0.0671642" stop-color="#E3E3E3"/>
<stop offset="0.5574" stop-color="#579FC4"/>
<stop offset="0.6188" stop-color="#417692"/>
<stop offset="0.6823" stop-color="#2D5266"/>
<stop offset="0.7465" stop-color="#1D3541"/>
<stop offset="0.8104" stop-color="#101E24"/>
<stop offset="0.8741" stop-color="#070D10"/>
<stop offset="0.9374" stop-color="#020304"/>
<stop offset="1"/>
</radialGradient>
<radialGradient id="paint62_radial" cx="0" cy="0" r="1" gradientUnits="userSpaceOnUse" gradientTransform="translate(27.8968 463.624) scale(1277.85 1238.44)">
<stop offset="0.0671642" stop-color="#E3E3E3"/>
<stop offset="0.5574" stop-color="#579FC4"/>
<stop offset="0.6188" stop-color="#417692"/>
<stop offset="0.6823" stop-color="#2D5266"/>
<stop offset="0.7465" stop-color="#1D3541"/>
<stop offset="0.8104" stop-color="#101E24"/>
<stop offset="0.8741" stop-color="#070D10"/>
<stop offset="0.9374" stop-color="#020304"/>
<stop offset="1"/>
</radialGradient>
<radialGradient id="paint63_radial" cx="0" cy="0" r="1" gradientUnits="userSpaceOnUse" gradientTransform="translate(27.8971 463.624) scale(1277.85 1238.44)">
<stop offset="0.0671642" stop-color="#E3E3E3"/>
<stop offset="0.5574" stop-color="#579FC4"/>
<stop offset="0.6188" stop-color="#417692"/>
<stop offset="0.6823" stop-color="#2D5266"/>
<stop offset="0.7465" stop-color="#1D3541"/>
<stop offset="0.8104" stop-color="#101E24"/>
<stop offset="0.8741" stop-color="#070D10"/>
<stop offset="0.9374" stop-color="#020304"/>
<stop offset="1"/>
</radialGradient>
<radialGradient id="paint64_radial" cx="0" cy="0" r="1" gradientUnits="userSpaceOnUse" gradientTransform="translate(27.8972 463.624) scale(1277.86 1238.45)">
<stop offset="0.0671642" stop-color="#E3E3E3"/>
<stop offset="0.5574" stop-color="#579FC4"/>
<stop offset="0.6188" stop-color="#417692"/>
<stop offset="0.6823" stop-color="#2D5266"/>
<stop offset="0.7465" stop-color="#1D3541"/>
<stop offset="0.8104" stop-color="#101E24"/>
<stop offset="0.8741" stop-color="#070D10"/>
<stop offset="0.9374" stop-color="#020304"/>
<stop offset="1"/>
</radialGradient>
<radialGradient id="paint65_radial" cx="0" cy="0" r="1" gradientUnits="userSpaceOnUse" gradientTransform="translate(27.8982 463.625) scale(1277.85 1238.42)">
<stop offset="0.0671642" stop-color="#E3E3E3"/>
<stop offset="0.5574" stop-color="#579FC4"/>
<stop offset="0.6188" stop-color="#417692"/>
<stop offset="0.6823" stop-color="#2D5266"/>
<stop offset="0.7465" stop-color="#1D3541"/>
<stop offset="0.8104" stop-color="#101E24"/>
<stop offset="0.8741" stop-color="#070D10"/>
<stop offset="0.9374" stop-color="#020304"/>
<stop offset="1"/>
</radialGradient>
<radialGradient id="paint66_radial" cx="0" cy="0" r="1" gradientUnits="userSpaceOnUse" gradientTransform="translate(27.8977 463.624) scale(1277.85 1238.44)">
<stop offset="0.0671642" stop-color="#E3E3E3"/>
<stop offset="0.5574" stop-color="#579FC4"/>
<stop offset="0.6188" stop-color="#417692"/>
<stop offset="0.6823" stop-color="#2D5266"/>
<stop offset="0.7465" stop-color="#1D3541"/>
<stop offset="0.8104" stop-color="#101E24"/>
<stop offset="0.8741" stop-color="#070D10"/>
<stop offset="0.9374" stop-color="#020304"/>
<stop offset="1"/>
</radialGradient>
<clipPath id="clip0">
<rect width="974" height="1042" fill="white"/>
</clipPath>
<clipPath id="clip1">
<rect x="10" y="293" width="673" height="324" fill="white"/>
</clipPath>
</defs>
</svg>
