<svg width="28" height="23" fill="none" xmlns="http://www.w3.org/2000/svg"><path d="M10.446 23c-1.21 0-2.457-.098-3.71-.296-2.21-.347-4.444-1.507-5.077-1.854L0 19.94l1.796-.593c1.964-.648 3.158-1.05 4.636-1.68-1.48-.719-2.621-2.013-3.17-3.687l-.418-1.273.343.053a6.254 6.254 0 01-.78-.966C1.698 10.716 1.323 9.4 1.403 8.27l.079-1.11.663.257a6.235 6.235 0 01-.6-1.69c-.29-1.446-.048-2.983.681-4.327L2.805.335l.772.93C6.02 4.21 9.113 5.958 12.784 6.469c-.15-1.037-.037-2.038.335-2.936.433-1.045 1.203-1.93 2.227-2.563a6.67 6.67 0 013.882-.956c1.45.089 2.766.634 3.811 1.577.511-.133.887-.275 1.396-.467.306-.116.652-.247 1.087-.397l1.6-.553-1.044 2.99c.069-.006.14-.01.214-.014L28 3.071l-1.01 1.385-.093.133c-.081.123-.182.276-1.568 2.134-.347.465-.52 1.07-.488 1.705.123 2.414-.172 4.597-.877 6.49-.667 1.79-1.7 3.327-3.072 4.566-1.696 1.534-3.86 2.584-6.43 3.12-1.26.264-2.615.396-4.016.396z" fill="#fff"/></svg>