<svg width="16" height="15" fill="none" xmlns="http://www.w3.org/2000/svg"><path d="M15.467 9.35v5.565H12.24V9.723c0-1.304-.466-2.195-1.634-2.195-.892 0-1.421.6-1.655 1.18-.085.208-.107.496-.107.787v5.42H5.617s.043-8.795 0-9.705h3.227v1.375c-.006.011-.015.022-.021.032h.021v-.032c.43-.66 1.194-1.603 2.909-1.603 2.123 0 3.714 1.387 3.714 4.368zM2.241.532C1.137.532.415 1.256.415 2.208c0 .932.701 1.678 1.784 1.678h.02c1.126 0 1.826-.746 1.826-1.678-.021-.952-.7-1.676-1.804-1.676zM.607 14.915h3.226V5.21H.607v9.705z" fill="#4299F8"/></svg>